{"glyphs":{"0":{"ha":939,"x_min":94,"x_max":844,"o":"m 94 472 q 142 738 94 629 q 275 904 190 847 q 469 961 360 961 q 665 904 581 961 q 797 738 749 847 q 844 472 844 629 q 797 206 844 315 q 665 40 749 97 q 469 -17 581 -17 q 275 40 360 -17 q 142 206 190 97 q 94 472 94 315 m 225 472 q 291 187 225 288 q 469 86 357 86 q 648 187 582 86 q 714 472 714 288 q 648 758 714 658 q 469 858 582 858 q 291 758 357 858 q 225 472 225 658 z "},"1":{"ha":563,"x_min":42,"x_max":432,"o":"m 306 0 l 306 896 l 374 860 l 42 607 l 42 742 l 319 944 l 432 944 l 432 0 l 306 0 z "},"2":{"ha":778,"x_min":72,"x_max":697,"o":"m 72 0 l 453 440 q 531 559 510 507 q 553 657 553 611 q 499 793 553 739 q 351 847 444 847 q 218 815 283 847 q 93 715 153 783 l 93 854 q 221 932 153 908 q 360 956 289 956 q 524 920 451 956 q 639 819 597 885 q 681 664 681 754 q 647 520 681 588 q 542 372 614 453 l 235 26 l 225 106 l 697 106 l 697 0 l 72 0 z "},"3":{"ha":754,"x_min":75,"x_max":671,"o":"m 381 576 q 518 542 451 575 q 628 447 585 510 q 671 290 671 385 q 627 130 671 199 q 506 22 583 61 q 329 -17 429 -17 q 196 3 263 -17 q 75 63 129 22 l 75 192 q 197 117 131 143 q 329 92 263 92 q 449 119 403 92 q 518 192 496 147 q 540 290 540 238 q 472 438 540 388 q 292 489 403 489 l 217 489 l 519 918 l 539 839 l 83 839 l 83 944 l 671 944 l 386 546 l 381 576 z "},"4":{"ha":771,"x_min":0,"x_max":740,"o":"m 513 944 l 156 315 l 136 372 l 740 372 l 740 267 l 0 267 l 374 944 l 513 944 m 600 694 l 600 0 l 472 0 l 472 300 l 472 332 l 472 694 l 600 694 z "},"5":{"ha":749,"x_min":75,"x_max":665,"o":"m 235 836 l 235 524 l 136 536 q 240 591 185 574 q 351 608 296 608 q 513 569 442 608 q 624 461 583 529 q 665 304 665 393 q 622 137 665 210 q 499 24 578 64 q 317 -17 421 -17 q 186 3 247 -17 q 75 57 125 22 l 75 188 q 185 117 126 142 q 307 92 243 92 q 472 151 408 92 q 535 301 535 210 q 475 445 535 388 q 308 503 415 503 q 121 449 208 503 l 121 944 l 636 944 l 636 836 l 235 836 z "},"6":{"ha":796,"x_min":58,"x_max":738,"o":"m 394 -17 q 222 22 297 -17 q 102 131 146 61 q 58 294 58 201 q 80 422 58 360 q 149 551 101 483 l 417 944 l 563 944 l 272 551 l 275 549 q 353 590 311 576 q 442 604 394 604 q 583 570 515 604 q 694 469 650 536 q 738 304 738 403 q 694 140 738 213 q 573 26 650 68 q 394 -17 496 -17 m 397 90 q 550 148 492 90 q 608 299 608 206 q 549 452 608 392 q 393 513 489 513 q 241 454 300 513 q 182 304 182 396 q 242 151 182 211 q 397 90 303 90 z "},"7":{"ha":742,"x_min":47,"x_max":719,"o":"m 131 0 l 563 893 l 624 836 l 47 836 l 47 944 l 719 944 l 267 0 l 131 0 z "},"8":{"ha":850,"x_min":83,"x_max":767,"o":"m 211 264 q 272 135 211 185 q 425 86 332 86 q 579 135 519 86 q 639 264 639 185 q 579 390 639 342 q 425 439 519 439 q 272 390 332 439 q 211 264 211 342 m 238 699 q 290 581 238 625 q 425 536 343 536 q 560 581 507 536 q 613 699 613 625 q 560 815 613 771 q 425 858 507 858 q 290 815 343 858 q 238 699 238 771 m 83 250 q 136 402 83 340 q 278 486 189 464 l 278 489 q 159 564 203 508 q 115 700 115 619 q 155 836 115 778 q 265 928 194 894 q 425 961 335 961 q 585 928 515 961 q 695 838 656 896 q 735 704 735 781 q 691 570 735 625 q 574 496 647 515 l 574 493 q 714 411 661 472 q 767 257 767 350 q 723 113 767 174 q 602 17 679 51 q 425 -17 525 -17 q 248 17 325 -17 q 127 110 171 50 q 83 250 83 169 z "},"9":{"ha":790,"x_min":58,"x_max":732,"o":"m 224 0 l 511 390 l 508 393 q 360 347 442 347 q 218 381 288 347 q 103 481 149 415 q 58 644 58 547 q 101 806 58 735 q 222 919 144 878 q 399 961 299 961 q 570 922 494 961 q 689 813 646 883 q 732 650 732 743 q 710 523 732 586 q 640 390 688 460 l 372 0 l 224 0 m 399 442 q 550 499 492 442 q 608 646 608 557 q 581 755 608 707 q 504 830 553 803 q 392 857 456 857 q 240 801 299 857 q 181 654 181 744 q 208 546 181 594 q 285 469 236 497 q 399 442 335 442 z "},"A":{"ha":847,"x_min":11,"x_max":836,"o":"m 11 0 l 326 944 l 522 944 l 836 0 l 701 0 l 424 875 l 421 875 l 142 0 l 11 0 m 189 272 l 189 385 l 658 385 l 658 272 l 438 272 l 189 272 z "},"Á":{"ha":847,"x_min":11,"x_max":836,"o":"m 11 0 l 326 944 l 522 944 l 836 0 l 701 0 l 424 875 l 421 875 l 142 0 l 11 0 m 189 272 l 189 385 l 658 385 l 658 272 l 438 272 l 189 272 m 457 1028 l 354 1028 l 463 1231 l 610 1231 l 457 1028 z "},"Ă":{"ha":847,"x_min":11,"x_max":836,"o":"m 11 0 l 326 944 l 522 944 l 836 0 l 701 0 l 424 875 l 421 875 l 142 0 l 11 0 m 189 272 l 189 385 l 658 385 l 658 272 l 438 272 l 189 272 m 422 1019 q 273 1078 329 1019 q 217 1231 217 1136 l 317 1231 q 349 1147 319 1176 q 422 1117 379 1117 q 497 1147 467 1117 q 528 1231 526 1176 l 628 1231 q 572 1078 628 1136 q 422 1019 515 1019 z "},"Ǎ":{"ha":847,"x_min":11,"x_max":836,"o":"m 11 0 l 326 944 l 522 944 l 836 0 l 701 0 l 424 875 l 421 875 l 142 0 l 11 0 m 189 272 l 189 385 l 658 385 l 658 272 l 438 272 l 189 272 m 211 1231 l 317 1231 l 422 1106 l 528 1231 l 633 1231 l 488 1028 l 357 1028 l 211 1231 z "},"Â":{"ha":847,"x_min":11,"x_max":836,"o":"m 11 0 l 326 944 l 522 944 l 836 0 l 701 0 l 424 875 l 421 875 l 142 0 l 11 0 m 189 272 l 189 385 l 658 385 l 658 272 l 438 272 l 189 272 m 211 1019 l 357 1222 l 488 1222 l 633 1019 l 528 1019 l 422 1144 l 317 1019 l 211 1019 z "},"Ä":{"ha":847,"x_min":11,"x_max":836,"o":"m 11 0 l 326 944 l 522 944 l 836 0 l 701 0 l 424 875 l 421 875 l 142 0 l 11 0 m 189 272 l 189 385 l 658 385 l 658 272 l 438 272 l 189 272 m 217 1056 l 217 1194 l 353 1194 l 353 1056 l 217 1056 m 492 1056 l 492 1194 l 628 1194 l 628 1056 l 492 1056 z "},"À":{"ha":847,"x_min":11,"x_max":836,"o":"m 11 0 l 326 944 l 522 944 l 836 0 l 701 0 l 424 875 l 421 875 l 142 0 l 11 0 m 189 272 l 189 385 l 658 385 l 658 272 l 438 272 l 189 272 m 388 1028 l 235 1231 l 382 1231 l 490 1028 l 388 1028 z "},"Ā":{"ha":847,"x_min":11,"x_max":836,"o":"m 11 0 l 326 944 l 522 944 l 836 0 l 701 0 l 424 875 l 421 875 l 142 0 l 11 0 m 189 272 l 189 385 l 658 385 l 658 272 l 438 272 l 189 272 m 214 1061 l 214 1161 l 631 1161 l 631 1061 l 214 1061 z "},"Ą":{"ha":847,"x_min":11,"x_max":836,"o":"m 11 0 l 326 944 l 522 944 l 836 0 l 701 0 l 424 875 l 421 875 l 142 0 l 11 0 m 189 272 l 189 385 l 658 385 l 658 272 l 438 272 l 189 272 m 836 0 q 763 -65 788 -32 q 739 -131 739 -99 q 770 -184 739 -171 q 836 -194 801 -197 l 836 -282 q 760 -283 796 -287 q 698 -262 725 -278 q 656 -222 671 -247 q 640 -158 640 -196 q 681 -56 640 -97 q 781 14 721 -14 l 836 0 z "},"Å":{"ha":847,"x_min":11,"x_max":836,"o":"m 11 0 l 326 944 l 522 944 l 836 0 l 701 0 l 424 875 l 421 875 l 142 0 l 11 0 m 189 272 l 189 385 l 658 385 l 658 272 l 438 272 l 189 272 m 422 1019 q 319 1058 360 1019 q 278 1157 278 1097 q 319 1256 278 1217 q 422 1294 360 1294 q 526 1256 485 1294 q 567 1157 567 1217 q 526 1058 567 1097 q 422 1019 485 1019 m 422 1089 q 469 1108 450 1089 q 489 1157 489 1128 q 469 1206 489 1186 q 422 1225 450 1225 q 375 1206 394 1225 q 356 1157 356 1186 q 375 1108 356 1128 q 422 1089 394 1089 z "},"Ã":{"ha":847,"x_min":11,"x_max":836,"o":"m 11 0 l 326 944 l 522 944 l 836 0 l 701 0 l 424 875 l 421 875 l 142 0 l 11 0 m 189 272 l 189 385 l 658 385 l 658 272 l 438 272 l 189 272 m 507 1028 q 445 1043 469 1028 q 403 1078 421 1058 q 371 1113 386 1097 q 335 1128 356 1128 q 299 1107 313 1128 q 285 1042 286 1086 l 196 1042 q 235 1173 196 1124 q 338 1222 274 1222 q 399 1207 375 1222 q 441 1172 424 1192 q 474 1138 458 1153 q 510 1122 489 1122 q 545 1144 532 1122 q 560 1208 558 1165 l 649 1208 q 610 1077 649 1126 q 507 1028 572 1028 z "},"Æ":{"ha":1221,"x_min":3,"x_max":1140,"o":"m 3 0 l 536 944 l 1138 944 l 1138 839 l 760 839 l 760 542 l 1118 542 l 1118 436 l 760 436 l 760 106 l 1140 106 l 1140 0 l 632 0 l 632 875 l 629 875 l 140 0 l 3 0 m 225 272 l 225 385 l 694 385 l 694 272 l 474 272 l 225 272 z "},"Ǽ":{"ha":1221,"x_min":3,"x_max":1140,"o":"m 3 0 l 536 944 l 1138 944 l 1138 839 l 760 839 l 760 542 l 1118 542 l 1118 436 l 760 436 l 760 106 l 1140 106 l 1140 0 l 632 0 l 632 875 l 629 875 l 140 0 l 3 0 m 225 272 l 225 385 l 694 385 l 694 272 l 474 272 l 225 272 m 794 1028 l 692 1028 l 800 1231 l 947 1231 l 794 1028 z "},"B":{"ha":814,"x_min":131,"x_max":747,"o":"m 131 0 l 131 944 l 433 944 q 584 915 519 944 q 685 831 649 885 q 721 707 721 778 q 679 578 721 631 q 565 507 638 525 l 565 504 q 699 420 651 483 q 747 264 747 357 q 708 123 747 182 q 601 32 669 64 q 442 0 532 0 l 131 0 m 258 106 l 431 106 q 565 146 513 106 q 617 271 617 186 q 565 395 617 354 q 431 436 513 436 l 258 436 l 258 106 m 258 542 l 424 542 q 549 578 500 542 q 597 690 597 614 q 549 802 597 765 q 424 839 500 839 l 258 839 l 258 542 z "},"C":{"ha":885,"x_min":67,"x_max":801,"o":"m 801 781 q 692 835 750 817 q 569 853 633 853 q 376 803 458 853 q 248 667 293 753 q 203 472 203 581 q 249 281 203 367 q 377 143 294 194 q 569 92 460 92 q 689 109 631 92 q 801 164 747 126 l 801 40 q 699 -1 758 14 q 564 -17 639 -17 q 306 46 418 -17 q 131 219 194 108 q 67 472 67 329 q 103 669 67 579 q 207 824 140 758 q 365 925 274 889 q 564 961 456 961 q 699 947 639 961 q 801 907 758 932 l 801 781 z "},"Ć":{"ha":885,"x_min":67,"x_max":801,"o":"m 801 781 q 692 835 750 817 q 569 853 633 853 q 376 803 458 853 q 248 667 293 753 q 203 472 203 581 q 249 281 203 367 q 377 143 294 194 q 569 92 460 92 q 689 109 631 92 q 801 164 747 126 l 801 40 q 699 -1 758 14 q 564 -17 639 -17 q 306 46 418 -17 q 131 219 194 108 q 67 472 67 329 q 103 669 67 579 q 207 824 140 758 q 365 925 274 889 q 564 961 456 961 q 699 947 639 961 q 801 907 758 932 l 801 781 m 557 1028 l 454 1028 l 563 1231 l 710 1231 l 557 1028 z "},"Č":{"ha":885,"x_min":67,"x_max":801,"o":"m 801 781 q 692 835 750 817 q 569 853 633 853 q 376 803 458 853 q 248 667 293 753 q 203 472 203 581 q 249 281 203 367 q 377 143 294 194 q 569 92 460 92 q 689 109 631 92 q 801 164 747 126 l 801 40 q 699 -1 758 14 q 564 -17 639 -17 q 306 46 418 -17 q 131 219 194 108 q 67 472 67 329 q 103 669 67 579 q 207 824 140 758 q 365 925 274 889 q 564 961 456 961 q 699 947 639 961 q 801 907 758 932 l 801 781 m 311 1231 l 417 1231 l 522 1106 l 628 1231 l 733 1231 l 588 1028 l 457 1028 l 311 1231 z "},"Ç":{"ha":885,"x_min":67,"x_max":801,"o":"m 801 781 q 692 835 750 817 q 569 853 633 853 q 376 803 458 853 q 248 667 293 753 q 203 472 203 581 q 249 281 203 367 q 377 143 294 194 q 569 92 460 92 q 689 109 631 92 q 801 164 747 126 l 801 40 q 699 -1 758 14 q 564 -17 639 -17 q 306 46 418 -17 q 131 219 194 108 q 67 472 67 329 q 103 669 67 579 q 207 824 140 758 q 365 925 274 889 q 564 961 456 961 q 699 947 639 961 q 801 907 758 932 l 801 781 m 501 39 l 576 39 l 515 -114 l 494 -71 q 580 -75 540 -65 q 644 -111 619 -85 q 669 -182 669 -137 q 633 -265 669 -235 q 538 -301 596 -296 q 414 -283 479 -306 l 413 -211 q 533 -224 489 -236 q 578 -182 578 -211 q 544 -141 578 -154 q 436 -131 511 -128 l 501 39 z "},"Ĉ":{"ha":885,"x_min":67,"x_max":801,"o":"m 801 781 q 692 835 750 817 q 569 853 633 853 q 376 803 458 853 q 248 667 293 753 q 203 472 203 581 q 249 281 203 367 q 377 143 294 194 q 569 92 460 92 q 689 109 631 92 q 801 164 747 126 l 801 40 q 699 -1 758 14 q 564 -17 639 -17 q 306 46 418 -17 q 131 219 194 108 q 67 472 67 329 q 103 669 67 579 q 207 824 140 758 q 365 925 274 889 q 564 961 456 961 q 699 947 639 961 q 801 907 758 932 l 801 781 m 311 1019 l 457 1222 l 588 1222 l 733 1019 l 628 1019 l 522 1144 l 417 1019 l 311 1019 z "},"Ċ":{"ha":885,"x_min":67,"x_max":801,"o":"m 801 781 q 692 835 750 817 q 569 853 633 853 q 376 803 458 853 q 248 667 293 753 q 203 472 203 581 q 249 281 203 367 q 377 143 294 194 q 569 92 460 92 q 689 109 631 92 q 801 164 747 126 l 801 40 q 699 -1 758 14 q 564 -17 639 -17 q 306 46 418 -17 q 131 219 194 108 q 67 472 67 329 q 103 669 67 579 q 207 824 140 758 q 365 925 274 889 q 564 961 456 961 q 699 947 639 961 q 801 907 758 932 l 801 781 m 449 1053 l 449 1197 l 596 1197 l 596 1053 l 449 1053 z "},"D":{"ha":992,"x_min":131,"x_max":925,"o":"m 131 0 l 131 944 l 411 944 q 678 889 563 944 q 860 728 794 833 q 925 472 925 622 q 859 219 925 325 q 677 56 793 113 q 411 0 561 0 l 131 0 m 258 106 l 397 106 q 694 203 596 106 q 792 472 792 301 q 693 740 792 642 q 397 839 594 839 l 258 839 l 258 106 z "},"Ď":{"ha":992,"x_min":131,"x_max":925,"o":"m 131 0 l 131 944 l 411 944 q 678 889 563 944 q 860 728 794 833 q 925 472 925 622 q 859 219 925 325 q 677 56 793 113 q 411 0 561 0 l 131 0 m 258 106 l 397 106 q 694 203 596 106 q 792 472 792 301 q 693 740 792 642 q 397 839 594 839 l 258 839 l 258 106 m 253 1231 l 358 1231 l 464 1106 l 569 1231 l 675 1231 l 529 1028 l 399 1028 l 253 1231 z "},"Đ":{"ha":1006,"x_min":33,"x_max":939,"o":"m 33 442 l 33 536 l 453 536 l 453 442 l 33 442 m 144 0 l 144 944 l 425 944 q 692 889 576 944 q 874 728 808 833 q 939 472 939 622 q 873 219 939 325 q 691 56 807 113 q 425 0 575 0 l 144 0 m 272 106 l 411 106 q 708 203 610 106 q 806 472 806 301 q 707 740 806 642 q 411 839 608 839 l 272 839 l 272 106 z "},"Ð":{"ha":1006,"x_min":33,"x_max":939,"o":"m 33 442 l 33 536 l 453 536 l 453 442 l 33 442 m 144 0 l 144 944 l 425 944 q 692 889 576 944 q 874 728 808 833 q 939 472 939 622 q 873 219 939 325 q 691 56 807 113 q 425 0 575 0 l 144 0 m 272 106 l 411 106 q 708 203 610 106 q 806 472 806 301 q 707 740 806 642 q 411 839 608 839 l 272 839 l 272 106 z "},"E":{"ha":733,"x_min":131,"x_max":653,"o":"m 650 944 l 650 839 l 258 839 l 258 542 l 631 542 l 631 436 l 258 436 l 258 106 l 653 106 l 653 0 l 131 0 l 131 944 l 650 944 z "},"É":{"ha":733,"x_min":131,"x_max":653,"o":"m 650 944 l 650 839 l 258 839 l 258 542 l 631 542 l 631 436 l 258 436 l 258 106 l 653 106 l 653 0 l 131 0 l 131 944 l 650 944 m 424 1028 l 321 1028 l 429 1231 l 576 1231 l 424 1028 z "},"Ĕ":{"ha":733,"x_min":131,"x_max":653,"o":"m 650 944 l 650 839 l 258 839 l 258 542 l 631 542 l 631 436 l 258 436 l 258 106 l 653 106 l 653 0 l 131 0 l 131 944 l 650 944 m 389 1019 q 240 1078 296 1019 q 183 1231 183 1136 l 283 1231 q 316 1147 286 1176 q 389 1117 346 1117 q 463 1147 433 1117 q 494 1231 493 1176 l 594 1231 q 538 1078 594 1136 q 389 1019 482 1019 z "},"Ě":{"ha":733,"x_min":131,"x_max":653,"o":"m 650 944 l 650 839 l 258 839 l 258 542 l 631 542 l 631 436 l 258 436 l 258 106 l 653 106 l 653 0 l 131 0 l 131 944 l 650 944 m 178 1231 l 283 1231 l 389 1106 l 494 1231 l 600 1231 l 454 1028 l 324 1028 l 178 1231 z "},"Ê":{"ha":733,"x_min":131,"x_max":653,"o":"m 650 944 l 650 839 l 258 839 l 258 542 l 631 542 l 631 436 l 258 436 l 258 106 l 653 106 l 653 0 l 131 0 l 131 944 l 650 944 m 178 1019 l 324 1222 l 454 1222 l 600 1019 l 494 1019 l 389 1144 l 283 1019 l 178 1019 z "},"Ë":{"ha":733,"x_min":131,"x_max":653,"o":"m 650 944 l 650 839 l 258 839 l 258 542 l 631 542 l 631 436 l 258 436 l 258 106 l 653 106 l 653 0 l 131 0 l 131 944 l 650 944 m 183 1056 l 183 1194 l 319 1194 l 319 1056 l 183 1056 m 458 1056 l 458 1194 l 594 1194 l 594 1056 l 458 1056 z "},"Ė":{"ha":733,"x_min":131,"x_max":653,"o":"m 650 944 l 650 839 l 258 839 l 258 542 l 631 542 l 631 436 l 258 436 l 258 106 l 653 106 l 653 0 l 131 0 l 131 944 l 650 944 m 315 1053 l 315 1197 l 463 1197 l 463 1053 l 315 1053 z "},"È":{"ha":733,"x_min":131,"x_max":653,"o":"m 650 944 l 650 839 l 258 839 l 258 542 l 631 542 l 631 436 l 258 436 l 258 106 l 653 106 l 653 0 l 131 0 l 131 944 l 650 944 m 354 1028 l 201 1231 l 349 1231 l 457 1028 l 354 1028 z "},"Ē":{"ha":733,"x_min":131,"x_max":653,"o":"m 650 944 l 650 839 l 258 839 l 258 542 l 631 542 l 631 436 l 258 436 l 258 106 l 653 106 l 653 0 l 131 0 l 131 944 l 650 944 m 181 1061 l 181 1161 l 597 1161 l 597 1061 l 181 1061 z "},"Ę":{"ha":733,"x_min":131,"x_max":653,"o":"m 650 944 l 650 839 l 258 839 l 258 542 l 631 542 l 631 436 l 258 436 l 258 106 l 653 106 l 653 0 l 131 0 l 131 944 l 650 944 m 653 0 q 580 -65 604 -32 q 556 -131 556 -99 q 587 -184 556 -171 q 653 -194 618 -197 l 653 -282 q 577 -283 613 -287 q 515 -262 542 -278 q 472 -222 488 -247 q 457 -158 457 -196 q 497 -56 457 -97 q 597 14 538 -14 l 653 0 z "},"Ə":{"ha":1067,"x_min":61,"x_max":1000,"o":"m 503 964 q 774 899 664 964 q 942 721 885 833 q 1000 467 1000 608 q 945 221 1000 332 q 784 44 890 110 q 524 -22 678 -22 q 317 19 406 -22 q 170 132 228 60 q 87 299 113 204 q 68 500 61 393 l 926 500 l 926 394 l 179 394 l 201 414 q 243 245 201 319 q 359 128 285 171 q 532 86 433 86 q 715 135 642 86 q 827 265 789 185 q 865 436 865 344 l 865 481 q 823 668 865 583 q 698 804 781 753 q 496 856 615 856 q 340 831 417 856 q 193 753 263 806 l 193 878 q 336 942 258 921 q 503 964 414 964 z "},"F":{"ha":711,"x_min":131,"x_max":650,"o":"m 650 944 l 650 836 l 258 836 l 258 526 l 631 526 l 631 418 l 258 418 l 258 0 l 131 0 l 131 944 l 650 944 z "},"G":{"ha":950,"x_min":67,"x_max":836,"o":"m 569 -17 q 310 44 424 -17 q 132 214 197 106 q 67 464 67 322 q 106 663 67 572 q 214 820 144 753 q 378 924 283 888 q 583 961 472 961 q 726 943 663 961 q 836 899 789 925 l 836 772 q 719 833 783 813 q 586 853 656 853 q 384 803 471 853 q 250 667 297 753 q 203 469 203 581 q 249 274 203 360 q 378 138 294 188 q 574 89 463 89 q 778 138 685 89 l 711 47 l 711 500 l 836 500 l 836 53 q 716 2 783 21 q 569 -17 649 -17 z "},"Ğ":{"ha":950,"x_min":67,"x_max":836,"o":"m 569 -17 q 310 44 424 -17 q 132 214 197 106 q 67 464 67 322 q 106 663 67 572 q 214 820 144 753 q 378 924 283 888 q 583 961 472 961 q 726 943 663 961 q 836 899 789 925 l 836 772 q 719 833 783 813 q 586 853 656 853 q 384 803 471 853 q 250 667 297 753 q 203 469 203 581 q 249 274 203 360 q 378 138 294 188 q 574 89 463 89 q 778 138 685 89 l 711 47 l 711 500 l 836 500 l 836 53 q 716 2 783 21 q 569 -17 649 -17 m 515 1019 q 366 1078 422 1019 q 310 1231 310 1136 l 410 1231 q 442 1147 413 1176 q 515 1117 472 1117 q 590 1147 560 1117 q 621 1231 619 1176 l 721 1231 q 665 1078 721 1136 q 515 1019 608 1019 z "},"Ĝ":{"ha":950,"x_min":67,"x_max":836,"o":"m 569 -17 q 310 44 424 -17 q 132 214 197 106 q 67 464 67 322 q 106 663 67 572 q 214 820 144 753 q 378 924 283 888 q 583 961 472 961 q 726 943 663 961 q 836 899 789 925 l 836 772 q 719 833 783 813 q 586 853 656 853 q 384 803 471 853 q 250 667 297 753 q 203 469 203 581 q 249 274 203 360 q 378 138 294 188 q 574 89 463 89 q 778 138 685 89 l 711 47 l 711 500 l 836 500 l 836 53 q 716 2 783 21 q 569 -17 649 -17 m 304 1019 l 450 1222 l 581 1222 l 726 1019 l 621 1019 l 515 1144 l 410 1019 l 304 1019 z "},"Ģ":{"ha":950,"x_min":67,"x_max":836,"o":"m 569 -17 q 310 44 424 -17 q 132 214 197 106 q 67 464 67 322 q 106 663 67 572 q 214 820 144 753 q 378 924 283 888 q 583 961 472 961 q 726 943 663 961 q 836 899 789 925 l 836 772 q 719 833 783 813 q 586 853 656 853 q 384 803 471 853 q 250 667 297 753 q 203 469 203 581 q 249 274 203 360 q 378 138 294 188 q 574 89 463 89 q 778 138 685 89 l 711 47 l 711 500 l 836 500 l 836 53 q 716 2 783 21 q 569 -17 649 -17 m 447 -225 l 447 -97 l 583 -97 l 583 -225 l 506 -347 l 433 -347 l 504 -225 l 447 -225 z "},"Ġ":{"ha":950,"x_min":67,"x_max":836,"o":"m 569 -17 q 310 44 424 -17 q 132 214 197 106 q 67 464 67 322 q 106 663 67 572 q 214 820 144 753 q 378 924 283 888 q 583 961 472 961 q 726 943 663 961 q 836 899 789 925 l 836 772 q 719 833 783 813 q 586 853 656 853 q 384 803 471 853 q 250 667 297 753 q 203 469 203 581 q 249 274 203 360 q 378 138 294 188 q 574 89 463 89 q 778 138 685 89 l 711 47 l 711 500 l 836 500 l 836 53 q 716 2 783 21 q 569 -17 649 -17 m 442 1053 l 442 1197 l 589 1197 l 589 1053 l 442 1053 z "},"H":{"ha":971,"x_min":131,"x_max":840,"o":"m 131 944 l 258 944 l 258 543 l 713 543 l 713 944 l 840 944 l 840 0 l 713 0 l 713 435 l 258 435 l 258 0 l 131 0 l 131 944 z "},"Ħ":{"ha":999,"x_min":33,"x_max":965,"o":"m 33 708 l 33 797 l 965 797 l 965 708 l 33 708 m 144 944 l 272 944 l 272 543 l 726 543 l 726 944 l 854 944 l 854 0 l 726 0 l 726 435 l 272 435 l 272 0 l 144 0 l 144 944 z "},"Ĥ":{"ha":971,"x_min":131,"x_max":840,"o":"m 131 944 l 258 944 l 258 543 l 713 543 l 713 944 l 840 944 l 840 0 l 713 0 l 713 435 l 258 435 l 258 0 l 131 0 l 131 944 m 281 1047 l 426 1250 l 557 1250 l 703 1047 l 597 1047 l 492 1172 l 386 1047 l 281 1047 z "},"I":{"ha":389,"x_min":131,"x_max":258,"o":"m 131 944 l 258 944 l 258 0 l 131 0 l 131 944 z "},"Ĳ":{"ha":968,"x_min":131,"x_max":843,"o":"m 131 944 l 258 944 l 258 0 l 131 0 l 131 944 m 843 944 l 843 282 q 774 68 843 146 q 560 -10 704 -10 q 484 -3 518 -10 q 422 14 450 4 l 422 126 q 477 109 446 117 q 544 101 508 101 q 675 149 635 101 q 715 282 715 197 l 715 944 l 843 944 z "},"Í":{"ha":389,"x_min":126,"x_max":382,"o":"m 131 944 l 258 944 l 258 0 l 131 0 l 131 944 m 229 1028 l 126 1028 l 235 1231 l 382 1231 l 229 1028 z "},"Ĭ":{"ha":389,"x_min":3,"x_max":386,"o":"m 131 944 l 258 944 l 258 0 l 131 0 l 131 944 m 194 1019 q 56 1078 108 1019 q 3 1231 3 1136 l 99 1231 q 128 1146 101 1175 q 194 1117 156 1117 q 262 1146 235 1117 q 290 1231 289 1175 l 386 1231 q 333 1078 386 1136 q 194 1019 281 1019 z "},"Ǐ":{"ha":389,"x_min":11,"x_max":378,"o":"m 131 944 l 258 944 l 258 0 l 131 0 l 131 944 m 11 1231 l 110 1231 l 194 1106 l 279 1231 l 378 1231 l 257 1028 l 132 1028 l 11 1231 z "},"Î":{"ha":389,"x_min":11,"x_max":378,"o":"m 131 944 l 258 944 l 258 0 l 131 0 l 131 944 m 11 1019 l 132 1222 l 257 1222 l 378 1019 l 279 1019 l 194 1144 l 110 1019 l 11 1019 z "},"Ï":{"ha":389,"x_min":17,"x_max":372,"o":"m 131 944 l 258 944 l 258 0 l 131 0 l 131 944 m 17 1056 l 17 1194 l 150 1194 l 150 1056 l 17 1056 m 239 1056 l 239 1194 l 372 1194 l 372 1056 l 239 1056 z "},"İ":{"ha":389,"x_min":121,"x_max":268,"o":"m 131 944 l 258 944 l 258 0 l 131 0 l 131 944 m 121 1053 l 121 1197 l 268 1197 l 268 1053 l 121 1053 z "},"Ì":{"ha":389,"x_min":7,"x_max":263,"o":"m 131 944 l 258 944 l 258 0 l 131 0 l 131 944 m 160 1028 l 7 1231 l 154 1231 l 263 1028 l 160 1028 z "},"Ī":{"ha":389,"x_min":42,"x_max":347,"o":"m 131 944 l 258 944 l 258 0 l 131 0 l 131 944 m 42 1061 l 42 1161 l 347 1161 l 347 1061 l 42 1061 z "},"Į":{"ha":389,"x_min":63,"x_max":258,"o":"m 131 944 l 258 944 l 258 0 l 131 0 l 131 944 m 258 0 q 185 -65 210 -32 q 161 -131 161 -99 q 192 -184 161 -171 q 258 -194 224 -197 l 258 -282 q 183 -283 218 -287 q 120 -262 147 -278 q 78 -222 93 -247 q 63 -158 63 -196 q 103 -56 63 -97 q 203 14 143 -14 l 258 0 z "},"Ɨ":{"ha":431,"x_min":33,"x_max":397,"o":"m 33 572 l 397 572 l 397 483 l 33 483 l 33 572 m 151 944 l 279 944 l 279 0 l 151 0 l 151 944 z "},"J":{"ha":601,"x_min":56,"x_max":476,"o":"m 476 944 l 476 282 q 407 68 476 146 q 193 -10 338 -10 q 117 -3 151 -10 q 56 14 83 4 l 56 126 q 110 109 79 117 q 178 101 142 101 q 308 149 268 101 q 349 282 349 197 l 349 944 l 476 944 z "},"Ĵ":{"ha":601,"x_min":56,"x_max":596,"o":"m 476 944 l 476 282 q 407 68 476 146 q 193 -10 338 -10 q 117 -3 151 -10 q 56 14 83 4 l 56 126 q 110 109 79 117 q 178 101 142 101 q 308 149 268 101 q 349 282 349 197 l 349 944 l 476 944 m 229 1019 l 350 1222 l 475 1222 l 596 1019 l 497 1019 l 413 1144 l 328 1019 l 229 1019 z "},"K":{"ha":829,"x_min":131,"x_max":799,"o":"m 635 944 l 785 944 l 383 443 l 388 522 l 799 0 l 642 0 l 271 479 l 635 944 m 131 944 l 258 944 l 258 0 l 131 0 l 131 944 z "},"Ķ":{"ha":829,"x_min":131,"x_max":799,"o":"m 635 944 l 785 944 l 383 443 l 388 522 l 799 0 l 642 0 l 271 479 l 635 944 m 131 944 l 258 944 l 258 0 l 131 0 l 131 944 m 344 -225 l 344 -97 l 481 -97 l 481 -225 l 403 -347 l 331 -347 l 401 -225 l 344 -225 z "},"L":{"ha":644,"x_min":131,"x_max":631,"o":"m 131 944 l 258 944 l 258 108 l 631 108 l 631 0 l 131 0 l 131 944 z "},"Ĺ":{"ha":644,"x_min":126,"x_max":631,"o":"m 131 944 l 258 944 l 258 108 l 631 108 l 631 0 l 131 0 l 131 944 m 229 1028 l 126 1028 l 235 1231 l 382 1231 l 229 1028 z "},"Ľ":{"ha":644,"x_min":131,"x_max":631,"o":"m 131 944 l 258 944 l 258 108 l 631 108 l 631 0 l 131 0 l 131 944 m 411 708 l 425 944 l 544 944 l 492 708 l 411 708 z "},"Ļ":{"ha":644,"x_min":131,"x_max":631,"o":"m 131 944 l 258 944 l 258 108 l 631 108 l 631 0 l 131 0 l 131 944 m 293 -225 l 293 -97 l 429 -97 l 429 -225 l 351 -347 l 279 -347 l 350 -225 l 293 -225 z "},"Ŀ":{"ha":769,"x_min":131,"x_max":689,"o":"m 131 944 l 258 944 l 258 108 l 631 108 l 631 0 l 131 0 l 131 944 m 544 414 l 544 572 l 689 572 l 689 414 l 544 414 z "},"Ł":{"ha":682,"x_min":33,"x_max":668,"o":"m 486 533 l 257 399 l 257 407 l 33 275 l 33 375 l 257 507 l 257 499 l 486 633 l 486 533 m 168 944 l 296 944 l 296 108 l 668 108 l 668 0 l 168 0 l 168 944 z "},"M":{"ha":1224,"x_min":131,"x_max":1093,"o":"m 1093 944 l 1093 0 l 965 0 l 969 868 l 967 868 l 668 0 l 553 0 l 254 868 l 251 868 l 256 0 l 131 0 l 131 944 l 351 944 l 613 172 l 615 172 l 876 944 l 1093 944 z "},"Ḿ":{"ha":1224,"x_min":131,"x_max":1093,"o":"m 1093 944 l 1093 0 l 965 0 l 969 868 l 967 868 l 668 0 l 553 0 l 254 868 l 251 868 l 256 0 l 131 0 l 131 944 l 351 944 l 613 172 l 615 172 l 876 944 l 1093 944 m 647 1028 l 544 1028 l 653 1231 l 800 1231 l 647 1028 z "},"N":{"ha":1018,"x_min":131,"x_max":888,"o":"m 357 944 l 764 78 l 767 78 l 763 944 l 888 944 l 888 0 l 668 0 l 254 881 l 251 881 l 256 0 l 131 0 l 131 944 l 357 944 z "},"Ń":{"ha":1018,"x_min":131,"x_max":888,"o":"m 357 944 l 764 78 l 767 78 l 763 944 l 888 944 l 888 0 l 668 0 l 254 881 l 251 881 l 256 0 l 131 0 l 131 944 l 357 944 m 544 1028 l 442 1028 l 550 1231 l 697 1231 l 544 1028 z "},"Ň":{"ha":1018,"x_min":131,"x_max":888,"o":"m 357 944 l 764 78 l 767 78 l 763 944 l 888 944 l 888 0 l 668 0 l 254 881 l 251 881 l 256 0 l 131 0 l 131 944 l 357 944 m 299 1231 l 404 1231 l 510 1106 l 615 1231 l 721 1231 l 575 1028 l 444 1028 l 299 1231 z "},"Ņ":{"ha":1018,"x_min":131,"x_max":888,"o":"m 357 944 l 764 78 l 767 78 l 763 944 l 888 944 l 888 0 l 668 0 l 254 881 l 251 881 l 256 0 l 131 0 l 131 944 l 357 944 m 442 -225 l 442 -97 l 578 -97 l 578 -225 l 500 -347 l 428 -347 l 499 -225 l 442 -225 z "},"Ǹ":{"ha":1018,"x_min":131,"x_max":888,"o":"m 357 944 l 764 78 l 767 78 l 763 944 l 888 944 l 888 0 l 668 0 l 254 881 l 251 881 l 256 0 l 131 0 l 131 944 l 357 944 m 475 1028 l 322 1231 l 469 1231 l 578 1028 l 475 1028 z "},"Ñ":{"ha":1018,"x_min":131,"x_max":888,"o":"m 357 944 l 764 78 l 767 78 l 763 944 l 888 944 l 888 0 l 668 0 l 254 881 l 251 881 l 256 0 l 131 0 l 131 944 l 357 944 m 594 1028 q 533 1043 557 1028 q 491 1078 508 1058 q 458 1113 474 1097 q 422 1128 443 1128 q 387 1107 400 1128 q 372 1042 374 1086 l 283 1042 q 322 1173 283 1124 q 425 1222 361 1222 q 487 1207 463 1222 q 528 1172 511 1192 q 561 1138 546 1153 q 597 1122 576 1122 q 633 1144 619 1122 q 647 1208 646 1165 l 736 1208 q 698 1077 736 1126 q 594 1028 660 1028 z "},"Ŋ":{"ha":1018,"x_min":131,"x_max":888,"o":"m 357 944 l 764 78 l 767 78 l 763 944 l 888 944 l 888 -40 q 832 -202 888 -150 q 667 -254 776 -254 q 610 -250 638 -254 l 610 -151 q 628 -153 618 -153 q 650 -154 639 -154 q 735 -125 707 -154 q 763 -35 763 -96 l 763 0 l 668 0 l 254 881 l 251 881 l 256 0 l 131 0 l 131 944 l 357 944 z "},"O":{"ha":1106,"x_min":67,"x_max":1039,"o":"m 67 469 q 103 668 67 578 q 204 826 139 758 q 358 930 269 893 q 553 967 447 967 q 747 931 658 967 q 901 828 836 894 q 1003 671 967 761 q 1039 472 1039 581 q 1003 274 1039 364 q 901 117 967 183 q 747 15 836 51 q 553 -22 658 -22 q 302 40 413 -22 q 129 214 192 103 q 67 469 67 325 m 203 472 q 248 271 203 358 q 372 135 293 183 q 553 86 451 86 q 735 134 656 86 q 858 268 814 182 q 903 469 903 354 q 858 672 903 585 q 734 809 813 760 q 553 858 656 858 q 371 810 450 858 q 247 674 292 761 q 203 472 203 588 z "},"Ó":{"ha":1106,"x_min":67,"x_max":1039,"o":"m 67 469 q 103 668 67 578 q 204 826 139 758 q 358 930 269 893 q 553 967 447 967 q 747 931 658 967 q 901 828 836 894 q 1003 671 967 761 q 1039 472 1039 581 q 1003 274 1039 364 q 901 117 967 183 q 747 15 836 51 q 553 -22 658 -22 q 302 40 413 -22 q 129 214 192 103 q 67 469 67 325 m 203 472 q 248 271 203 358 q 372 135 293 183 q 553 86 451 86 q 735 134 656 86 q 858 268 814 182 q 903 469 903 354 q 858 672 903 585 q 734 809 813 760 q 553 858 656 858 q 371 810 450 858 q 247 674 292 761 q 203 472 203 588 m 588 1028 l 485 1028 l 593 1231 l 740 1231 l 588 1028 z "},"Ŏ":{"ha":1106,"x_min":67,"x_max":1039,"o":"m 67 469 q 103 668 67 578 q 204 826 139 758 q 358 930 269 893 q 553 967 447 967 q 747 931 658 967 q 901 828 836 894 q 1003 671 967 761 q 1039 472 1039 581 q 1003 274 1039 364 q 901 117 967 183 q 747 15 836 51 q 553 -22 658 -22 q 302 40 413 -22 q 129 214 192 103 q 67 469 67 325 m 203 472 q 248 271 203 358 q 372 135 293 183 q 553 86 451 86 q 735 134 656 86 q 858 268 814 182 q 903 469 903 354 q 858 672 903 585 q 734 809 813 760 q 553 858 656 858 q 371 810 450 858 q 247 674 292 761 q 203 472 203 588 m 553 1019 q 403 1078 460 1019 q 347 1231 347 1136 l 447 1231 q 480 1147 450 1176 q 553 1117 510 1117 q 627 1147 597 1117 q 658 1231 657 1176 l 758 1231 q 702 1078 758 1136 q 553 1019 646 1019 z "},"Ǒ":{"ha":1106,"x_min":67,"x_max":1039,"o":"m 67 469 q 103 668 67 578 q 204 826 139 758 q 358 930 269 893 q 553 967 447 967 q 747 931 658 967 q 901 828 836 894 q 1003 671 967 761 q 1039 472 1039 581 q 1003 274 1039 364 q 901 117 967 183 q 747 15 836 51 q 553 -22 658 -22 q 302 40 413 -22 q 129 214 192 103 q 67 469 67 325 m 203 472 q 248 271 203 358 q 372 135 293 183 q 553 86 451 86 q 735 134 656 86 q 858 268 814 182 q 903 469 903 354 q 858 672 903 585 q 734 809 813 760 q 553 858 656 858 q 371 810 450 858 q 247 674 292 761 q 203 472 203 588 m 342 1231 l 447 1231 l 553 1106 l 658 1231 l 764 1231 l 618 1028 l 488 1028 l 342 1231 z "},"Ô":{"ha":1106,"x_min":67,"x_max":1039,"o":"m 67 469 q 103 668 67 578 q 204 826 139 758 q 358 930 269 893 q 553 967 447 967 q 747 931 658 967 q 901 828 836 894 q 1003 671 967 761 q 1039 472 1039 581 q 1003 274 1039 364 q 901 117 967 183 q 747 15 836 51 q 553 -22 658 -22 q 302 40 413 -22 q 129 214 192 103 q 67 469 67 325 m 203 472 q 248 271 203 358 q 372 135 293 183 q 553 86 451 86 q 735 134 656 86 q 858 268 814 182 q 903 469 903 354 q 858 672 903 585 q 734 809 813 760 q 553 858 656 858 q 371 810 450 858 q 247 674 292 761 q 203 472 203 588 m 342 1019 l 488 1222 l 618 1222 l 764 1019 l 658 1019 l 553 1144 l 447 1019 l 342 1019 z "},"Ö":{"ha":1106,"x_min":67,"x_max":1039,"o":"m 67 469 q 103 668 67 578 q 204 826 139 758 q 358 930 269 893 q 553 967 447 967 q 747 931 658 967 q 901 828 836 894 q 1003 671 967 761 q 1039 472 1039 581 q 1003 274 1039 364 q 901 117 967 183 q 747 15 836 51 q 553 -22 658 -22 q 302 40 413 -22 q 129 214 192 103 q 67 469 67 325 m 203 472 q 248 271 203 358 q 372 135 293 183 q 553 86 451 86 q 735 134 656 86 q 858 268 814 182 q 903 469 903 354 q 858 672 903 585 q 734 809 813 760 q 553 858 656 858 q 371 810 450 858 q 247 674 292 761 q 203 472 203 588 m 347 1056 l 347 1194 l 483 1194 l 483 1056 l 347 1056 m 622 1056 l 622 1194 l 758 1194 l 758 1056 l 622 1056 z "},"Ò":{"ha":1106,"x_min":67,"x_max":1039,"o":"m 67 469 q 103 668 67 578 q 204 826 139 758 q 358 930 269 893 q 553 967 447 967 q 747 931 658 967 q 901 828 836 894 q 1003 671 967 761 q 1039 472 1039 581 q 1003 274 1039 364 q 901 117 967 183 q 747 15 836 51 q 553 -22 658 -22 q 302 40 413 -22 q 129 214 192 103 q 67 469 67 325 m 203 472 q 248 271 203 358 q 372 135 293 183 q 553 86 451 86 q 735 134 656 86 q 858 268 814 182 q 903 469 903 354 q 858 672 903 585 q 734 809 813 760 q 553 858 656 858 q 371 810 450 858 q 247 674 292 761 q 203 472 203 588 m 518 1028 l 365 1231 l 513 1231 l 621 1028 l 518 1028 z "},"Ő":{"ha":1106,"x_min":67,"x_max":1039,"o":"m 67 469 q 103 668 67 578 q 204 826 139 758 q 358 930 269 893 q 553 967 447 967 q 747 931 658 967 q 901 828 836 894 q 1003 671 967 761 q 1039 472 1039 581 q 1003 274 1039 364 q 901 117 967 183 q 747 15 836 51 q 553 -22 658 -22 q 302 40 413 -22 q 129 214 192 103 q 67 469 67 325 m 203 472 q 248 271 203 358 q 372 135 293 183 q 553 86 451 86 q 735 134 656 86 q 858 268 814 182 q 903 469 903 354 q 858 672 903 585 q 734 809 813 760 q 553 858 656 858 q 371 810 450 858 q 247 674 292 761 q 203 472 203 588 m 600 1028 l 711 1231 l 842 1231 l 689 1028 l 600 1028 m 414 1028 l 511 1231 l 642 1231 l 503 1028 l 414 1028 z "},"Ō":{"ha":1106,"x_min":67,"x_max":1039,"o":"m 67 469 q 103 668 67 578 q 204 826 139 758 q 358 930 269 893 q 553 967 447 967 q 747 931 658 967 q 901 828 836 894 q 1003 671 967 761 q 1039 472 1039 581 q 1003 274 1039 364 q 901 117 967 183 q 747 15 836 51 q 553 -22 658 -22 q 302 40 413 -22 q 129 214 192 103 q 67 469 67 325 m 203 472 q 248 271 203 358 q 372 135 293 183 q 553 86 451 86 q 735 134 656 86 q 858 268 814 182 q 903 469 903 354 q 858 672 903 585 q 734 809 813 760 q 553 858 656 858 q 371 810 450 858 q 247 674 292 761 q 203 472 203 588 m 344 1061 l 344 1161 l 761 1161 l 761 1061 l 344 1061 z "},"Ø":{"ha":1106,"x_min":53,"x_max":1053,"o":"m 67 469 q 103 668 67 578 q 204 826 139 758 q 358 930 269 893 q 553 967 447 967 q 747 931 658 967 q 901 828 836 894 q 1003 671 967 761 q 1039 472 1039 581 q 1003 274 1039 364 q 901 117 967 183 q 747 15 836 51 q 553 -22 658 -22 q 302 40 413 -22 q 129 214 192 103 q 67 469 67 325 m 203 472 q 248 271 203 358 q 372 135 293 183 q 553 86 451 86 q 735 134 656 86 q 858 268 814 182 q 903 469 903 354 q 858 672 903 585 q 734 809 813 760 q 553 858 656 858 q 371 810 450 858 q 247 674 292 761 q 203 472 203 588 m 983 1033 l 1053 972 l 122 -89 l 53 -28 l 983 1033 z "},"Ǿ":{"ha":1106,"x_min":53,"x_max":1053,"o":"m 67 469 q 103 668 67 578 q 204 826 139 758 q 358 930 269 893 q 553 967 447 967 q 747 931 658 967 q 901 828 836 894 q 1003 671 967 761 q 1039 472 1039 581 q 1003 274 1039 364 q 901 117 967 183 q 747 15 836 51 q 553 -22 658 -22 q 302 40 413 -22 q 129 214 192 103 q 67 469 67 325 m 203 472 q 248 271 203 358 q 372 135 293 183 q 553 86 451 86 q 735 134 656 86 q 858 268 814 182 q 903 469 903 354 q 858 672 903 585 q 734 809 813 760 q 553 858 656 858 q 371 810 450 858 q 247 674 292 761 q 203 472 203 588 m 983 1033 l 1053 972 l 122 -89 l 53 -28 l 983 1033 m 588 1028 l 485 1028 l 593 1231 l 740 1231 l 588 1028 z "},"Õ":{"ha":1106,"x_min":67,"x_max":1039,"o":"m 67 469 q 103 668 67 578 q 204 826 139 758 q 358 930 269 893 q 553 967 447 967 q 747 931 658 967 q 901 828 836 894 q 1003 671 967 761 q 1039 472 1039 581 q 1003 274 1039 364 q 901 117 967 183 q 747 15 836 51 q 553 -22 658 -22 q 302 40 413 -22 q 129 214 192 103 q 67 469 67 325 m 203 472 q 248 271 203 358 q 372 135 293 183 q 553 86 451 86 q 735 134 656 86 q 858 268 814 182 q 903 469 903 354 q 858 672 903 585 q 734 809 813 760 q 553 858 656 858 q 371 810 450 858 q 247 674 292 761 q 203 472 203 588 m 638 1028 q 576 1043 600 1028 q 534 1078 551 1058 q 501 1113 517 1097 q 465 1128 486 1128 q 430 1107 443 1128 q 415 1042 417 1086 l 326 1042 q 365 1173 326 1124 q 468 1222 404 1222 q 530 1207 506 1222 q 572 1172 554 1192 q 604 1138 589 1153 q 640 1122 619 1122 q 676 1144 663 1122 q 690 1208 689 1165 l 779 1208 q 741 1077 779 1126 q 638 1028 703 1028 z "},"Œ":{"ha":1186,"x_min":67,"x_max":1106,"o":"m 1103 944 l 1103 839 l 725 839 l 725 542 l 1083 542 l 1083 436 l 725 436 l 725 106 l 1106 106 l 1106 0 l 543 0 q 295 60 403 0 q 127 226 188 119 q 67 469 67 332 q 103 659 67 572 q 204 810 139 746 q 358 909 269 874 q 553 944 447 944 l 1103 944 m 203 472 q 248 281 203 364 q 372 152 293 199 q 553 106 451 106 l 597 106 l 597 839 l 553 839 q 371 792 450 839 q 247 664 292 746 q 203 472 203 582 z "},"P":{"ha":804,"x_min":131,"x_max":740,"o":"m 131 944 l 429 944 q 656 872 571 944 q 740 676 740 800 q 656 481 740 554 q 428 408 571 408 l 258 408 l 258 0 l 131 0 l 131 944 m 258 517 l 421 517 q 558 555 507 517 q 610 674 610 593 q 556 797 610 756 q 421 839 503 839 l 258 839 l 258 517 z "},"Þ":{"ha":813,"x_min":131,"x_max":749,"o":"m 131 0 l 131 944 l 258 944 l 258 767 l 438 767 q 664 694 579 767 q 749 499 749 622 q 664 303 749 376 q 436 231 579 231 l 258 231 l 258 0 l 131 0 m 258 339 l 429 339 q 567 377 515 339 q 618 496 618 415 q 565 619 618 578 q 429 661 511 661 l 258 661 l 258 339 z "},"Q":{"ha":1106,"x_min":67,"x_max":1039,"o":"m 553 -153 l 553 -50 l 574 -50 l 1039 -67 l 1039 -172 l 1018 -172 l 553 -153 m 67 469 q 103 668 67 578 q 204 826 139 758 q 358 930 269 893 q 553 967 447 967 q 747 931 658 967 q 901 828 836 894 q 1003 671 967 761 q 1039 472 1039 581 q 1003 274 1039 364 q 901 117 967 183 q 747 15 836 51 q 553 -22 658 -22 q 302 40 413 -22 q 129 214 192 103 q 67 469 67 325 m 203 472 q 248 271 203 358 q 372 135 293 183 q 553 86 451 86 q 735 134 656 86 q 858 268 814 182 q 903 469 903 354 q 858 672 903 585 q 734 809 813 760 q 553 858 656 858 q 371 810 450 858 q 247 674 292 761 q 203 472 203 588 z "},"R":{"ha":828,"x_min":131,"x_max":797,"o":"m 351 490 q 478 505 417 490 q 579 558 539 519 q 619 667 619 597 q 564 792 619 749 q 426 836 508 836 l 258 836 l 258 0 l 131 0 l 131 944 l 435 944 q 601 911 531 944 q 711 817 672 878 q 750 675 750 757 q 709 530 750 592 q 593 434 668 468 q 414 400 518 400 l 431 479 l 797 0 l 639 0 l 276 490 l 351 490 z "},"Ŕ":{"ha":828,"x_min":131,"x_max":797,"o":"m 351 490 q 478 505 417 490 q 579 558 539 519 q 619 667 619 597 q 564 792 619 749 q 426 836 508 836 l 258 836 l 258 0 l 131 0 l 131 944 l 435 944 q 601 911 531 944 q 711 817 672 878 q 750 675 750 757 q 709 530 750 592 q 593 434 668 468 q 414 400 518 400 l 431 479 l 797 0 l 639 0 l 276 490 l 351 490 m 450 1028 l 347 1028 l 456 1231 l 603 1231 l 450 1028 z "},"Ř":{"ha":828,"x_min":131,"x_max":797,"o":"m 351 490 q 478 505 417 490 q 579 558 539 519 q 619 667 619 597 q 564 792 619 749 q 426 836 508 836 l 258 836 l 258 0 l 131 0 l 131 944 l 435 944 q 601 911 531 944 q 711 817 672 878 q 750 675 750 757 q 709 530 750 592 q 593 434 668 468 q 414 400 518 400 l 431 479 l 797 0 l 639 0 l 276 490 l 351 490 m 204 1231 l 310 1231 l 415 1106 l 521 1231 l 626 1231 l 481 1028 l 350 1028 l 204 1231 z "},"Ŗ":{"ha":828,"x_min":131,"x_max":797,"o":"m 351 490 q 478 505 417 490 q 579 558 539 519 q 619 667 619 597 q 564 792 619 749 q 426 836 508 836 l 258 836 l 258 0 l 131 0 l 131 944 l 435 944 q 601 911 531 944 q 711 817 672 878 q 750 675 750 757 q 709 530 750 592 q 593 434 668 468 q 414 400 518 400 l 431 479 l 797 0 l 639 0 l 276 490 l 351 490 m 347 -225 l 347 -97 l 483 -97 l 483 -225 l 406 -347 l 333 -347 l 404 -225 l 347 -225 z "},"Ṟ":{"ha":828,"x_min":131,"x_max":797,"o":"m 351 490 q 478 505 417 490 q 579 558 539 519 q 619 667 619 597 q 564 792 619 749 q 426 836 508 836 l 258 836 l 258 0 l 131 0 l 131 944 l 435 944 q 601 911 531 944 q 711 817 672 878 q 750 675 750 757 q 709 530 750 592 q 593 434 668 468 q 414 400 518 400 l 431 479 l 797 0 l 639 0 l 276 490 l 351 490 m 221 -231 l 221 -131 l 610 -131 l 610 -231 l 221 -231 z "},"S":{"ha":739,"x_min":92,"x_max":647,"o":"m 325 -14 q 195 3 253 -14 q 93 47 138 21 l 93 188 q 197 126 138 150 q 325 103 257 103 q 464 144 411 103 q 517 250 517 186 q 484 344 517 310 q 390 406 451 379 l 271 458 q 181 511 222 481 q 116 585 140 542 q 92 692 92 629 q 133 832 92 772 q 247 925 174 892 q 415 958 321 958 q 533 944 478 958 q 633 904 589 931 l 633 769 q 530 824 586 806 q 414 842 474 842 q 276 803 329 842 q 222 703 222 764 q 256 618 222 649 q 349 561 290 588 l 468 508 q 595 416 543 475 q 647 257 647 357 q 606 114 647 175 q 493 19 565 53 q 325 -14 421 -14 z "},"Ś":{"ha":739,"x_min":92,"x_max":647,"o":"m 325 -14 q 195 3 253 -14 q 93 47 138 21 l 93 188 q 197 126 138 150 q 325 103 257 103 q 464 144 411 103 q 517 250 517 186 q 484 344 517 310 q 390 406 451 379 l 271 458 q 181 511 222 481 q 116 585 140 542 q 92 692 92 629 q 133 832 92 772 q 247 925 174 892 q 415 958 321 958 q 533 944 478 958 q 633 904 589 931 l 633 769 q 530 824 586 806 q 414 842 474 842 q 276 803 329 842 q 222 703 222 764 q 256 618 222 649 q 349 561 290 588 l 468 508 q 595 416 543 475 q 647 257 647 357 q 606 114 647 175 q 493 19 565 53 q 325 -14 421 -14 m 408 1028 l 306 1028 l 414 1231 l 561 1231 l 408 1028 z "},"Š":{"ha":739,"x_min":92,"x_max":647,"o":"m 325 -14 q 195 3 253 -14 q 93 47 138 21 l 93 188 q 197 126 138 150 q 325 103 257 103 q 464 144 411 103 q 517 250 517 186 q 484 344 517 310 q 390 406 451 379 l 271 458 q 181 511 222 481 q 116 585 140 542 q 92 692 92 629 q 133 832 92 772 q 247 925 174 892 q 415 958 321 958 q 533 944 478 958 q 633 904 589 931 l 633 769 q 530 824 586 806 q 414 842 474 842 q 276 803 329 842 q 222 703 222 764 q 256 618 222 649 q 349 561 290 588 l 468 508 q 595 416 543 475 q 647 257 647 357 q 606 114 647 175 q 493 19 565 53 q 325 -14 421 -14 m 163 1231 l 268 1231 l 374 1106 l 479 1231 l 585 1231 l 439 1028 l 308 1028 l 163 1231 z "},"Ş":{"ha":739,"x_min":92,"x_max":647,"o":"m 325 -14 q 195 3 253 -14 q 93 47 138 21 l 93 188 q 197 126 138 150 q 325 103 257 103 q 464 144 411 103 q 517 250 517 186 q 484 344 517 310 q 390 406 451 379 l 271 458 q 181 511 222 481 q 116 585 140 542 q 92 692 92 629 q 133 832 92 772 q 247 925 174 892 q 415 958 321 958 q 533 944 478 958 q 633 904 589 931 l 633 769 q 530 824 586 806 q 414 842 474 842 q 276 803 329 842 q 222 703 222 764 q 256 618 222 649 q 349 561 290 588 l 468 508 q 595 416 543 475 q 647 257 647 357 q 606 114 647 175 q 493 19 565 53 q 325 -14 421 -14 m 353 39 l 428 39 l 367 -114 l 346 -71 q 431 -75 392 -65 q 496 -111 471 -85 q 521 -182 521 -137 q 484 -265 521 -235 q 389 -301 447 -296 q 265 -283 331 -306 l 264 -211 q 385 -224 340 -236 q 429 -182 429 -211 q 396 -141 429 -154 q 288 -131 363 -128 l 353 39 z "},"Ŝ":{"ha":739,"x_min":92,"x_max":647,"o":"m 325 -14 q 195 3 253 -14 q 93 47 138 21 l 93 188 q 197 126 138 150 q 325 103 257 103 q 464 144 411 103 q 517 250 517 186 q 484 344 517 310 q 390 406 451 379 l 271 458 q 181 511 222 481 q 116 585 140 542 q 92 692 92 629 q 133 832 92 772 q 247 925 174 892 q 415 958 321 958 q 533 944 478 958 q 633 904 589 931 l 633 769 q 530 824 586 806 q 414 842 474 842 q 276 803 329 842 q 222 703 222 764 q 256 618 222 649 q 349 561 290 588 l 468 508 q 595 416 543 475 q 647 257 647 357 q 606 114 647 175 q 493 19 565 53 q 325 -14 421 -14 m 163 1019 l 308 1222 l 439 1222 l 585 1019 l 479 1019 l 374 1144 l 268 1019 l 163 1019 z "},"Ș":{"ha":739,"x_min":92,"x_max":647,"o":"m 325 -14 q 195 3 253 -14 q 93 47 138 21 l 93 188 q 197 126 138 150 q 325 103 257 103 q 464 144 411 103 q 517 250 517 186 q 484 344 517 310 q 390 406 451 379 l 271 458 q 181 511 222 481 q 116 585 140 542 q 92 692 92 629 q 133 832 92 772 q 247 925 174 892 q 415 958 321 958 q 533 944 478 958 q 633 904 589 931 l 633 769 q 530 824 586 806 q 414 842 474 842 q 276 803 329 842 q 222 703 222 764 q 256 618 222 649 q 349 561 290 588 l 468 508 q 595 416 543 475 q 647 257 647 357 q 606 114 647 175 q 493 19 565 53 q 325 -14 421 -14 m 306 -225 l 306 -97 l 442 -97 l 442 -225 l 364 -347 l 292 -347 l 363 -225 l 306 -225 z "},"ẞ":{"ha":988,"x_min":131,"x_max":921,"o":"m 421 128 q 579 92 500 92 q 699 119 653 92 q 768 192 746 147 q 790 290 790 238 q 722 438 790 388 q 542 489 653 489 l 493 489 l 735 918 l 794 839 l 447 839 q 300 796 342 839 q 258 639 258 753 l 258 0 l 131 0 l 131 644 q 201 871 131 797 q 418 944 272 944 l 879 944 l 651 546 l 631 576 q 768 542 701 575 q 878 447 835 510 q 921 290 921 385 q 877 130 921 199 q 756 22 833 61 q 579 -17 679 -17 q 500 -10 540 -17 q 421 11 460 -3 l 421 128 z "},"T":{"ha":761,"x_min":33,"x_max":728,"o":"m 317 0 l 317 836 l 33 836 l 33 944 l 728 944 l 728 836 l 444 836 l 444 0 l 317 0 z "},"Ŧ":{"ha":761,"x_min":33,"x_max":728,"o":"m 122 432 l 122 524 l 639 524 l 639 432 l 122 432 m 317 0 l 317 836 l 33 836 l 33 944 l 728 944 l 728 836 l 444 836 l 444 0 l 317 0 z "},"Ť":{"ha":761,"x_min":33,"x_max":728,"o":"m 317 0 l 317 836 l 33 836 l 33 944 l 728 944 l 728 836 l 444 836 l 444 0 l 317 0 m 169 1231 l 275 1231 l 381 1106 l 486 1231 l 592 1231 l 446 1028 l 315 1028 l 169 1231 z "},"Ţ":{"ha":761,"x_min":33,"x_max":728,"o":"m 317 0 l 317 836 l 33 836 l 33 944 l 728 944 l 728 836 l 444 836 l 444 0 l 317 0 m 360 39 l 435 39 l 374 -114 l 353 -71 q 438 -75 399 -65 q 503 -111 478 -85 q 528 -182 528 -137 q 491 -265 528 -235 q 396 -301 454 -296 q 272 -283 338 -306 l 271 -211 q 392 -224 347 -236 q 436 -182 436 -211 q 403 -141 436 -154 q 294 -131 369 -128 l 360 39 z "},"Ț":{"ha":761,"x_min":33,"x_max":728,"o":"m 317 0 l 317 836 l 33 836 l 33 944 l 728 944 l 728 836 l 444 836 l 444 0 l 317 0 m 313 -225 l 313 -97 l 449 -97 l 449 -225 l 371 -347 l 299 -347 l 369 -225 l 313 -225 z "},"U":{"ha":939,"x_min":119,"x_max":819,"o":"m 819 944 l 819 325 q 780 147 819 225 q 663 23 740 68 q 469 -22 585 -22 q 275 22 353 -22 q 158 143 197 65 q 119 322 119 221 l 119 944 l 247 944 l 247 325 q 300 155 247 224 q 469 86 353 86 q 640 153 589 86 q 692 322 692 219 l 692 944 l 819 944 z "},"Ú":{"ha":939,"x_min":119,"x_max":819,"o":"m 819 944 l 819 325 q 780 147 819 225 q 663 23 740 68 q 469 -22 585 -22 q 275 22 353 -22 q 158 143 197 65 q 119 322 119 221 l 119 944 l 247 944 l 247 325 q 300 155 247 224 q 469 86 353 86 q 640 153 589 86 q 692 322 692 219 l 692 944 l 819 944 m 504 1028 l 401 1028 l 510 1231 l 657 1231 l 504 1028 z "},"Ʉ":{"ha":989,"x_min":33,"x_max":956,"o":"m 33 497 l 33 589 l 956 589 l 956 497 l 33 497 m 864 944 l 864 325 q 824 147 864 225 q 707 23 785 68 q 514 -22 629 -22 q 319 22 397 -22 q 203 143 242 65 q 164 322 164 221 l 164 944 l 292 944 l 292 325 q 344 155 292 224 q 514 86 397 86 q 685 153 633 86 q 736 322 736 219 l 736 944 l 864 944 z "},"Ŭ":{"ha":939,"x_min":119,"x_max":819,"o":"m 819 944 l 819 325 q 780 147 819 225 q 663 23 740 68 q 469 -22 585 -22 q 275 22 353 -22 q 158 143 197 65 q 119 322 119 221 l 119 944 l 247 944 l 247 325 q 300 155 247 224 q 469 86 353 86 q 640 153 589 86 q 692 322 692 219 l 692 944 l 819 944 m 469 1019 q 320 1078 376 1019 q 264 1231 264 1136 l 364 1231 q 397 1147 367 1176 q 469 1117 426 1117 q 544 1147 514 1117 q 575 1231 574 1176 l 675 1231 q 619 1078 675 1136 q 469 1019 563 1019 z "},"Ǔ":{"ha":939,"x_min":119,"x_max":819,"o":"m 819 944 l 819 325 q 780 147 819 225 q 663 23 740 68 q 469 -22 585 -22 q 275 22 353 -22 q 158 143 197 65 q 119 322 119 221 l 119 944 l 247 944 l 247 325 q 300 155 247 224 q 469 86 353 86 q 640 153 589 86 q 692 322 692 219 l 692 944 l 819 944 m 258 1231 l 364 1231 l 469 1106 l 575 1231 l 681 1231 l 535 1028 l 404 1028 l 258 1231 z "},"Û":{"ha":939,"x_min":119,"x_max":819,"o":"m 819 944 l 819 325 q 780 147 819 225 q 663 23 740 68 q 469 -22 585 -22 q 275 22 353 -22 q 158 143 197 65 q 119 322 119 221 l 119 944 l 247 944 l 247 325 q 300 155 247 224 q 469 86 353 86 q 640 153 589 86 q 692 322 692 219 l 692 944 l 819 944 m 258 1019 l 404 1222 l 535 1222 l 681 1019 l 575 1019 l 469 1144 l 364 1019 l 258 1019 z "},"Ü":{"ha":939,"x_min":119,"x_max":819,"o":"m 819 944 l 819 325 q 780 147 819 225 q 663 23 740 68 q 469 -22 585 -22 q 275 22 353 -22 q 158 143 197 65 q 119 322 119 221 l 119 944 l 247 944 l 247 325 q 300 155 247 224 q 469 86 353 86 q 640 153 589 86 q 692 322 692 219 l 692 944 l 819 944 m 264 1056 l 264 1194 l 400 1194 l 400 1056 l 264 1056 m 539 1056 l 539 1194 l 675 1194 l 675 1056 l 539 1056 z "},"Ù":{"ha":939,"x_min":119,"x_max":819,"o":"m 819 944 l 819 325 q 780 147 819 225 q 663 23 740 68 q 469 -22 585 -22 q 275 22 353 -22 q 158 143 197 65 q 119 322 119 221 l 119 944 l 247 944 l 247 325 q 300 155 247 224 q 469 86 353 86 q 640 153 589 86 q 692 322 692 219 l 692 944 l 819 944 m 435 1028 l 282 1231 l 429 1231 l 538 1028 l 435 1028 z "},"Ű":{"ha":939,"x_min":119,"x_max":819,"o":"m 819 944 l 819 325 q 780 147 819 225 q 663 23 740 68 q 469 -22 585 -22 q 275 22 353 -22 q 158 143 197 65 q 119 322 119 221 l 119 944 l 247 944 l 247 325 q 300 155 247 224 q 469 86 353 86 q 640 153 589 86 q 692 322 692 219 l 692 944 l 819 944 m 517 1028 l 628 1231 l 758 1231 l 606 1028 l 517 1028 m 331 1028 l 428 1231 l 558 1231 l 419 1028 l 331 1028 z "},"Ū":{"ha":939,"x_min":119,"x_max":819,"o":"m 819 944 l 819 325 q 780 147 819 225 q 663 23 740 68 q 469 -22 585 -22 q 275 22 353 -22 q 158 143 197 65 q 119 322 119 221 l 119 944 l 247 944 l 247 325 q 300 155 247 224 q 469 86 353 86 q 640 153 589 86 q 692 322 692 219 l 692 944 l 819 944 m 261 1061 l 261 1161 l 678 1161 l 678 1061 l 261 1061 z "},"Ų":{"ha":900,"x_min":100,"x_max":800,"o":"m 800 944 l 800 325 q 761 147 800 219 q 661 28 722 75 q 568 -53 601 -19 q 535 -131 535 -87 q 566 -185 535 -172 q 632 -193 597 -197 l 632 -283 q 534 -279 579 -290 q 463 -237 489 -268 q 436 -156 436 -207 q 524 -19 436 -81 l 524 -17 q 488 -21 506 -19 q 450 -22 469 -22 q 256 22 333 -22 q 139 143 178 65 q 100 322 100 221 l 100 944 l 228 944 l 228 325 q 281 155 228 224 q 450 86 333 86 q 621 153 569 86 q 672 322 672 219 l 672 944 l 800 944 z "},"Ů":{"ha":939,"x_min":119,"x_max":819,"o":"m 819 944 l 819 325 q 780 147 819 225 q 663 23 740 68 q 469 -22 585 -22 q 275 22 353 -22 q 158 143 197 65 q 119 322 119 221 l 119 944 l 247 944 l 247 325 q 300 155 247 224 q 469 86 353 86 q 640 153 589 86 q 692 322 692 219 l 692 944 l 819 944 m 469 1019 q 366 1058 407 1019 q 325 1157 325 1097 q 366 1256 325 1217 q 469 1294 407 1294 q 573 1256 532 1294 q 614 1157 614 1217 q 573 1058 614 1097 q 469 1019 532 1019 m 469 1089 q 517 1108 497 1089 q 536 1157 536 1128 q 517 1206 536 1186 q 469 1225 497 1225 q 422 1206 442 1225 q 403 1157 403 1186 q 422 1108 403 1128 q 469 1089 442 1089 z "},"Ũ":{"ha":939,"x_min":119,"x_max":819,"o":"m 819 944 l 819 325 q 780 147 819 225 q 663 23 740 68 q 469 -22 585 -22 q 275 22 353 -22 q 158 143 197 65 q 119 322 119 221 l 119 944 l 247 944 l 247 325 q 300 155 247 224 q 469 86 353 86 q 640 153 589 86 q 692 322 692 219 l 692 944 l 819 944 m 554 1028 q 492 1043 517 1028 q 451 1078 468 1058 q 418 1113 433 1097 q 382 1128 403 1128 q 347 1107 360 1128 q 332 1042 333 1086 l 243 1042 q 282 1173 243 1124 q 385 1222 321 1222 q 447 1207 422 1222 q 488 1172 471 1192 q 521 1138 506 1153 q 557 1122 536 1122 q 592 1144 579 1122 q 607 1208 606 1165 l 696 1208 q 658 1077 696 1126 q 554 1028 619 1028 z "},"V":{"ha":878,"x_min":36,"x_max":842,"o":"m 343 0 l 36 944 l 172 944 l 443 83 l 446 83 l 710 944 l 842 944 l 543 0 l 343 0 z "},"W":{"ha":1351,"x_min":44,"x_max":1307,"o":"m 285 0 l 44 944 l 176 944 l 389 76 l 392 76 l 592 944 l 758 944 l 963 76 l 965 76 l 1178 944 l 1307 944 l 1065 0 l 860 0 l 672 806 l 669 806 l 485 0 l 285 0 z "},"Ẃ":{"ha":1351,"x_min":44,"x_max":1307,"o":"m 285 0 l 44 944 l 176 944 l 389 76 l 392 76 l 592 944 l 758 944 l 963 76 l 965 76 l 1178 944 l 1307 944 l 1065 0 l 860 0 l 672 806 l 669 806 l 485 0 l 285 0 m 711 1028 l 608 1028 l 717 1231 l 864 1231 l 711 1028 z "},"Ŵ":{"ha":1351,"x_min":44,"x_max":1307,"o":"m 285 0 l 44 944 l 176 944 l 389 76 l 392 76 l 592 944 l 758 944 l 963 76 l 965 76 l 1178 944 l 1307 944 l 1065 0 l 860 0 l 672 806 l 669 806 l 485 0 l 285 0 m 465 1019 l 611 1222 l 742 1222 l 888 1019 l 782 1019 l 676 1144 l 571 1019 l 465 1019 z "},"Ẅ":{"ha":1351,"x_min":44,"x_max":1307,"o":"m 285 0 l 44 944 l 176 944 l 389 76 l 392 76 l 592 944 l 758 944 l 963 76 l 965 76 l 1178 944 l 1307 944 l 1065 0 l 860 0 l 672 806 l 669 806 l 485 0 l 285 0 m 471 1056 l 471 1194 l 607 1194 l 607 1056 l 471 1056 m 746 1056 l 746 1194 l 882 1194 l 882 1056 l 746 1056 z "},"Ẁ":{"ha":1351,"x_min":44,"x_max":1307,"o":"m 285 0 l 44 944 l 176 944 l 389 76 l 392 76 l 592 944 l 758 944 l 963 76 l 965 76 l 1178 944 l 1307 944 l 1065 0 l 860 0 l 672 806 l 669 806 l 485 0 l 285 0 m 642 1028 l 489 1231 l 636 1231 l 744 1028 l 642 1028 z "},"X":{"ha":894,"x_min":28,"x_max":867,"o":"m 446 413 l 443 413 l 174 0 l 28 0 l 388 531 l 388 444 l 51 944 l 200 944 l 449 564 l 451 564 l 697 944 l 843 944 l 507 444 l 507 531 l 867 0 l 718 0 l 446 413 z "},"Y":{"ha":850,"x_min":22,"x_max":828,"o":"m 22 944 l 169 944 l 426 510 l 429 510 l 685 944 l 828 944 l 489 396 l 489 0 l 361 0 l 361 396 l 22 944 z "},"Ý":{"ha":850,"x_min":22,"x_max":828,"o":"m 22 944 l 169 944 l 426 510 l 429 510 l 685 944 l 828 944 l 489 396 l 489 0 l 361 0 l 361 396 l 22 944 m 460 1028 l 357 1028 l 465 1231 l 613 1231 l 460 1028 z "},"Ŷ":{"ha":850,"x_min":22,"x_max":828,"o":"m 22 944 l 169 944 l 426 510 l 429 510 l 685 944 l 828 944 l 489 396 l 489 0 l 361 0 l 361 396 l 22 944 m 214 1019 l 360 1222 l 490 1222 l 636 1019 l 531 1019 l 425 1144 l 319 1019 l 214 1019 z "},"Ÿ":{"ha":850,"x_min":22,"x_max":828,"o":"m 22 944 l 169 944 l 426 510 l 429 510 l 685 944 l 828 944 l 489 396 l 489 0 l 361 0 l 361 396 l 22 944 m 219 1056 l 219 1194 l 356 1194 l 356 1056 l 219 1056 m 494 1056 l 494 1194 l 631 1194 l 631 1056 l 494 1056 z "},"Ỳ":{"ha":850,"x_min":22,"x_max":828,"o":"m 22 944 l 169 944 l 426 510 l 429 510 l 685 944 l 828 944 l 489 396 l 489 0 l 361 0 l 361 396 l 22 944 m 390 1028 l 238 1231 l 385 1231 l 493 1028 l 390 1028 z "},"Z":{"ha":815,"x_min":63,"x_max":753,"o":"m 63 0 l 585 899 l 661 836 l 85 836 l 85 944 l 753 944 l 231 46 l 154 108 l 744 108 l 744 0 l 63 0 z "},"Ź":{"ha":815,"x_min":63,"x_max":753,"o":"m 63 0 l 585 899 l 661 836 l 85 836 l 85 944 l 753 944 l 231 46 l 154 108 l 744 108 l 744 0 l 63 0 m 442 1028 l 339 1028 l 447 1231 l 594 1231 l 442 1028 z "},"Ž":{"ha":815,"x_min":63,"x_max":753,"o":"m 63 0 l 585 899 l 661 836 l 85 836 l 85 944 l 753 944 l 231 46 l 154 108 l 744 108 l 744 0 l 63 0 m 196 1231 l 301 1231 l 407 1106 l 513 1231 l 618 1231 l 472 1028 l 342 1028 l 196 1231 z "},"Ż":{"ha":815,"x_min":63,"x_max":753,"o":"m 63 0 l 585 899 l 661 836 l 85 836 l 85 944 l 753 944 l 231 46 l 154 108 l 744 108 l 744 0 l 63 0 m 333 1053 l 333 1197 l 481 1197 l 481 1053 l 333 1053 z "},"a":{"ha":724,"x_min":72,"x_max":618,"o":"m 496 90 q 413 9 465 35 q 296 -17 361 -17 q 134 37 196 -17 q 72 175 72 90 q 124 298 72 253 q 257 365 176 343 l 528 440 l 528 346 l 292 279 q 225 246 253 268 q 197 182 197 224 q 233 108 197 135 q 325 82 269 82 q 446 122 399 82 q 493 231 493 163 l 493 457 q 440 569 493 531 q 310 608 388 608 q 211 592 258 608 q 122 549 164 576 l 122 656 q 221 697 168 683 q 331 711 274 711 q 542 640 467 711 q 618 457 618 569 l 618 0 l 499 0 l 499 90 l 496 90 z "},"á":{"ha":724,"x_min":72,"x_max":618,"o":"m 496 90 q 413 9 465 35 q 296 -17 361 -17 q 134 37 196 -17 q 72 175 72 90 q 124 298 72 253 q 257 365 176 343 l 528 440 l 528 346 l 292 279 q 225 246 253 268 q 197 182 197 224 q 233 108 197 135 q 325 82 269 82 q 446 122 399 82 q 493 231 493 163 l 493 457 q 440 569 493 531 q 310 608 388 608 q 211 592 258 608 q 122 549 164 576 l 122 656 q 221 697 168 683 q 331 711 274 711 q 542 640 467 711 q 618 457 618 569 l 618 0 l 499 0 l 499 90 l 496 90 m 386 792 l 283 792 l 392 994 l 539 994 l 386 792 z "},"ă":{"ha":724,"x_min":72,"x_max":618,"o":"m 496 90 q 413 9 465 35 q 296 -17 361 -17 q 134 37 196 -17 q 72 175 72 90 q 124 298 72 253 q 257 365 176 343 l 528 440 l 528 346 l 292 279 q 225 246 253 268 q 197 182 197 224 q 233 108 197 135 q 325 82 269 82 q 446 122 399 82 q 493 231 493 163 l 493 457 q 440 569 493 531 q 310 608 388 608 q 211 592 258 608 q 122 549 164 576 l 122 656 q 221 697 168 683 q 331 711 274 711 q 542 640 467 711 q 618 457 618 569 l 618 0 l 499 0 l 499 90 l 496 90 m 351 783 q 202 842 258 783 q 146 994 146 900 l 246 994 q 278 910 249 940 q 351 881 308 881 q 426 910 396 881 q 457 994 456 940 l 557 994 q 501 842 557 900 q 351 783 444 783 z "},"ǎ":{"ha":724,"x_min":72,"x_max":618,"o":"m 496 90 q 413 9 465 35 q 296 -17 361 -17 q 134 37 196 -17 q 72 175 72 90 q 124 298 72 253 q 257 365 176 343 l 528 440 l 528 346 l 292 279 q 225 246 253 268 q 197 182 197 224 q 233 108 197 135 q 325 82 269 82 q 446 122 399 82 q 493 231 493 163 l 493 457 q 440 569 493 531 q 310 608 388 608 q 211 592 258 608 q 122 549 164 576 l 122 656 q 221 697 168 683 q 331 711 274 711 q 542 640 467 711 q 618 457 618 569 l 618 0 l 499 0 l 499 90 l 496 90 m 140 994 l 246 994 l 351 869 l 457 994 l 563 994 l 417 792 l 286 792 l 140 994 z "},"â":{"ha":724,"x_min":72,"x_max":618,"o":"m 496 90 q 413 9 465 35 q 296 -17 361 -17 q 134 37 196 -17 q 72 175 72 90 q 124 298 72 253 q 257 365 176 343 l 528 440 l 528 346 l 292 279 q 225 246 253 268 q 197 182 197 224 q 233 108 197 135 q 325 82 269 82 q 446 122 399 82 q 493 231 493 163 l 493 457 q 440 569 493 531 q 310 608 388 608 q 211 592 258 608 q 122 549 164 576 l 122 656 q 221 697 168 683 q 331 711 274 711 q 542 640 467 711 q 618 457 618 569 l 618 0 l 499 0 l 499 90 l 496 90 m 140 783 l 286 986 l 417 986 l 563 783 l 457 783 l 351 908 l 246 783 l 140 783 z "},"ä":{"ha":724,"x_min":72,"x_max":618,"o":"m 496 90 q 413 9 465 35 q 296 -17 361 -17 q 134 37 196 -17 q 72 175 72 90 q 124 298 72 253 q 257 365 176 343 l 528 440 l 528 346 l 292 279 q 225 246 253 268 q 197 182 197 224 q 233 108 197 135 q 325 82 269 82 q 446 122 399 82 q 493 231 493 163 l 493 457 q 440 569 493 531 q 310 608 388 608 q 211 592 258 608 q 122 549 164 576 l 122 656 q 221 697 168 683 q 331 711 274 711 q 542 640 467 711 q 618 457 618 569 l 618 0 l 499 0 l 499 90 l 496 90 m 146 819 l 146 958 l 282 958 l 282 819 l 146 819 m 421 819 l 421 958 l 557 958 l 557 819 l 421 819 z "},"à":{"ha":724,"x_min":72,"x_max":618,"o":"m 496 90 q 413 9 465 35 q 296 -17 361 -17 q 134 37 196 -17 q 72 175 72 90 q 124 298 72 253 q 257 365 176 343 l 528 440 l 528 346 l 292 279 q 225 246 253 268 q 197 182 197 224 q 233 108 197 135 q 325 82 269 82 q 446 122 399 82 q 493 231 493 163 l 493 457 q 440 569 493 531 q 310 608 388 608 q 211 592 258 608 q 122 549 164 576 l 122 656 q 221 697 168 683 q 331 711 274 711 q 542 640 467 711 q 618 457 618 569 l 618 0 l 499 0 l 499 90 l 496 90 m 317 792 l 164 994 l 311 994 l 419 792 l 317 792 z "},"ā":{"ha":724,"x_min":72,"x_max":618,"o":"m 496 90 q 413 9 465 35 q 296 -17 361 -17 q 134 37 196 -17 q 72 175 72 90 q 124 298 72 253 q 257 365 176 343 l 528 440 l 528 346 l 292 279 q 225 246 253 268 q 197 182 197 224 q 233 108 197 135 q 325 82 269 82 q 446 122 399 82 q 493 231 493 163 l 493 457 q 440 569 493 531 q 310 608 388 608 q 211 592 258 608 q 122 549 164 576 l 122 656 q 221 697 168 683 q 331 711 274 711 q 542 640 467 711 q 618 457 618 569 l 618 0 l 499 0 l 499 90 l 496 90 m 143 825 l 143 925 l 560 925 l 560 825 l 143 825 z "},"ą":{"ha":724,"x_min":72,"x_max":618,"o":"m 496 90 q 413 9 465 35 q 296 -17 361 -17 q 134 37 196 -17 q 72 175 72 90 q 124 298 72 253 q 257 365 176 343 l 528 440 l 528 346 l 292 279 q 225 246 253 268 q 197 182 197 224 q 233 108 197 135 q 325 82 269 82 q 446 122 399 82 q 493 231 493 163 l 493 457 q 440 569 493 531 q 310 608 388 608 q 211 592 258 608 q 122 549 164 576 l 122 656 q 221 697 168 683 q 331 711 274 711 q 542 640 467 711 q 618 457 618 569 l 618 0 l 499 0 l 499 90 l 496 90 m 618 0 q 545 -65 569 -32 q 521 -131 521 -99 q 552 -184 521 -171 q 618 -194 583 -197 l 618 -282 q 542 -283 578 -287 q 480 -262 507 -278 q 438 -222 453 -247 q 422 -158 422 -196 q 463 -56 422 -97 q 563 14 503 -14 l 618 0 z "},"å":{"ha":724,"x_min":72,"x_max":618,"o":"m 496 90 q 413 9 465 35 q 296 -17 361 -17 q 134 37 196 -17 q 72 175 72 90 q 124 298 72 253 q 257 365 176 343 l 528 440 l 528 346 l 292 279 q 225 246 253 268 q 197 182 197 224 q 233 108 197 135 q 325 82 269 82 q 446 122 399 82 q 493 231 493 163 l 493 457 q 440 569 493 531 q 310 608 388 608 q 211 592 258 608 q 122 549 164 576 l 122 656 q 221 697 168 683 q 331 711 274 711 q 542 640 467 711 q 618 457 618 569 l 618 0 l 499 0 l 499 90 l 496 90 m 351 783 q 248 822 289 783 q 207 921 207 861 q 248 1019 207 981 q 351 1058 289 1058 q 455 1019 414 1058 q 496 921 496 981 q 455 822 496 861 q 351 783 414 783 m 351 853 q 399 872 379 853 q 418 921 418 892 q 399 969 418 950 q 351 989 379 989 q 304 969 324 989 q 285 921 285 950 q 304 872 285 892 q 351 853 324 853 z "},"ã":{"ha":724,"x_min":72,"x_max":618,"o":"m 496 90 q 413 9 465 35 q 296 -17 361 -17 q 134 37 196 -17 q 72 175 72 90 q 124 298 72 253 q 257 365 176 343 l 528 440 l 528 346 l 292 279 q 225 246 253 268 q 197 182 197 224 q 233 108 197 135 q 325 82 269 82 q 446 122 399 82 q 493 231 493 163 l 493 457 q 440 569 493 531 q 310 608 388 608 q 211 592 258 608 q 122 549 164 576 l 122 656 q 221 697 168 683 q 331 711 274 711 q 542 640 467 711 q 618 457 618 569 l 618 0 l 499 0 l 499 90 l 496 90 m 436 792 q 374 807 399 792 q 333 842 350 822 q 300 876 315 861 q 264 892 285 892 q 228 871 242 892 q 214 806 215 850 l 125 806 q 164 937 125 888 q 267 986 203 986 q 328 971 304 986 q 370 936 353 956 q 403 901 388 917 q 439 886 418 886 q 474 908 461 886 q 489 972 488 929 l 578 972 q 540 841 578 890 q 436 792 501 792 z "},"æ":{"ha":1235,"x_min":72,"x_max":1181,"o":"m 578 157 q 473 22 547 61 q 313 -17 399 -17 q 136 37 200 -17 q 72 175 72 90 q 124 298 72 253 q 257 365 176 343 l 528 440 l 528 346 l 292 279 q 225 246 253 268 q 197 182 197 224 q 233 108 197 135 q 325 82 269 82 q 446 122 399 82 q 493 231 493 163 l 493 457 q 440 569 493 531 q 310 608 388 608 q 211 592 258 608 q 122 549 164 576 l 122 656 q 221 697 168 683 q 331 711 274 711 q 508 666 439 711 q 597 544 578 621 l 551 544 q 669 666 592 621 q 847 711 746 711 q 1038 658 963 711 q 1147 518 1113 606 q 1171 325 1181 431 l 556 325 l 556 422 l 1069 422 l 1046 408 q 989 556 1046 499 q 842 614 932 614 q 721 580 771 614 q 644 492 671 546 q 618 378 618 439 l 618 333 q 649 209 618 265 q 740 119 681 153 q 882 86 799 86 q 988 101 935 86 q 1089 147 1042 117 l 1089 40 q 990 -1 1044 13 q 876 -14 935 -14 q 676 31 760 -14 q 544 157 592 76 l 578 157 z "},"ǽ":{"ha":1235,"x_min":72,"x_max":1181,"o":"m 578 157 q 473 22 547 61 q 313 -17 399 -17 q 136 37 200 -17 q 72 175 72 90 q 124 298 72 253 q 257 365 176 343 l 528 440 l 528 346 l 292 279 q 225 246 253 268 q 197 182 197 224 q 233 108 197 135 q 325 82 269 82 q 446 122 399 82 q 493 231 493 163 l 493 457 q 440 569 493 531 q 310 608 388 608 q 211 592 258 608 q 122 549 164 576 l 122 656 q 221 697 168 683 q 331 711 274 711 q 508 666 439 711 q 597 544 578 621 l 551 544 q 669 666 592 621 q 847 711 746 711 q 1038 658 963 711 q 1147 518 1113 606 q 1171 325 1181 431 l 556 325 l 556 422 l 1069 422 l 1046 408 q 989 556 1046 499 q 842 614 932 614 q 721 580 771 614 q 644 492 671 546 q 618 378 618 439 l 618 333 q 649 209 618 265 q 740 119 681 153 q 882 86 799 86 q 988 101 935 86 q 1089 147 1042 117 l 1089 40 q 990 -1 1044 13 q 876 -14 935 -14 q 676 31 760 -14 q 544 157 592 76 l 578 157 m 638 792 l 535 792 l 643 994 l 790 994 l 638 792 z "},"b":{"ha":886,"x_min":111,"x_max":824,"o":"m 485 -17 q 341 18 408 -17 q 233 125 274 53 l 231 125 l 231 0 l 111 0 l 111 972 l 236 972 l 236 569 l 239 569 q 301 647 264 615 q 387 694 339 678 q 489 711 435 711 q 660 665 585 711 q 780 538 736 619 q 824 347 824 457 q 780 160 824 243 q 660 31 736 78 q 485 -17 583 -17 m 468 86 q 633 156 571 86 q 696 347 696 225 q 633 538 696 467 q 468 608 571 608 q 298 535 363 608 q 233 347 233 463 q 298 159 233 232 q 468 86 363 86 z "},"c":{"ha":665,"x_min":63,"x_max":596,"o":"m 596 572 q 526 600 561 592 q 456 608 492 608 q 317 575 378 608 q 224 483 257 542 q 190 350 190 425 q 225 215 190 275 q 319 121 260 156 q 456 86 379 86 q 526 94 490 86 q 596 122 561 103 l 596 17 q 522 -7 560 0 q 443 -14 483 -14 q 247 32 333 -14 q 112 158 161 78 q 63 344 63 239 q 113 532 63 450 q 249 661 163 614 q 443 708 335 708 q 520 701 482 708 q 596 678 558 694 l 596 572 z "},"ć":{"ha":665,"x_min":63,"x_max":596,"o":"m 596 572 q 526 600 561 592 q 456 608 492 608 q 317 575 378 608 q 224 483 257 542 q 190 350 190 425 q 225 215 190 275 q 319 121 260 156 q 456 86 379 86 q 526 94 490 86 q 596 122 561 103 l 596 17 q 522 -7 560 0 q 443 -14 483 -14 q 247 32 333 -14 q 112 158 161 78 q 63 344 63 239 q 113 532 63 450 q 249 661 163 614 q 443 708 335 708 q 520 701 482 708 q 596 678 558 694 l 596 572 m 424 792 l 321 792 l 429 994 l 576 994 l 424 792 z "},"č":{"ha":665,"x_min":63,"x_max":600,"o":"m 596 572 q 526 600 561 592 q 456 608 492 608 q 317 575 378 608 q 224 483 257 542 q 190 350 190 425 q 225 215 190 275 q 319 121 260 156 q 456 86 379 86 q 526 94 490 86 q 596 122 561 103 l 596 17 q 522 -7 560 0 q 443 -14 483 -14 q 247 32 333 -14 q 112 158 161 78 q 63 344 63 239 q 113 532 63 450 q 249 661 163 614 q 443 708 335 708 q 520 701 482 708 q 596 678 558 694 l 596 572 m 178 994 l 283 994 l 389 869 l 494 994 l 600 994 l 454 792 l 324 792 l 178 994 z "},"ç":{"ha":665,"x_min":63,"x_max":596,"o":"m 596 572 q 526 600 561 592 q 456 608 492 608 q 317 575 378 608 q 224 483 257 542 q 190 350 190 425 q 225 215 190 275 q 319 121 260 156 q 456 86 379 86 q 526 94 490 86 q 596 122 561 103 l 596 17 q 522 -7 560 0 q 443 -14 483 -14 q 247 32 333 -14 q 112 158 161 78 q 63 344 63 239 q 113 532 63 450 q 249 661 163 614 q 443 708 335 708 q 520 701 482 708 q 596 678 558 694 l 596 572 m 368 39 l 443 39 l 382 -114 l 361 -71 q 447 -75 407 -65 q 511 -111 486 -85 q 536 -182 536 -137 q 499 -265 536 -235 q 404 -301 463 -296 q 281 -283 346 -306 l 279 -211 q 400 -224 356 -236 q 444 -182 444 -211 q 411 -141 444 -154 q 303 -131 378 -128 l 368 39 z "},"ĉ":{"ha":665,"x_min":63,"x_max":600,"o":"m 596 572 q 526 600 561 592 q 456 608 492 608 q 317 575 378 608 q 224 483 257 542 q 190 350 190 425 q 225 215 190 275 q 319 121 260 156 q 456 86 379 86 q 526 94 490 86 q 596 122 561 103 l 596 17 q 522 -7 560 0 q 443 -14 483 -14 q 247 32 333 -14 q 112 158 161 78 q 63 344 63 239 q 113 532 63 450 q 249 661 163 614 q 443 708 335 708 q 520 701 482 708 q 596 678 558 694 l 596 572 m 178 783 l 324 986 l 454 986 l 600 783 l 494 783 l 389 908 l 283 783 l 178 783 z "},"ċ":{"ha":665,"x_min":63,"x_max":596,"o":"m 596 572 q 526 600 561 592 q 456 608 492 608 q 317 575 378 608 q 224 483 257 542 q 190 350 190 425 q 225 215 190 275 q 319 121 260 156 q 456 86 379 86 q 526 94 490 86 q 596 122 561 103 l 596 17 q 522 -7 560 0 q 443 -14 483 -14 q 247 32 333 -14 q 112 158 161 78 q 63 344 63 239 q 113 532 63 450 q 249 661 163 614 q 443 708 335 708 q 520 701 482 708 q 596 678 558 694 l 596 572 m 315 817 l 315 961 l 463 961 l 463 817 l 315 817 z "},"d":{"ha":886,"x_min":63,"x_max":775,"o":"m 397 -17 q 226 29 303 -17 q 106 157 150 75 q 63 347 63 239 q 106 535 63 453 q 226 664 150 617 q 397 711 301 711 q 541 679 476 711 q 647 583 606 647 l 650 583 l 650 972 l 775 972 l 775 0 l 656 0 l 656 139 l 653 139 q 548 22 615 60 q 397 -17 481 -17 m 418 86 q 589 159 525 86 q 653 347 653 232 q 589 535 653 463 q 418 608 525 608 q 253 540 315 608 q 190 347 190 471 q 253 158 190 229 q 418 86 315 86 z "},"ď":{"ha":956,"x_min":63,"x_max":1006,"o":"m 397 -17 q 226 29 303 -17 q 106 157 150 75 q 63 347 63 239 q 106 535 63 453 q 226 664 150 617 q 397 711 301 711 q 541 679 476 711 q 647 583 606 647 l 650 583 l 650 972 l 775 972 l 775 0 l 656 0 l 656 139 l 653 139 q 548 22 615 60 q 397 -17 481 -17 m 418 86 q 589 159 525 86 q 653 347 653 232 q 589 535 653 463 q 418 608 525 608 q 253 540 315 608 q 190 347 190 471 q 253 158 190 229 q 418 86 315 86 m 872 736 l 886 972 l 1006 972 l 953 736 l 872 736 z "},"đ":{"ha":894,"x_min":63,"x_max":872,"o":"m 469 792 l 469 878 l 872 878 l 872 792 l 469 792 m 397 -17 q 226 29 303 -17 q 106 157 150 75 q 63 347 63 239 q 106 535 63 453 q 226 664 150 617 q 397 711 301 711 q 541 679 476 711 q 647 583 606 647 l 650 583 l 650 972 l 775 972 l 775 0 l 656 0 l 656 139 l 653 139 q 548 22 615 60 q 397 -17 481 -17 m 418 86 q 589 159 525 86 q 653 347 653 232 q 589 535 653 463 q 418 608 525 608 q 253 540 315 608 q 190 347 190 471 q 253 158 190 229 q 418 86 315 86 z "},"ð":{"ha":833,"x_min":63,"x_max":771,"o":"m 419 -17 q 235 26 317 -17 q 108 144 154 68 q 63 322 63 221 q 107 497 63 421 q 227 617 151 574 q 399 661 303 661 q 475 652 439 661 q 538 624 511 643 l 540 626 l 288 972 l 433 972 l 633 683 q 734 508 697 590 q 771 331 771 425 q 726 151 771 229 q 603 28 682 72 q 419 -17 525 -17 m 419 83 q 585 149 521 83 q 649 328 649 214 q 585 502 649 438 q 419 567 521 567 q 254 501 318 567 q 190 325 190 436 q 255 148 190 213 q 419 83 319 83 m 265 714 l 265 806 l 672 944 l 672 853 l 265 714 z "},"e":{"ha":807,"x_min":63,"x_max":753,"o":"m 449 -14 q 240 34 326 -14 q 108 163 154 82 q 63 344 63 244 q 108 530 63 447 q 233 662 153 613 q 419 711 314 711 q 610 658 535 711 q 719 518 685 606 q 743 325 753 431 l 128 325 l 128 422 l 642 422 l 618 408 q 561 556 618 499 q 414 614 504 614 q 293 580 343 614 q 217 492 243 546 q 190 378 190 439 l 190 333 q 222 209 190 265 q 312 119 253 153 q 454 86 371 86 q 560 101 507 86 q 661 147 614 117 l 661 40 q 562 -1 617 13 q 449 -14 507 -14 z "},"é":{"ha":807,"x_min":63,"x_max":753,"o":"m 449 -14 q 240 34 326 -14 q 108 163 154 82 q 63 344 63 244 q 108 530 63 447 q 233 662 153 613 q 419 711 314 711 q 610 658 535 711 q 719 518 685 606 q 743 325 753 431 l 128 325 l 128 422 l 642 422 l 618 408 q 561 556 618 499 q 414 614 504 614 q 293 580 343 614 q 217 492 243 546 q 190 378 190 439 l 190 333 q 222 209 190 265 q 312 119 253 153 q 454 86 371 86 q 560 101 507 86 q 661 147 614 117 l 661 40 q 562 -1 617 13 q 449 -14 507 -14 m 449 792 l 346 792 l 454 994 l 601 994 l 449 792 z "},"ĕ":{"ha":807,"x_min":63,"x_max":753,"o":"m 449 -14 q 240 34 326 -14 q 108 163 154 82 q 63 344 63 244 q 108 530 63 447 q 233 662 153 613 q 419 711 314 711 q 610 658 535 711 q 719 518 685 606 q 743 325 753 431 l 128 325 l 128 422 l 642 422 l 618 408 q 561 556 618 499 q 414 614 504 614 q 293 580 343 614 q 217 492 243 546 q 190 378 190 439 l 190 333 q 222 209 190 265 q 312 119 253 153 q 454 86 371 86 q 560 101 507 86 q 661 147 614 117 l 661 40 q 562 -1 617 13 q 449 -14 507 -14 m 414 783 q 265 842 321 783 q 208 994 208 900 l 308 994 q 341 910 311 940 q 414 881 371 881 q 488 910 458 881 q 519 994 518 940 l 619 994 q 563 842 619 900 q 414 783 507 783 z "},"ě":{"ha":807,"x_min":63,"x_max":753,"o":"m 449 -14 q 240 34 326 -14 q 108 163 154 82 q 63 344 63 244 q 108 530 63 447 q 233 662 153 613 q 419 711 314 711 q 610 658 535 711 q 719 518 685 606 q 743 325 753 431 l 128 325 l 128 422 l 642 422 l 618 408 q 561 556 618 499 q 414 614 504 614 q 293 580 343 614 q 217 492 243 546 q 190 378 190 439 l 190 333 q 222 209 190 265 q 312 119 253 153 q 454 86 371 86 q 560 101 507 86 q 661 147 614 117 l 661 40 q 562 -1 617 13 q 449 -14 507 -14 m 203 994 l 308 994 l 414 869 l 519 994 l 625 994 l 479 792 l 349 792 l 203 994 z "},"ê":{"ha":807,"x_min":63,"x_max":753,"o":"m 449 -14 q 240 34 326 -14 q 108 163 154 82 q 63 344 63 244 q 108 530 63 447 q 233 662 153 613 q 419 711 314 711 q 610 658 535 711 q 719 518 685 606 q 743 325 753 431 l 128 325 l 128 422 l 642 422 l 618 408 q 561 556 618 499 q 414 614 504 614 q 293 580 343 614 q 217 492 243 546 q 190 378 190 439 l 190 333 q 222 209 190 265 q 312 119 253 153 q 454 86 371 86 q 560 101 507 86 q 661 147 614 117 l 661 40 q 562 -1 617 13 q 449 -14 507 -14 m 203 783 l 349 986 l 479 986 l 625 783 l 519 783 l 414 908 l 308 783 l 203 783 z "},"ë":{"ha":807,"x_min":63,"x_max":753,"o":"m 449 -14 q 240 34 326 -14 q 108 163 154 82 q 63 344 63 244 q 108 530 63 447 q 233 662 153 613 q 419 711 314 711 q 610 658 535 711 q 719 518 685 606 q 743 325 753 431 l 128 325 l 128 422 l 642 422 l 618 408 q 561 556 618 499 q 414 614 504 614 q 293 580 343 614 q 217 492 243 546 q 190 378 190 439 l 190 333 q 222 209 190 265 q 312 119 253 153 q 454 86 371 86 q 560 101 507 86 q 661 147 614 117 l 661 40 q 562 -1 617 13 q 449 -14 507 -14 m 208 819 l 208 958 l 344 958 l 344 819 l 208 819 m 483 819 l 483 958 l 619 958 l 619 819 l 483 819 z "},"ė":{"ha":807,"x_min":63,"x_max":753,"o":"m 449 -14 q 240 34 326 -14 q 108 163 154 82 q 63 344 63 244 q 108 530 63 447 q 233 662 153 613 q 419 711 314 711 q 610 658 535 711 q 719 518 685 606 q 743 325 753 431 l 128 325 l 128 422 l 642 422 l 618 408 q 561 556 618 499 q 414 614 504 614 q 293 580 343 614 q 217 492 243 546 q 190 378 190 439 l 190 333 q 222 209 190 265 q 312 119 253 153 q 454 86 371 86 q 560 101 507 86 q 661 147 614 117 l 661 40 q 562 -1 617 13 q 449 -14 507 -14 m 340 817 l 340 961 l 488 961 l 488 817 l 340 817 z "},"è":{"ha":807,"x_min":63,"x_max":753,"o":"m 449 -14 q 240 34 326 -14 q 108 163 154 82 q 63 344 63 244 q 108 530 63 447 q 233 662 153 613 q 419 711 314 711 q 610 658 535 711 q 719 518 685 606 q 743 325 753 431 l 128 325 l 128 422 l 642 422 l 618 408 q 561 556 618 499 q 414 614 504 614 q 293 580 343 614 q 217 492 243 546 q 190 378 190 439 l 190 333 q 222 209 190 265 q 312 119 253 153 q 454 86 371 86 q 560 101 507 86 q 661 147 614 117 l 661 40 q 562 -1 617 13 q 449 -14 507 -14 m 379 792 l 226 994 l 374 994 l 482 792 l 379 792 z "},"ē":{"ha":807,"x_min":63,"x_max":753,"o":"m 449 -14 q 240 34 326 -14 q 108 163 154 82 q 63 344 63 244 q 108 530 63 447 q 233 662 153 613 q 419 711 314 711 q 610 658 535 711 q 719 518 685 606 q 743 325 753 431 l 128 325 l 128 422 l 642 422 l 618 408 q 561 556 618 499 q 414 614 504 614 q 293 580 343 614 q 217 492 243 546 q 190 378 190 439 l 190 333 q 222 209 190 265 q 312 119 253 153 q 454 86 371 86 q 560 101 507 86 q 661 147 614 117 l 661 40 q 562 -1 617 13 q 449 -14 507 -14 m 206 825 l 206 925 l 622 925 l 622 825 l 206 825 z "},"ę":{"ha":807,"x_min":63,"x_max":753,"o":"m 661 40 q 555 -60 585 -21 q 525 -131 525 -99 q 556 -185 525 -172 q 622 -193 588 -197 l 622 -283 q 547 -284 582 -289 q 484 -264 511 -279 q 442 -222 457 -249 q 426 -156 426 -194 q 456 -71 426 -107 q 529 -11 486 -35 l 529 40 l 661 40 m 449 -14 q 240 34 326 -14 q 108 163 154 82 q 63 344 63 244 q 108 530 63 447 q 233 662 153 613 q 419 711 314 711 q 610 658 535 711 q 719 518 685 606 q 743 325 753 431 l 128 325 l 128 422 l 642 422 l 618 408 q 561 556 618 499 q 414 614 504 614 q 293 580 343 614 q 217 492 243 546 q 190 378 190 439 l 190 333 q 222 209 190 265 q 312 119 253 153 q 454 86 371 86 q 560 101 507 86 q 661 147 614 117 l 661 40 q 562 -1 617 13 q 449 -14 507 -14 z "},"ə":{"ha":826,"x_min":56,"x_max":764,"o":"m 381 711 q 588 662 503 711 q 719 528 674 613 q 764 339 764 443 q 722 159 764 239 q 600 33 679 79 q 408 -14 521 -14 q 208 40 288 -14 q 92 188 128 94 q 64 400 56 282 l 699 400 l 699 303 l 165 303 l 186 311 q 248 147 186 210 q 415 83 310 83 q 540 115 492 83 q 613 199 589 147 q 636 310 636 250 l 636 354 q 605 483 636 425 q 514 576 574 542 q 368 611 454 611 q 259 595 314 611 q 154 544 204 579 l 154 651 q 263 697 206 683 q 381 711 321 711 z "},"f":{"ha":500,"x_min":42,"x_max":472,"o":"m 406 986 q 472 978 443 986 l 472 885 q 418 890 444 890 q 329 858 363 890 q 296 758 296 825 l 296 694 l 458 694 l 458 597 l 296 597 l 296 0 l 171 0 l 171 597 l 42 597 l 42 694 l 171 694 l 171 758 q 200 881 171 829 q 282 959 229 932 q 406 986 335 986 z "},"g":{"ha":871,"x_min":63,"x_max":760,"o":"m 389 -261 q 280 -250 333 -261 q 176 -215 226 -239 l 176 -104 q 283 -146 228 -133 q 389 -158 338 -158 q 524 -130 469 -158 q 607 -52 579 -101 q 635 58 635 -3 l 635 172 l 632 172 q 534 75 597 108 q 389 42 471 42 q 227 83 301 42 q 108 200 153 125 q 63 375 63 275 q 108 549 63 474 q 230 668 154 625 q 394 711 306 711 q 533 682 471 711 q 632 592 594 653 l 635 592 l 635 694 l 760 694 l 760 81 q 713 -109 760 -33 q 582 -223 665 -185 q 389 -261 499 -261 m 411 142 q 578 208 518 142 q 638 375 638 274 q 578 544 638 478 q 411 610 518 610 q 248 545 307 610 q 189 375 189 481 q 249 208 189 274 q 411 142 308 142 z "},"ğ":{"ha":871,"x_min":63,"x_max":760,"o":"m 389 -261 q 280 -250 333 -261 q 176 -215 226 -239 l 176 -104 q 283 -146 228 -133 q 389 -158 338 -158 q 524 -130 469 -158 q 607 -52 579 -101 q 635 58 635 -3 l 635 172 l 632 172 q 534 75 597 108 q 389 42 471 42 q 227 83 301 42 q 108 200 153 125 q 63 375 63 275 q 108 549 63 474 q 230 668 154 625 q 394 711 306 711 q 533 682 471 711 q 632 592 594 653 l 635 592 l 635 694 l 760 694 l 760 81 q 713 -109 760 -33 q 582 -223 665 -185 q 389 -261 499 -261 m 411 142 q 578 208 518 142 q 638 375 638 274 q 578 544 638 478 q 411 610 518 610 q 248 545 307 610 q 189 375 189 481 q 249 208 189 274 q 411 142 308 142 m 417 783 q 267 842 324 783 q 211 994 211 900 l 311 994 q 344 910 314 940 q 417 881 374 881 q 491 910 461 881 q 522 994 521 940 l 622 994 q 566 842 622 900 q 417 783 510 783 z "},"ĝ":{"ha":871,"x_min":63,"x_max":760,"o":"m 389 -261 q 280 -250 333 -261 q 176 -215 226 -239 l 176 -104 q 283 -146 228 -133 q 389 -158 338 -158 q 524 -130 469 -158 q 607 -52 579 -101 q 635 58 635 -3 l 635 172 l 632 172 q 534 75 597 108 q 389 42 471 42 q 227 83 301 42 q 108 200 153 125 q 63 375 63 275 q 108 549 63 474 q 230 668 154 625 q 394 711 306 711 q 533 682 471 711 q 632 592 594 653 l 635 592 l 635 694 l 760 694 l 760 81 q 713 -109 760 -33 q 582 -223 665 -185 q 389 -261 499 -261 m 411 142 q 578 208 518 142 q 638 375 638 274 q 578 544 638 478 q 411 610 518 610 q 248 545 307 610 q 189 375 189 481 q 249 208 189 274 q 411 142 308 142 m 206 783 l 351 986 l 482 986 l 628 783 l 522 783 l 417 908 l 311 783 l 206 783 z "},"ģ":{"ha":871,"x_min":63,"x_max":760,"o":"m 389 -261 q 280 -250 333 -261 q 176 -215 226 -239 l 176 -104 q 283 -146 228 -133 q 389 -158 338 -158 q 524 -130 469 -158 q 607 -52 579 -101 q 635 58 635 -3 l 635 172 l 632 172 q 534 75 597 108 q 389 42 471 42 q 227 83 301 42 q 108 200 153 125 q 63 375 63 275 q 108 549 63 474 q 230 668 154 625 q 394 711 306 711 q 533 682 471 711 q 632 592 594 653 l 635 592 l 635 694 l 760 694 l 760 81 q 713 -109 760 -33 q 582 -223 665 -185 q 389 -261 499 -261 m 411 142 q 578 208 518 142 q 638 375 638 274 q 578 544 638 478 q 411 610 518 610 q 248 545 307 610 q 189 375 189 481 q 249 208 189 274 q 411 142 308 142 m 485 919 l 485 792 l 349 792 l 349 919 l 426 1042 l 499 1042 l 428 919 l 485 919 z "},"ġ":{"ha":871,"x_min":63,"x_max":760,"o":"m 389 -261 q 280 -250 333 -261 q 176 -215 226 -239 l 176 -104 q 283 -146 228 -133 q 389 -158 338 -158 q 524 -130 469 -158 q 607 -52 579 -101 q 635 58 635 -3 l 635 172 l 632 172 q 534 75 597 108 q 389 42 471 42 q 227 83 301 42 q 108 200 153 125 q 63 375 63 275 q 108 549 63 474 q 230 668 154 625 q 394 711 306 711 q 533 682 471 711 q 632 592 594 653 l 635 592 l 635 694 l 760 694 l 760 81 q 713 -109 760 -33 q 582 -223 665 -185 q 389 -261 499 -261 m 411 142 q 578 208 518 142 q 638 375 638 274 q 578 544 638 478 q 411 610 518 610 q 248 545 307 610 q 189 375 189 481 q 249 208 189 274 q 411 142 308 142 m 343 817 l 343 961 l 490 961 l 490 817 l 343 817 z "},"h":{"ha":799,"x_min":111,"x_max":693,"o":"m 111 0 l 111 972 l 236 972 l 236 583 l 239 583 q 324 680 269 649 q 447 711 379 711 q 571 681 515 711 q 660 592 626 651 q 693 439 693 532 l 693 0 l 568 0 l 568 428 q 527 563 568 514 q 415 611 486 611 q 286 551 336 611 q 236 399 236 492 l 236 0 l 111 0 z "},"ħ":{"ha":806,"x_min":22,"x_max":700,"o":"m 22 793 l 22 876 l 425 876 l 425 793 l 22 793 m 118 0 l 118 972 l 243 972 l 243 583 l 246 583 q 331 680 276 649 q 454 711 386 711 q 578 681 522 711 q 667 592 633 651 q 700 439 700 532 l 700 0 l 575 0 l 575 428 q 534 563 575 514 q 422 611 493 611 q 293 551 343 611 q 243 399 243 492 l 243 0 l 118 0 z "},"ĥ":{"ha":799,"x_min":-37,"x_max":693,"o":"m 111 0 l 111 972 l 236 972 l 236 583 l 239 583 q 324 680 269 649 q 447 711 379 711 q 571 681 515 711 q 660 592 626 651 q 693 439 693 532 l 693 0 l 568 0 l 568 428 q 527 563 568 514 q 415 611 486 611 q 286 551 336 611 q 236 399 236 492 l 236 0 l 111 0 m -37 1019 l 108 1222 l 239 1222 l 385 1019 l 279 1019 l 174 1144 l 68 1019 l -37 1019 z "},"i":{"ha":347,"x_min":100,"x_max":247,"o":"m 111 694 l 236 694 l 236 0 l 111 0 l 111 694 m 100 817 l 100 961 l 247 961 l 247 817 l 100 817 z "},"ı":{"ha":347,"x_min":111,"x_max":236,"o":"m 111 694 l 236 694 l 236 0 l 111 0 l 111 694 z "},"í":{"ha":347,"x_min":106,"x_max":361,"o":"m 111 694 l 236 694 l 236 0 l 111 0 l 111 694 m 208 792 l 106 792 l 214 994 l 361 994 l 208 792 z "},"ĭ":{"ha":347,"x_min":-18,"x_max":365,"o":"m 111 694 l 236 694 l 236 0 l 111 0 l 111 694 m 174 783 q 35 842 88 783 q -18 994 -18 900 l 78 994 q 108 910 81 939 q 174 881 135 881 q 241 910 214 881 q 269 994 268 939 l 365 994 q 313 842 365 900 q 174 783 260 783 z "},"ǐ":{"ha":347,"x_min":-10,"x_max":357,"o":"m 111 694 l 236 694 l 236 0 l 111 0 l 111 694 m -10 994 l 89 994 l 174 869 l 258 994 l 357 994 l 236 792 l 111 792 l -10 994 z "},"î":{"ha":347,"x_min":-10,"x_max":357,"o":"m 111 694 l 236 694 l 236 0 l 111 0 l 111 694 m -10 783 l 111 986 l 236 986 l 357 783 l 258 783 l 174 908 l 89 783 l -10 783 z "},"ï":{"ha":347,"x_min":-4,"x_max":351,"o":"m 111 694 l 236 694 l 236 0 l 111 0 l 111 694 m -4 819 l -4 958 l 129 958 l 129 819 l -4 819 m 218 819 l 218 958 l 351 958 l 351 819 l 218 819 z "},"ì":{"ha":347,"x_min":-14,"x_max":242,"o":"m 111 694 l 236 694 l 236 0 l 111 0 l 111 694 m 139 792 l -14 994 l 133 994 l 242 792 l 139 792 z "},"ī":{"ha":347,"x_min":21,"x_max":326,"o":"m 111 694 l 236 694 l 236 0 l 111 0 l 111 694 m 21 825 l 21 925 l 326 925 l 326 825 l 21 825 z "},"į":{"ha":347,"x_min":40,"x_max":247,"o":"m 111 694 l 236 694 l 236 0 l 111 0 l 111 694 m 100 817 l 100 961 l 247 961 l 247 817 l 100 817 m 236 0 q 163 -65 188 -32 q 139 -131 139 -99 q 170 -184 139 -171 q 236 -194 201 -197 l 236 -282 q 160 -283 196 -287 q 98 -262 125 -278 q 56 -222 71 -247 q 40 -158 40 -196 q 81 -56 40 -97 q 181 14 121 -14 l 236 0 z "},"ɨ":{"ha":375,"x_min":21,"x_max":354,"o":"m 21 461 l 354 461 l 354 375 l 21 375 l 21 461 m 125 694 l 250 694 l 250 0 l 125 0 l 125 694 m 114 817 l 114 961 l 261 961 l 261 817 l 114 817 z "},"ĳ":{"ha":694,"x_min":100,"x_max":594,"o":"m 111 694 l 236 694 l 236 0 l 111 0 l 111 694 m 100 817 l 100 961 l 247 961 l 247 817 l 100 817 m 363 -254 q 306 -250 333 -254 l 306 -151 q 324 -153 314 -153 q 346 -154 335 -154 q 431 -125 403 -154 q 458 -35 458 -96 l 458 694 l 583 694 l 583 -40 q 528 -202 583 -150 q 363 -254 472 -254 m 447 817 l 447 961 l 594 961 l 594 817 l 447 817 z "},"j":{"ha":347,"x_min":-42,"x_max":247,"o":"m 15 -254 q -42 -250 -14 -254 l -42 -151 q -23 -153 -33 -153 q -1 -154 -12 -154 q 83 -125 56 -154 q 111 -35 111 -96 l 111 694 l 236 694 l 236 -40 q 181 -202 236 -150 q 15 -254 125 -254 m 100 817 l 100 961 l 247 961 l 247 817 l 100 817 z "},"ȷ":{"ha":347,"x_min":-42,"x_max":236,"o":"m 15 -254 q -42 -250 -14 -254 l -42 -151 q -23 -153 -33 -153 q -1 -154 -12 -154 q 83 -125 56 -154 q 111 -35 111 -96 l 111 694 l 236 694 l 236 -40 q 181 -202 236 -150 q 15 -254 125 -254 z "},"ĵ":{"ha":347,"x_min":-42,"x_max":357,"o":"m 15 -254 q -42 -250 -14 -254 l -42 -151 q -23 -153 -33 -153 q -1 -154 -12 -154 q 83 -125 56 -154 q 111 -35 111 -96 l 111 694 l 236 694 l 236 -40 q 181 -202 236 -150 q 15 -254 125 -254 m -10 783 l 111 986 l 236 986 l 357 783 l 258 783 l 174 908 l 89 783 l -10 783 z "},"k":{"ha":724,"x_min":111,"x_max":690,"o":"m 111 0 l 111 972 l 236 972 l 236 0 l 111 0 m 538 0 l 233 374 l 539 694 l 678 694 l 332 342 l 342 417 l 690 0 l 538 0 z "},"ķ":{"ha":724,"x_min":111,"x_max":690,"o":"m 111 0 l 111 972 l 236 972 l 236 0 l 111 0 m 538 0 l 233 374 l 539 694 l 678 694 l 332 342 l 342 417 l 690 0 l 538 0 m 307 -225 l 307 -97 l 443 -97 l 443 -225 l 365 -347 l 293 -347 l 364 -225 l 307 -225 z "},"l":{"ha":347,"x_min":111,"x_max":236,"o":"m 111 0 l 111 972 l 236 972 l 236 0 l 111 0 z "},"ĺ":{"ha":347,"x_min":106,"x_max":361,"o":"m 111 0 l 111 972 l 236 972 l 236 0 l 111 0 m 208 1056 l 106 1056 l 214 1258 l 361 1258 l 208 1056 z "},"ľ":{"ha":389,"x_min":111,"x_max":467,"o":"m 111 0 l 111 972 l 236 972 l 236 0 l 111 0 m 333 736 l 347 972 l 467 972 l 414 736 l 333 736 z "},"ļ":{"ha":347,"x_min":92,"x_max":242,"o":"m 111 0 l 111 972 l 236 972 l 236 0 l 111 0 m 106 -225 l 106 -97 l 242 -97 l 242 -225 l 164 -347 l 92 -347 l 163 -225 l 106 -225 z "},"ŀ":{"ha":492,"x_min":111,"x_max":492,"o":"m 111 0 l 111 972 l 236 972 l 236 0 l 111 0 m 347 386 l 347 544 l 492 544 l 492 386 l 347 386 z "},"ł":{"ha":444,"x_min":21,"x_max":424,"o":"m 222 414 l 21 317 l 21 408 l 222 506 l 222 497 l 424 594 l 424 503 l 222 406 l 222 414 m 158 0 l 158 972 l 283 972 l 283 0 l 158 0 z "},"m":{"ha":1228,"x_min":111,"x_max":1122,"o":"m 111 0 l 111 694 l 231 694 l 231 569 l 233 569 q 317 678 260 646 q 442 711 374 711 q 567 678 510 711 q 651 569 625 646 l 654 569 q 745 677 685 643 q 878 711 806 711 q 1000 683 944 711 q 1089 600 1056 656 q 1122 460 1122 544 l 1122 0 l 997 0 l 997 449 q 963 565 997 519 q 857 611 928 611 q 729 554 779 611 q 679 411 679 497 l 679 0 l 554 0 l 554 449 q 519 565 554 519 q 414 611 485 611 q 286 554 336 611 q 236 411 236 497 l 236 0 l 111 0 z "},"ḿ":{"ha":1228,"x_min":111,"x_max":1122,"o":"m 111 0 l 111 694 l 231 694 l 231 569 l 233 569 q 317 678 260 646 q 442 711 374 711 q 567 678 510 711 q 651 569 625 646 l 654 569 q 745 677 685 643 q 878 711 806 711 q 1000 683 944 711 q 1089 600 1056 656 q 1122 460 1122 544 l 1122 0 l 997 0 l 997 449 q 963 565 997 519 q 857 611 928 611 q 729 554 779 611 q 679 411 679 497 l 679 0 l 554 0 l 554 449 q 519 565 554 519 q 414 611 485 611 q 286 554 336 611 q 236 411 236 497 l 236 0 l 111 0 m 654 792 l 551 792 l 660 994 l 807 994 l 654 792 z "},"n":{"ha":799,"x_min":111,"x_max":693,"o":"m 111 0 l 111 694 l 231 694 l 231 569 l 233 569 q 319 676 263 642 q 449 711 376 711 q 572 681 517 711 q 660 592 626 651 q 693 439 693 532 l 693 0 l 568 0 l 568 428 q 527 563 568 514 q 415 611 486 611 q 286 551 336 611 q 236 399 236 492 l 236 0 l 111 0 z "},"ń":{"ha":799,"x_min":111,"x_max":693,"o":"m 111 0 l 111 694 l 231 694 l 231 569 l 233 569 q 319 676 263 642 q 449 711 376 711 q 572 681 517 711 q 660 592 626 651 q 693 439 693 532 l 693 0 l 568 0 l 568 428 q 527 563 568 514 q 415 611 486 611 q 286 551 336 611 q 236 399 236 492 l 236 0 l 111 0 m 438 792 l 335 792 l 443 994 l 590 994 l 438 792 z "},"ň":{"ha":799,"x_min":111,"x_max":693,"o":"m 111 0 l 111 694 l 231 694 l 231 569 l 233 569 q 319 676 263 642 q 449 711 376 711 q 572 681 517 711 q 660 592 626 651 q 693 439 693 532 l 693 0 l 568 0 l 568 428 q 527 563 568 514 q 415 611 486 611 q 286 551 336 611 q 236 399 236 492 l 236 0 l 111 0 m 192 994 l 297 994 l 403 869 l 508 994 l 614 994 l 468 792 l 338 792 l 192 994 z "},"ņ":{"ha":799,"x_min":111,"x_max":693,"o":"m 111 0 l 111 694 l 231 694 l 231 569 l 233 569 q 319 676 263 642 q 449 711 376 711 q 572 681 517 711 q 660 592 626 651 q 693 439 693 532 l 693 0 l 568 0 l 568 428 q 527 563 568 514 q 415 611 486 611 q 286 551 336 611 q 236 399 236 492 l 236 0 l 111 0 m 335 -225 l 335 -97 l 471 -97 l 471 -225 l 393 -347 l 321 -347 l 392 -225 l 335 -225 z "},"ǹ":{"ha":799,"x_min":111,"x_max":693,"o":"m 111 0 l 111 694 l 231 694 l 231 569 l 233 569 q 319 676 263 642 q 449 711 376 711 q 572 681 517 711 q 660 592 626 651 q 693 439 693 532 l 693 0 l 568 0 l 568 428 q 527 563 568 514 q 415 611 486 611 q 286 551 336 611 q 236 399 236 492 l 236 0 l 111 0 m 368 792 l 215 994 l 363 994 l 471 792 l 368 792 z "},"ñ":{"ha":799,"x_min":111,"x_max":693,"o":"m 111 0 l 111 694 l 231 694 l 231 569 l 233 569 q 319 676 263 642 q 449 711 376 711 q 572 681 517 711 q 660 592 626 651 q 693 439 693 532 l 693 0 l 568 0 l 568 428 q 527 563 568 514 q 415 611 486 611 q 286 551 336 611 q 236 399 236 492 l 236 0 l 111 0 m 488 792 q 426 807 450 792 q 384 842 401 822 q 351 876 367 861 q 315 892 336 892 q 280 871 293 892 q 265 806 267 850 l 176 806 q 215 937 176 888 q 318 986 254 986 q 380 971 356 986 q 422 936 404 956 q 454 901 439 917 q 490 886 469 886 q 526 908 513 886 q 540 972 539 929 l 629 972 q 591 841 629 890 q 488 792 553 792 z "},"ŋ":{"ha":799,"x_min":111,"x_max":693,"o":"m 111 0 l 111 694 l 231 694 l 231 569 l 233 569 q 319 676 263 642 q 449 711 376 711 q 572 681 517 711 q 660 592 626 651 q 693 439 693 532 l 693 -40 q 638 -202 693 -150 q 472 -254 582 -254 q 415 -250 443 -254 l 415 -151 q 434 -153 424 -153 q 456 -154 444 -154 q 540 -125 513 -154 q 568 -35 568 -96 l 568 428 q 527 563 568 514 q 415 611 486 611 q 286 551 336 611 q 236 399 236 492 l 236 0 l 111 0 z "},"o":{"ha":839,"x_min":63,"x_max":776,"o":"m 419 -17 q 235 28 317 -17 q 108 156 154 74 q 63 344 63 238 q 109 534 63 451 q 236 664 156 617 q 419 711 317 711 q 604 665 524 711 q 731 536 685 618 q 776 347 776 454 q 730 158 776 240 q 603 29 683 75 q 419 -17 522 -17 m 419 83 q 585 153 521 83 q 649 344 649 222 q 585 538 649 465 q 419 611 521 611 q 254 540 318 611 q 190 347 190 469 q 255 155 190 226 q 419 83 319 83 z "},"ó":{"ha":839,"x_min":63,"x_max":776,"o":"m 419 -17 q 235 28 317 -17 q 108 156 154 74 q 63 344 63 238 q 109 534 63 451 q 236 664 156 617 q 419 711 317 711 q 604 665 524 711 q 731 536 685 618 q 776 347 776 454 q 730 158 776 240 q 603 29 683 75 q 419 -17 522 -17 m 419 83 q 585 153 521 83 q 649 344 649 222 q 585 538 649 465 q 419 611 521 611 q 254 540 318 611 q 190 347 190 469 q 255 155 190 226 q 419 83 319 83 m 454 792 l 351 792 l 460 994 l 607 994 l 454 792 z "},"ŏ":{"ha":839,"x_min":63,"x_max":776,"o":"m 419 -17 q 235 28 317 -17 q 108 156 154 74 q 63 344 63 238 q 109 534 63 451 q 236 664 156 617 q 419 711 317 711 q 604 665 524 711 q 731 536 685 618 q 776 347 776 454 q 730 158 776 240 q 603 29 683 75 q 419 -17 522 -17 m 419 83 q 585 153 521 83 q 649 344 649 222 q 585 538 649 465 q 419 611 521 611 q 254 540 318 611 q 190 347 190 469 q 255 155 190 226 q 419 83 319 83 m 419 783 q 270 842 326 783 q 214 994 214 900 l 314 994 q 347 910 317 940 q 419 881 376 881 q 494 910 464 881 q 525 994 524 940 l 625 994 q 569 842 625 900 q 419 783 513 783 z "},"ǒ":{"ha":839,"x_min":63,"x_max":776,"o":"m 419 -17 q 235 28 317 -17 q 108 156 154 74 q 63 344 63 238 q 109 534 63 451 q 236 664 156 617 q 419 711 317 711 q 604 665 524 711 q 731 536 685 618 q 776 347 776 454 q 730 158 776 240 q 603 29 683 75 q 419 -17 522 -17 m 419 83 q 585 153 521 83 q 649 344 649 222 q 585 538 649 465 q 419 611 521 611 q 254 540 318 611 q 190 347 190 469 q 255 155 190 226 q 419 83 319 83 m 208 994 l 314 994 l 419 869 l 525 994 l 631 994 l 485 792 l 354 792 l 208 994 z "},"ô":{"ha":839,"x_min":63,"x_max":776,"o":"m 419 -17 q 235 28 317 -17 q 108 156 154 74 q 63 344 63 238 q 109 534 63 451 q 236 664 156 617 q 419 711 317 711 q 604 665 524 711 q 731 536 685 618 q 776 347 776 454 q 730 158 776 240 q 603 29 683 75 q 419 -17 522 -17 m 419 83 q 585 153 521 83 q 649 344 649 222 q 585 538 649 465 q 419 611 521 611 q 254 540 318 611 q 190 347 190 469 q 255 155 190 226 q 419 83 319 83 m 208 783 l 354 986 l 485 986 l 631 783 l 525 783 l 419 908 l 314 783 l 208 783 z "},"ö":{"ha":839,"x_min":63,"x_max":776,"o":"m 419 -17 q 235 28 317 -17 q 108 156 154 74 q 63 344 63 238 q 109 534 63 451 q 236 664 156 617 q 419 711 317 711 q 604 665 524 711 q 731 536 685 618 q 776 347 776 454 q 730 158 776 240 q 603 29 683 75 q 419 -17 522 -17 m 419 83 q 585 153 521 83 q 649 344 649 222 q 585 538 649 465 q 419 611 521 611 q 254 540 318 611 q 190 347 190 469 q 255 155 190 226 q 419 83 319 83 m 214 819 l 214 958 l 350 958 l 350 819 l 214 819 m 489 819 l 489 958 l 625 958 l 625 819 l 489 819 z "},"ò":{"ha":839,"x_min":63,"x_max":776,"o":"m 419 -17 q 235 28 317 -17 q 108 156 154 74 q 63 344 63 238 q 109 534 63 451 q 236 664 156 617 q 419 711 317 711 q 604 665 524 711 q 731 536 685 618 q 776 347 776 454 q 730 158 776 240 q 603 29 683 75 q 419 -17 522 -17 m 419 83 q 585 153 521 83 q 649 344 649 222 q 585 538 649 465 q 419 611 521 611 q 254 540 318 611 q 190 347 190 469 q 255 155 190 226 q 419 83 319 83 m 385 792 l 232 994 l 379 994 l 488 792 l 385 792 z "},"ő":{"ha":839,"x_min":63,"x_max":776,"o":"m 419 -17 q 235 28 317 -17 q 108 156 154 74 q 63 344 63 238 q 109 534 63 451 q 236 664 156 617 q 419 711 317 711 q 604 665 524 711 q 731 536 685 618 q 776 347 776 454 q 730 158 776 240 q 603 29 683 75 q 419 -17 522 -17 m 419 83 q 585 153 521 83 q 649 344 649 222 q 585 538 649 465 q 419 611 521 611 q 254 540 318 611 q 190 347 190 469 q 255 155 190 226 q 419 83 319 83 m 467 792 l 578 994 l 708 994 l 556 792 l 467 792 m 281 792 l 378 994 l 508 994 l 369 792 l 281 792 z "},"ō":{"ha":839,"x_min":63,"x_max":776,"o":"m 419 -17 q 235 28 317 -17 q 108 156 154 74 q 63 344 63 238 q 109 534 63 451 q 236 664 156 617 q 419 711 317 711 q 604 665 524 711 q 731 536 685 618 q 776 347 776 454 q 730 158 776 240 q 603 29 683 75 q 419 -17 522 -17 m 419 83 q 585 153 521 83 q 649 344 649 222 q 585 538 649 465 q 419 611 521 611 q 254 540 318 611 q 190 347 190 469 q 255 155 190 226 q 419 83 319 83 m 211 825 l 211 925 l 628 925 l 628 825 l 211 825 z "},"ø":{"ha":839,"x_min":49,"x_max":790,"o":"m 419 -17 q 235 28 317 -17 q 108 156 154 74 q 63 344 63 238 q 109 534 63 451 q 236 664 156 617 q 419 711 317 711 q 604 665 524 711 q 731 536 685 618 q 776 347 776 454 q 730 158 776 240 q 603 29 683 75 q 419 -17 522 -17 m 419 83 q 585 153 521 83 q 649 344 649 222 q 585 538 649 465 q 419 611 521 611 q 254 540 318 611 q 190 347 190 469 q 255 155 190 226 q 419 83 319 83 m 729 754 l 790 700 l 110 -60 l 49 -6 l 729 754 z "},"ǿ":{"ha":839,"x_min":49,"x_max":790,"o":"m 419 -17 q 235 28 317 -17 q 108 156 154 74 q 63 344 63 238 q 109 534 63 451 q 236 664 156 617 q 419 711 317 711 q 604 665 524 711 q 731 536 685 618 q 776 347 776 454 q 730 158 776 240 q 603 29 683 75 q 419 -17 522 -17 m 419 83 q 585 153 521 83 q 649 344 649 222 q 585 538 649 465 q 419 611 521 611 q 254 540 318 611 q 190 347 190 469 q 255 155 190 226 q 419 83 319 83 m 729 754 l 790 700 l 110 -60 l 49 -6 l 729 754 m 454 792 l 351 792 l 460 994 l 607 994 l 454 792 z "},"õ":{"ha":839,"x_min":63,"x_max":776,"o":"m 419 -17 q 235 28 317 -17 q 108 156 154 74 q 63 344 63 238 q 109 534 63 451 q 236 664 156 617 q 419 711 317 711 q 604 665 524 711 q 731 536 685 618 q 776 347 776 454 q 730 158 776 240 q 603 29 683 75 q 419 -17 522 -17 m 419 83 q 585 153 521 83 q 649 344 649 222 q 585 538 649 465 q 419 611 521 611 q 254 540 318 611 q 190 347 190 469 q 255 155 190 226 q 419 83 319 83 m 504 792 q 442 807 467 792 q 401 842 418 822 q 368 876 383 861 q 332 892 353 892 q 297 871 310 892 q 282 806 283 850 l 193 806 q 232 937 193 888 q 335 986 271 986 q 397 971 372 986 q 438 936 421 956 q 471 901 456 917 q 507 886 486 886 q 542 908 529 886 q 557 972 556 929 l 646 972 q 608 841 646 890 q 504 792 569 792 z "},"œ":{"ha":1393,"x_min":63,"x_max":1339,"o":"m 419 -17 q 235 28 317 -17 q 108 156 154 74 q 63 344 63 238 q 109 534 63 451 q 236 664 156 617 q 419 711 317 711 q 606 663 525 711 q 726 531 688 614 l 701 531 q 820 662 740 613 q 1006 711 900 711 q 1196 658 1121 711 q 1305 518 1271 606 q 1329 325 1339 431 l 714 325 l 714 422 l 1228 422 l 1204 408 q 1147 556 1204 499 q 1000 614 1090 614 q 879 580 929 614 q 803 492 829 546 q 776 378 776 439 l 776 333 q 808 209 776 265 q 898 119 839 153 q 1040 86 957 86 q 1147 101 1093 86 q 1247 147 1200 117 l 1247 40 q 1148 -1 1203 13 q 1035 -14 1093 -14 q 827 34 913 -14 q 701 163 742 82 l 725 163 q 605 31 686 79 q 419 -17 524 -17 m 419 83 q 585 153 521 83 q 649 344 649 222 q 585 538 649 465 q 419 611 521 611 q 254 540 318 611 q 190 347 190 469 q 255 155 190 226 q 419 83 319 83 z "},"p":{"ha":886,"x_min":111,"x_max":824,"o":"m 111 -250 l 111 694 l 231 694 l 231 556 l 233 556 q 339 674 271 636 q 489 711 407 711 q 660 665 585 711 q 780 538 736 619 q 824 347 824 457 q 780 160 824 243 q 660 31 736 78 q 489 -17 585 -17 q 345 15 410 -17 q 239 111 281 47 l 236 111 l 236 -250 l 111 -250 m 468 86 q 633 156 571 86 q 696 347 696 225 q 633 538 696 467 q 468 608 571 608 q 298 535 363 608 q 233 347 233 463 q 298 159 233 232 q 468 86 363 86 z "},"þ":{"ha":886,"x_min":111,"x_max":824,"o":"m 111 972 l 236 972 l 236 569 l 239 569 q 301 647 264 615 q 387 694 339 678 q 489 711 435 711 q 660 665 585 711 q 780 538 736 619 q 824 347 824 457 q 780 160 824 243 q 660 31 736 78 q 489 -17 585 -17 q 345 15 410 -17 q 239 111 281 47 l 236 111 l 236 -250 l 111 -250 l 111 972 m 468 86 q 633 156 571 86 q 696 347 696 225 q 633 538 696 467 q 468 608 571 608 q 298 535 363 608 q 233 347 233 463 q 298 159 233 232 q 468 86 363 86 z "},"q":{"ha":886,"x_min":63,"x_max":775,"o":"m 650 -250 l 650 125 l 647 125 q 544 20 610 57 q 397 -17 479 -17 q 226 29 303 -17 q 106 157 150 75 q 63 347 63 239 q 106 535 63 453 q 226 664 150 617 q 400 711 303 711 q 544 677 478 711 q 653 569 610 643 l 656 569 l 656 694 l 775 694 l 775 -250 l 650 -250 m 418 86 q 589 159 525 86 q 653 347 653 232 q 589 535 653 463 q 418 608 525 608 q 253 540 315 608 q 190 347 190 471 q 253 158 190 229 q 418 86 315 86 z "},"r":{"ha":494,"x_min":111,"x_max":481,"o":"m 233 556 q 314 665 258 625 q 446 706 369 706 q 460 706 453 706 q 481 703 468 706 l 481 592 q 460 594 468 594 q 446 594 453 594 q 293 531 350 594 q 236 358 236 468 l 236 0 l 111 0 l 111 694 l 231 694 l 231 556 l 233 556 z "},"ŕ":{"ha":494,"x_min":111,"x_max":481,"o":"m 233 556 q 314 665 258 625 q 446 706 369 706 q 460 706 453 706 q 481 703 468 706 l 481 592 q 460 594 468 594 q 446 594 453 594 q 293 531 350 594 q 236 358 236 468 l 236 0 l 111 0 l 111 694 l 231 694 l 231 556 l 233 556 m 308 792 l 206 792 l 314 994 l 461 994 l 308 792 z "},"ř":{"ha":494,"x_min":63,"x_max":485,"o":"m 233 556 q 314 665 258 625 q 446 706 369 706 q 460 706 453 706 q 481 703 468 706 l 481 592 q 460 594 468 594 q 446 594 453 594 q 293 531 350 594 q 236 358 236 468 l 236 0 l 111 0 l 111 694 l 231 694 l 231 556 l 233 556 m 63 994 l 168 994 l 274 869 l 379 994 l 485 994 l 339 792 l 208 792 l 63 994 z "},"ŗ":{"ha":494,"x_min":92,"x_max":481,"o":"m 233 556 q 314 665 258 625 q 446 706 369 706 q 460 706 453 706 q 481 703 468 706 l 481 592 q 460 594 468 594 q 446 594 453 594 q 293 531 350 594 q 236 358 236 468 l 236 0 l 111 0 l 111 694 l 231 694 l 231 556 l 233 556 m 106 -225 l 106 -97 l 242 -97 l 242 -225 l 164 -347 l 92 -347 l 163 -225 l 106 -225 z "},"ṟ":{"ha":494,"x_min":-10,"x_max":481,"o":"m 233 556 q 314 665 258 625 q 446 706 369 706 q 460 706 453 706 q 481 703 468 706 l 481 592 q 460 594 468 594 q 446 594 453 594 q 293 531 350 594 q 236 358 236 468 l 236 0 l 111 0 l 111 694 l 231 694 l 231 556 l 233 556 m -10 -231 l -10 -131 l 379 -131 l 379 -231 l -10 -231 z "},"s":{"ha":606,"x_min":86,"x_max":522,"o":"m 235 322 q 170 358 204 336 q 113 416 136 381 q 89 507 89 451 q 119 607 89 561 q 208 681 150 653 q 346 708 265 708 q 432 699 390 708 q 508 669 474 689 l 508 558 q 428 597 469 585 q 346 608 388 608 q 247 582 283 608 q 211 511 211 556 q 233 461 211 481 q 288 426 256 442 l 372 388 q 449 343 415 368 q 502 283 482 318 q 522 197 522 249 q 457 47 522 108 q 268 -14 392 -14 q 170 -1 217 -14 q 86 33 124 11 l 86 153 q 176 102 131 118 q 268 86 221 86 q 365 115 329 86 q 400 188 400 143 q 376 247 400 226 q 319 283 353 268 l 235 322 z "},"ś":{"ha":606,"x_min":86,"x_max":522,"o":"m 235 322 q 170 358 204 336 q 113 416 136 381 q 89 507 89 451 q 119 607 89 561 q 208 681 150 653 q 346 708 265 708 q 432 699 390 708 q 508 669 474 689 l 508 558 q 428 597 469 585 q 346 608 388 608 q 247 582 283 608 q 211 511 211 556 q 233 461 211 481 q 288 426 256 442 l 372 388 q 449 343 415 368 q 502 283 482 318 q 522 197 522 249 q 457 47 522 108 q 268 -14 392 -14 q 170 -1 217 -14 q 86 33 124 11 l 86 153 q 176 102 131 118 q 268 86 221 86 q 365 115 329 86 q 400 188 400 143 q 376 247 400 226 q 319 283 353 268 l 235 322 m 351 792 l 249 792 l 357 994 l 504 994 l 351 792 z "},"š":{"ha":606,"x_min":86,"x_max":528,"o":"m 235 322 q 170 358 204 336 q 113 416 136 381 q 89 507 89 451 q 119 607 89 561 q 208 681 150 653 q 346 708 265 708 q 432 699 390 708 q 508 669 474 689 l 508 558 q 428 597 469 585 q 346 608 388 608 q 247 582 283 608 q 211 511 211 556 q 233 461 211 481 q 288 426 256 442 l 372 388 q 449 343 415 368 q 502 283 482 318 q 522 197 522 249 q 457 47 522 108 q 268 -14 392 -14 q 170 -1 217 -14 q 86 33 124 11 l 86 153 q 176 102 131 118 q 268 86 221 86 q 365 115 329 86 q 400 188 400 143 q 376 247 400 226 q 319 283 353 268 l 235 322 m 106 994 l 211 994 l 317 869 l 422 994 l 528 994 l 382 792 l 251 792 l 106 994 z "},"ş":{"ha":606,"x_min":86,"x_max":522,"o":"m 235 322 q 170 358 204 336 q 113 416 136 381 q 89 507 89 451 q 119 607 89 561 q 208 681 150 653 q 346 708 265 708 q 432 699 390 708 q 508 669 474 689 l 508 558 q 428 597 469 585 q 346 608 388 608 q 247 582 283 608 q 211 511 211 556 q 233 461 211 481 q 288 426 256 442 l 372 388 q 449 343 415 368 q 502 283 482 318 q 522 197 522 249 q 457 47 522 108 q 268 -14 392 -14 q 170 -1 217 -14 q 86 33 124 11 l 86 153 q 176 102 131 118 q 268 86 221 86 q 365 115 329 86 q 400 188 400 143 q 376 247 400 226 q 319 283 353 268 l 235 322 m 279 39 l 354 39 l 293 -114 l 272 -71 q 358 -75 318 -65 q 422 -111 397 -85 q 447 -182 447 -137 q 410 -265 447 -235 q 315 -301 374 -296 q 192 -283 257 -306 l 190 -211 q 311 -224 267 -236 q 356 -182 356 -211 q 322 -141 356 -154 q 214 -131 289 -128 l 279 39 z "},"ŝ":{"ha":606,"x_min":86,"x_max":528,"o":"m 235 322 q 170 358 204 336 q 113 416 136 381 q 89 507 89 451 q 119 607 89 561 q 208 681 150 653 q 346 708 265 708 q 432 699 390 708 q 508 669 474 689 l 508 558 q 428 597 469 585 q 346 608 388 608 q 247 582 283 608 q 211 511 211 556 q 233 461 211 481 q 288 426 256 442 l 372 388 q 449 343 415 368 q 502 283 482 318 q 522 197 522 249 q 457 47 522 108 q 268 -14 392 -14 q 170 -1 217 -14 q 86 33 124 11 l 86 153 q 176 102 131 118 q 268 86 221 86 q 365 115 329 86 q 400 188 400 143 q 376 247 400 226 q 319 283 353 268 l 235 322 m 106 783 l 251 986 l 382 986 l 528 783 l 422 783 l 317 908 l 211 783 l 106 783 z "},"ș":{"ha":606,"x_min":86,"x_max":522,"o":"m 235 322 q 170 358 204 336 q 113 416 136 381 q 89 507 89 451 q 119 607 89 561 q 208 681 150 653 q 346 708 265 708 q 432 699 390 708 q 508 669 474 689 l 508 558 q 428 597 469 585 q 346 608 388 608 q 247 582 283 608 q 211 511 211 556 q 233 461 211 481 q 288 426 256 442 l 372 388 q 449 343 415 368 q 502 283 482 318 q 522 197 522 249 q 457 47 522 108 q 268 -14 392 -14 q 170 -1 217 -14 q 86 33 124 11 l 86 153 q 176 102 131 118 q 268 86 221 86 q 365 115 329 86 q 400 188 400 143 q 376 247 400 226 q 319 283 353 268 l 235 322 m 232 -225 l 232 -97 l 368 -97 l 368 -225 l 290 -347 l 218 -347 l 289 -225 l 232 -225 z "},"ß":{"ha":833,"x_min":111,"x_max":767,"o":"m 463 -11 q 403 -7 432 -11 q 347 3 375 -3 l 347 111 q 397 97 371 101 q 450 92 424 92 q 588 143 540 92 q 636 271 636 194 q 569 426 636 365 q 388 497 503 488 l 388 569 q 510 622 465 576 q 556 736 556 668 q 512 847 556 806 q 396 889 468 889 q 279 844 322 889 q 236 722 236 800 l 236 0 l 111 0 l 111 719 q 145 858 111 797 q 244 954 179 919 q 400 989 310 989 q 547 957 485 989 q 645 872 610 925 q 681 750 681 818 q 645 633 681 685 q 536 558 610 581 l 536 556 q 702 460 638 533 q 767 271 767 386 q 685 67 767 144 q 463 -11 603 -11 z "},"t":{"ha":524,"x_min":33,"x_max":457,"o":"m 363 -8 q 214 41 265 -8 q 163 182 163 90 l 163 597 l 33 597 l 33 694 l 163 694 l 163 868 l 288 896 l 288 694 l 457 694 l 457 597 l 288 597 l 288 201 q 386 90 288 90 q 419 93 404 90 q 449 100 435 96 l 449 3 q 408 -6 429 -3 q 363 -8 386 -8 z "},"ŧ":{"ha":526,"x_min":33,"x_max":460,"o":"m 47 331 l 47 414 l 460 414 l 460 331 l 47 331 m 363 -8 q 214 41 265 -8 q 163 182 163 90 l 163 597 l 33 597 l 33 694 l 163 694 l 163 868 l 288 896 l 288 694 l 457 694 l 457 597 l 288 597 l 288 201 q 386 90 288 90 q 419 93 404 90 q 449 100 435 96 l 449 3 q 408 -6 429 -3 q 363 -8 386 -8 z "},"ť":{"ha":524,"x_min":33,"x_max":532,"o":"m 363 -8 q 214 41 265 -8 q 163 182 163 90 l 163 597 l 33 597 l 33 694 l 163 694 l 163 868 l 288 896 l 288 694 l 457 694 l 457 597 l 288 597 l 288 201 q 386 90 288 90 q 419 93 404 90 q 449 100 435 96 l 449 3 q 408 -6 429 -3 q 363 -8 386 -8 m 399 778 l 413 1014 l 532 1014 l 479 778 l 399 778 z "},"ţ":{"ha":524,"x_min":33,"x_max":457,"o":"m 363 -8 q 214 41 265 -8 q 163 182 163 90 l 163 597 l 33 597 l 33 694 l 163 694 l 163 868 l 288 896 l 288 694 l 457 694 l 457 597 l 288 597 l 288 201 q 386 90 288 90 q 419 93 404 90 q 449 100 435 96 l 449 3 q 408 -6 429 -3 q 363 -8 386 -8 m 274 39 l 349 39 l 288 -114 l 267 -71 q 352 -75 313 -65 q 417 -111 392 -85 q 442 -182 442 -137 q 405 -265 442 -235 q 310 -301 368 -296 q 186 -283 251 -306 l 185 -211 q 306 -224 261 -236 q 350 -182 350 -211 q 317 -141 350 -154 q 208 -131 283 -128 l 274 39 z "},"ț":{"ha":524,"x_min":33,"x_max":457,"o":"m 363 -8 q 214 41 265 -8 q 163 182 163 90 l 163 597 l 33 597 l 33 694 l 163 694 l 163 868 l 288 896 l 288 694 l 457 694 l 457 597 l 288 597 l 288 201 q 386 90 288 90 q 419 93 404 90 q 449 100 435 96 l 449 3 q 408 -6 429 -3 q 363 -8 386 -8 m 226 -225 l 226 -97 l 363 -97 l 363 -225 l 285 -347 l 213 -347 l 283 -225 l 226 -225 z "},"u":{"ha":789,"x_min":106,"x_max":683,"o":"m 394 -17 q 238 17 303 -17 q 140 116 174 51 q 106 269 106 181 l 106 694 l 231 694 l 231 269 q 272 135 231 188 q 394 83 314 83 q 518 135 478 83 q 558 269 558 186 l 558 694 l 683 694 l 683 269 q 648 117 683 182 q 548 18 613 53 q 394 -17 483 -17 z "},"ú":{"ha":789,"x_min":106,"x_max":683,"o":"m 394 -17 q 238 17 303 -17 q 140 116 174 51 q 106 269 106 181 l 106 694 l 231 694 l 231 269 q 272 135 231 188 q 394 83 314 83 q 518 135 478 83 q 558 269 558 186 l 558 694 l 683 694 l 683 269 q 648 117 683 182 q 548 18 613 53 q 394 -17 483 -17 m 429 792 l 326 792 l 435 994 l 582 994 l 429 792 z "},"ʉ":{"ha":814,"x_min":21,"x_max":793,"o":"m 21 375 l 21 461 l 793 461 l 793 375 l 21 375 m 407 -17 q 251 17 315 -17 q 152 116 186 51 q 118 269 118 181 l 118 694 l 243 694 l 243 269 q 285 135 243 188 q 407 83 326 83 q 531 135 490 83 q 571 269 571 186 l 571 694 l 696 694 l 696 269 q 660 117 696 182 q 560 18 625 53 q 407 -17 496 -17 z "},"ŭ":{"ha":789,"x_min":106,"x_max":683,"o":"m 394 -17 q 238 17 303 -17 q 140 116 174 51 q 106 269 106 181 l 106 694 l 231 694 l 231 269 q 272 135 231 188 q 394 83 314 83 q 518 135 478 83 q 558 269 558 186 l 558 694 l 683 694 l 683 269 q 648 117 683 182 q 548 18 613 53 q 394 -17 483 -17 m 394 783 q 245 842 301 783 q 189 994 189 900 l 289 994 q 322 910 292 940 q 394 881 351 881 q 469 910 439 881 q 500 994 499 940 l 600 994 q 544 842 600 900 q 394 783 488 783 z "},"ǔ":{"ha":789,"x_min":106,"x_max":683,"o":"m 394 -17 q 238 17 303 -17 q 140 116 174 51 q 106 269 106 181 l 106 694 l 231 694 l 231 269 q 272 135 231 188 q 394 83 314 83 q 518 135 478 83 q 558 269 558 186 l 558 694 l 683 694 l 683 269 q 648 117 683 182 q 548 18 613 53 q 394 -17 483 -17 m 183 994 l 289 994 l 394 869 l 500 994 l 606 994 l 460 792 l 329 792 l 183 994 z "},"û":{"ha":789,"x_min":106,"x_max":683,"o":"m 394 -17 q 238 17 303 -17 q 140 116 174 51 q 106 269 106 181 l 106 694 l 231 694 l 231 269 q 272 135 231 188 q 394 83 314 83 q 518 135 478 83 q 558 269 558 186 l 558 694 l 683 694 l 683 269 q 648 117 683 182 q 548 18 613 53 q 394 -17 483 -17 m 183 783 l 329 986 l 460 986 l 606 783 l 500 783 l 394 908 l 289 783 l 183 783 z "},"ü":{"ha":789,"x_min":106,"x_max":683,"o":"m 394 -17 q 238 17 303 -17 q 140 116 174 51 q 106 269 106 181 l 106 694 l 231 694 l 231 269 q 272 135 231 188 q 394 83 314 83 q 518 135 478 83 q 558 269 558 186 l 558 694 l 683 694 l 683 269 q 648 117 683 182 q 548 18 613 53 q 394 -17 483 -17 m 189 819 l 189 958 l 325 958 l 325 819 l 189 819 m 464 819 l 464 958 l 600 958 l 600 819 l 464 819 z "},"ù":{"ha":789,"x_min":106,"x_max":683,"o":"m 394 -17 q 238 17 303 -17 q 140 116 174 51 q 106 269 106 181 l 106 694 l 231 694 l 231 269 q 272 135 231 188 q 394 83 314 83 q 518 135 478 83 q 558 269 558 186 l 558 694 l 683 694 l 683 269 q 648 117 683 182 q 548 18 613 53 q 394 -17 483 -17 m 360 792 l 207 994 l 354 994 l 463 792 l 360 792 z "},"ű":{"ha":789,"x_min":106,"x_max":683,"o":"m 394 -17 q 238 17 303 -17 q 140 116 174 51 q 106 269 106 181 l 106 694 l 231 694 l 231 269 q 272 135 231 188 q 394 83 314 83 q 518 135 478 83 q 558 269 558 186 l 558 694 l 683 694 l 683 269 q 648 117 683 182 q 548 18 613 53 q 394 -17 483 -17 m 442 792 l 553 994 l 683 994 l 531 792 l 442 792 m 256 792 l 353 994 l 483 994 l 344 792 l 256 792 z "},"ū":{"ha":789,"x_min":106,"x_max":683,"o":"m 394 -17 q 238 17 303 -17 q 140 116 174 51 q 106 269 106 181 l 106 694 l 231 694 l 231 269 q 272 135 231 188 q 394 83 314 83 q 518 135 478 83 q 558 269 558 186 l 558 694 l 683 694 l 683 269 q 648 117 683 182 q 548 18 613 53 q 394 -17 483 -17 m 186 825 l 186 925 l 603 925 l 603 825 l 186 825 z "},"ų":{"ha":789,"x_min":106,"x_max":683,"o":"m 442 -14 q 274 3 350 -24 q 151 96 197 29 q 106 269 106 163 l 106 694 l 231 694 l 231 269 q 272 135 231 188 q 394 83 314 83 q 518 135 478 83 q 558 269 558 186 l 558 694 l 683 694 l 683 269 q 667 157 683 203 q 622 78 650 111 q 560 17 594 46 q 478 -60 508 -26 q 449 -131 449 -94 q 480 -185 449 -172 q 546 -193 511 -197 l 546 -283 q 470 -284 506 -289 q 408 -264 435 -279 q 365 -222 381 -249 q 350 -157 350 -196 q 373 -81 350 -115 q 442 -17 396 -47 l 442 -14 z "},"ů":{"ha":789,"x_min":106,"x_max":683,"o":"m 394 -17 q 238 17 303 -17 q 140 116 174 51 q 106 269 106 181 l 106 694 l 231 694 l 231 269 q 272 135 231 188 q 394 83 314 83 q 518 135 478 83 q 558 269 558 186 l 558 694 l 683 694 l 683 269 q 648 117 683 182 q 548 18 613 53 q 394 -17 483 -17 m 394 783 q 291 822 332 783 q 250 921 250 861 q 291 1019 250 981 q 394 1058 332 1058 q 498 1019 457 1058 q 539 921 539 981 q 498 822 539 861 q 394 783 457 783 m 394 853 q 442 872 422 853 q 461 921 461 892 q 442 969 461 950 q 394 989 422 989 q 347 969 367 989 q 328 921 328 950 q 347 872 328 892 q 394 853 367 853 z "},"ũ":{"ha":789,"x_min":106,"x_max":683,"o":"m 394 -17 q 238 17 303 -17 q 140 116 174 51 q 106 269 106 181 l 106 694 l 231 694 l 231 269 q 272 135 231 188 q 394 83 314 83 q 518 135 478 83 q 558 269 558 186 l 558 694 l 683 694 l 683 269 q 648 117 683 182 q 548 18 613 53 q 394 -17 483 -17 m 479 792 q 417 807 442 792 q 376 842 393 822 q 343 876 358 861 q 307 892 328 892 q 272 871 285 892 q 257 806 258 850 l 168 806 q 207 937 168 888 q 310 986 246 986 q 372 971 347 986 q 413 936 396 956 q 446 901 431 917 q 482 886 461 886 q 517 908 504 886 q 532 972 531 929 l 621 972 q 583 841 621 890 q 479 792 544 792 z "},"v":{"ha":743,"x_min":39,"x_max":704,"o":"m 374 68 l 575 694 l 704 694 l 461 0 l 279 0 l 39 694 l 172 694 l 371 68 l 374 68 z "},"w":{"ha":1128,"x_min":44,"x_max":1083,"o":"m 247 0 l 44 694 l 174 694 l 339 76 l 342 76 l 504 694 l 626 694 l 790 76 l 793 76 l 957 694 l 1083 694 l 881 0 l 701 0 l 564 556 l 561 556 l 422 0 l 247 0 z "},"ẃ":{"ha":1128,"x_min":44,"x_max":1083,"o":"m 247 0 l 44 694 l 174 694 l 339 76 l 342 76 l 504 694 l 626 694 l 790 76 l 793 76 l 957 694 l 1083 694 l 881 0 l 701 0 l 564 556 l 561 556 l 422 0 l 247 0 m 600 792 l 497 792 l 606 994 l 753 994 l 600 792 z "},"ŵ":{"ha":1128,"x_min":44,"x_max":1083,"o":"m 247 0 l 44 694 l 174 694 l 339 76 l 342 76 l 504 694 l 626 694 l 790 76 l 793 76 l 957 694 l 1083 694 l 881 0 l 701 0 l 564 556 l 561 556 l 422 0 l 247 0 m 354 783 l 500 986 l 631 986 l 776 783 l 671 783 l 565 908 l 460 783 l 354 783 z "},"ẅ":{"ha":1128,"x_min":44,"x_max":1083,"o":"m 247 0 l 44 694 l 174 694 l 339 76 l 342 76 l 504 694 l 626 694 l 790 76 l 793 76 l 957 694 l 1083 694 l 881 0 l 701 0 l 564 556 l 561 556 l 422 0 l 247 0 m 360 819 l 360 958 l 496 958 l 496 819 l 360 819 m 635 819 l 635 958 l 771 958 l 771 819 l 635 819 z "},"ẁ":{"ha":1128,"x_min":44,"x_max":1083,"o":"m 247 0 l 44 694 l 174 694 l 339 76 l 342 76 l 504 694 l 626 694 l 790 76 l 793 76 l 957 694 l 1083 694 l 881 0 l 701 0 l 564 556 l 561 556 l 422 0 l 247 0 m 531 792 l 378 994 l 525 994 l 633 792 l 531 792 z "},"x":{"ha":764,"x_min":42,"x_max":722,"o":"m 42 0 l 335 392 l 331 324 l 61 694 l 206 694 l 385 431 l 388 431 l 567 694 l 697 694 l 429 325 l 432 393 l 722 0 l 576 0 l 379 283 l 376 283 l 174 0 l 42 0 z "},"y":{"ha":744,"x_min":39,"x_max":706,"o":"m 39 694 l 172 694 l 376 74 l 379 74 l 579 694 l 706 694 l 381 -250 l 260 -250 l 365 42 l 267 42 l 39 694 z "},"ý":{"ha":744,"x_min":39,"x_max":706,"o":"m 39 694 l 172 694 l 376 74 l 379 74 l 579 694 l 706 694 l 381 -250 l 260 -250 l 365 42 l 267 42 l 39 694 m 407 792 l 304 792 l 413 994 l 560 994 l 407 792 z "},"ŷ":{"ha":744,"x_min":39,"x_max":706,"o":"m 39 694 l 172 694 l 376 74 l 379 74 l 579 694 l 706 694 l 381 -250 l 260 -250 l 365 42 l 267 42 l 39 694 m 161 783 l 307 986 l 438 986 l 583 783 l 478 783 l 372 908 l 267 783 l 161 783 z "},"ÿ":{"ha":744,"x_min":39,"x_max":706,"o":"m 39 694 l 172 694 l 376 74 l 379 74 l 579 694 l 706 694 l 381 -250 l 260 -250 l 365 42 l 267 42 l 39 694 m 167 819 l 167 958 l 303 958 l 303 819 l 167 819 m 442 819 l 442 958 l 578 958 l 578 819 l 442 819 z "},"ỳ":{"ha":744,"x_min":39,"x_max":706,"o":"m 39 694 l 172 694 l 376 74 l 379 74 l 579 694 l 706 694 l 381 -250 l 260 -250 l 365 42 l 267 42 l 39 694 m 338 792 l 185 994 l 332 994 l 440 792 l 338 792 z "},"z":{"ha":682,"x_min":63,"x_max":619,"o":"m 63 0 l 475 682 l 496 597 l 78 597 l 78 694 l 619 694 l 207 13 l 186 97 l 614 97 l 614 0 l 63 0 z "},"ź":{"ha":682,"x_min":63,"x_max":619,"o":"m 63 0 l 475 682 l 496 597 l 78 597 l 78 694 l 619 694 l 207 13 l 186 97 l 614 97 l 614 0 l 63 0 m 367 792 l 264 792 l 372 994 l 519 994 l 367 792 z "},"ž":{"ha":682,"x_min":63,"x_max":619,"o":"m 63 0 l 475 682 l 496 597 l 78 597 l 78 694 l 619 694 l 207 13 l 186 97 l 614 97 l 614 0 l 63 0 m 121 994 l 226 994 l 332 869 l 438 994 l 543 994 l 397 792 l 267 792 l 121 994 z "},"ż":{"ha":682,"x_min":63,"x_max":619,"o":"m 63 0 l 475 682 l 496 597 l 78 597 l 78 694 l 619 694 l 207 13 l 186 97 l 614 97 l 614 0 l 63 0 m 258 817 l 258 961 l 406 961 l 406 817 l 258 817 z "},"ª":{"ha":481,"x_min":58,"x_max":414,"o":"m 318 586 q 272 535 303 551 q 196 518 240 518 q 96 549 133 518 q 58 632 58 581 q 92 710 58 682 q 176 750 125 738 l 335 789 l 335 721 l 214 690 q 174 673 189 685 q 158 638 158 661 q 178 602 158 615 q 226 589 197 589 q 290 608 265 589 q 314 660 314 628 l 314 789 q 285 849 314 828 q 208 871 256 871 q 145 860 175 871 q 90 832 115 850 l 90 918 q 153 945 118 936 q 226 954 188 954 q 363 910 313 954 q 414 788 414 865 l 414 528 l 321 528 l 321 586 l 318 586 z "},"º":{"ha":542,"x_min":47,"x_max":494,"o":"m 271 515 q 156 543 207 515 q 76 620 106 571 q 47 733 47 669 q 76 847 47 797 q 156 926 106 897 q 271 954 207 954 q 387 926 336 954 q 466 848 438 897 q 494 735 494 799 q 466 621 494 671 q 387 543 438 571 q 271 515 336 515 m 271 592 q 359 630 325 592 q 393 733 393 668 q 360 838 393 797 q 271 878 326 878 q 183 839 218 878 q 149 735 149 800 q 184 631 149 671 q 271 592 219 592 z "},"ⁿ":{"ha":515,"x_min":69,"x_max":449,"o":"m 69 528 l 69 944 l 165 944 l 165 863 l 168 863 q 217 929 183 904 q 300 954 251 954 q 405 914 361 954 q 449 792 449 874 l 449 528 l 349 528 l 349 774 q 326 846 349 821 q 265 871 303 871 q 196 840 222 871 q 169 756 169 808 l 169 528 l 69 528 z "},"Ω":{"ha":1133,"x_min":81,"x_max":1053,"o":"m 81 0 l 81 103 l 288 103 l 288 106 q 132 266 183 169 q 81 483 81 363 q 117 676 81 588 q 218 829 153 764 q 372 931 283 894 q 567 967 461 967 q 761 931 672 967 q 915 831 850 896 q 1017 678 981 765 q 1053 486 1053 590 q 1001 267 1053 365 q 846 106 950 169 l 846 103 l 1053 103 l 1053 0 l 663 0 l 663 100 q 849 241 782 138 q 917 481 917 344 q 872 678 917 593 q 749 811 828 764 q 567 858 669 858 q 385 812 464 858 q 261 681 306 765 q 217 483 217 596 q 247 315 217 393 q 335 181 278 236 q 471 100 392 125 l 471 0 l 81 0 z "},"μ":{"ha":794,"x_min":111,"x_max":689,"o":"m 407 -14 q 313 0 356 -14 q 239 44 271 14 l 236 44 l 236 -250 l 111 -250 l 111 694 l 236 694 l 236 269 q 278 135 236 188 q 400 83 319 83 q 524 135 483 83 q 564 269 564 186 l 564 694 l 689 694 l 689 269 q 654 119 689 182 q 556 21 619 56 q 407 -14 493 -14 z "},"π":{"ha":918,"x_min":50,"x_max":846,"o":"m 50 597 l 50 694 l 846 694 l 846 597 l 50 597 m 200 0 l 200 639 l 325 639 l 325 0 l 200 0 m 686 639 l 686 201 q 783 90 686 90 q 836 99 811 90 l 836 3 q 799 -6 818 -3 q 760 -8 781 -8 q 612 41 663 -8 q 561 182 561 90 l 561 639 l 686 639 z "},"ᴺ":{"ha":569,"x_min":69,"x_max":500,"o":"m 229 1014 l 407 588 l 408 588 l 408 1014 l 500 1014 l 500 528 l 343 528 l 163 964 l 161 964 l 163 528 l 69 528 l 69 1014 l 229 1014 z "},"⓿":{"ha":1267,"x_min":83,"x_max":1183,"o":"m 633 -78 q 413 -37 514 -78 q 239 78 313 4 q 124 252 165 151 q 83 472 83 353 q 124 692 83 592 q 239 867 165 793 q 413 981 313 940 q 633 1022 514 1022 q 853 981 753 1022 q 1028 867 954 940 q 1142 692 1101 793 q 1183 472 1183 592 q 1142 252 1183 353 q 1028 78 1101 151 q 853 -37 954 4 q 633 -78 753 -78 m 633 758 q 507 724 564 758 q 417 626 450 690 q 385 472 385 563 q 417 318 385 382 q 507 220 450 254 q 633 186 564 186 q 759 220 703 186 q 848 318 815 254 q 881 472 881 382 q 848 626 881 563 q 759 724 815 690 q 633 758 703 758 m 488 472 q 530 623 488 571 q 633 675 572 675 q 736 623 694 675 q 778 472 778 571 q 736 322 778 374 q 633 269 694 269 q 530 322 572 269 q 488 472 488 374 z "},"❶":{"ha":1267,"x_min":83,"x_max":1183,"o":"m 633 -78 q 413 -37 514 -78 q 239 78 313 4 q 124 252 165 151 q 83 472 83 353 q 124 692 83 592 q 239 867 165 793 q 413 981 313 940 q 633 1022 514 1022 q 853 981 753 1022 q 1028 867 954 940 q 1142 692 1101 793 q 1183 472 1183 592 q 1142 252 1183 353 q 1028 78 1101 151 q 853 -37 954 4 q 633 -78 753 -78 m 611 200 l 708 200 l 708 744 l 624 744 l 465 628 l 465 525 l 611 639 l 611 200 z "},"❷":{"ha":1267,"x_min":83,"x_max":1183,"o":"m 633 -78 q 413 -37 514 -78 q 239 78 313 4 q 124 252 165 151 q 83 472 83 353 q 124 692 83 592 q 239 867 165 793 q 413 981 313 940 q 633 1022 514 1022 q 853 981 753 1022 q 1028 867 954 940 q 1142 692 1101 793 q 1183 472 1183 592 q 1142 252 1183 353 q 1028 78 1101 151 q 853 -37 954 4 q 633 -78 753 -78 m 440 197 l 832 197 l 832 278 l 621 278 l 747 411 q 808 494 788 454 q 828 581 828 535 q 769 712 828 665 q 624 758 711 758 q 537 745 579 758 q 457 703 494 732 l 457 599 q 532 653 493 635 q 611 672 571 672 q 696 644 664 672 q 728 571 728 615 q 715 515 728 544 q 672 453 703 486 l 440 197 z "},"❸":{"ha":1267,"x_min":83,"x_max":1183,"o":"m 633 -78 q 413 -37 514 -78 q 239 78 313 4 q 124 252 165 151 q 83 472 83 353 q 124 692 83 592 q 239 867 165 793 q 413 981 313 940 q 633 1022 514 1022 q 853 981 753 1022 q 1028 867 954 940 q 1142 692 1101 793 q 1183 472 1183 592 q 1142 252 1183 353 q 1028 78 1101 151 q 853 -37 954 4 q 633 -78 753 -78 m 456 226 q 529 196 489 206 q 611 186 569 186 q 769 236 708 186 q 831 368 831 286 q 787 483 831 439 q 683 536 743 526 l 833 744 l 456 744 l 456 664 l 678 664 l 542 474 l 588 474 q 691 449 650 474 q 732 372 732 424 q 701 299 732 329 q 606 268 669 268 q 528 283 567 268 q 456 325 489 297 l 456 226 z "},"❹":{"ha":1267,"x_min":83,"x_max":1183,"o":"m 633 -78 q 413 -37 514 -78 q 239 78 313 4 q 124 252 165 151 q 83 472 83 353 q 124 692 83 592 q 239 867 165 793 q 413 981 313 940 q 633 1022 514 1022 q 853 981 753 1022 q 1028 867 954 940 q 1142 692 1101 793 q 1183 472 1183 592 q 1142 252 1183 353 q 1028 78 1101 151 q 853 -37 954 4 q 633 -78 753 -78 m 689 743 l 588 743 l 381 335 l 676 335 l 676 200 l 771 200 l 771 335 l 836 335 l 836 411 l 771 411 l 771 607 l 679 607 l 679 411 l 518 411 l 689 743 z "},"❺":{"ha":1267,"x_min":83,"x_max":1183,"o":"m 633 -78 q 413 -37 514 -78 q 239 78 313 4 q 124 252 165 151 q 83 472 83 353 q 124 692 83 592 q 239 867 165 793 q 413 981 313 940 q 633 1022 514 1022 q 853 981 753 1022 q 1028 867 954 940 q 1142 692 1101 793 q 1183 472 1183 592 q 1142 252 1183 353 q 1028 78 1101 151 q 853 -37 954 4 q 633 -78 753 -78 m 563 664 l 803 664 l 803 744 l 475 744 l 475 454 q 529 474 500 467 q 588 481 558 481 q 688 451 653 481 q 724 375 724 421 q 688 298 724 328 q 592 268 651 268 q 519 281 554 268 q 451 319 483 294 l 451 225 q 519 197 483 207 q 599 186 556 186 q 762 239 701 186 q 822 376 822 292 q 767 508 822 457 q 625 558 711 558 q 594 556 610 558 q 563 550 578 554 l 563 664 z "},"❻":{"ha":1267,"x_min":83,"x_max":1183,"o":"m 633 -78 q 413 -37 514 -78 q 239 78 313 4 q 124 252 165 151 q 83 472 83 353 q 124 692 83 592 q 239 867 165 793 q 413 981 313 940 q 633 1022 514 1022 q 853 981 753 1022 q 1028 867 954 940 q 1142 692 1101 793 q 1183 472 1183 592 q 1142 252 1183 353 q 1028 78 1101 151 q 853 -37 954 4 q 633 -78 753 -78 m 632 186 q 788 240 726 186 q 849 376 849 294 q 823 472 849 433 q 756 532 797 511 q 669 553 715 553 q 619 546 643 553 q 574 522 596 539 l 571 525 l 743 744 l 629 744 l 476 535 q 433 456 447 496 q 418 374 418 417 q 478 238 418 290 q 632 186 539 186 m 633 268 q 548 299 582 268 q 514 376 514 329 q 547 455 514 425 q 631 485 579 485 q 717 454 683 485 q 750 375 750 424 q 718 298 750 328 q 633 268 686 268 z "},"❼":{"ha":1267,"x_min":83,"x_max":1183,"o":"m 633 -78 q 413 -37 514 -78 q 239 78 313 4 q 124 252 165 151 q 83 472 83 353 q 124 692 83 592 q 239 867 165 793 q 413 981 313 940 q 633 1022 514 1022 q 853 981 753 1022 q 1028 867 954 940 q 1142 692 1101 793 q 1183 472 1183 592 q 1142 252 1183 353 q 1028 78 1101 151 q 853 -37 954 4 q 633 -78 753 -78 m 485 200 l 588 200 l 865 744 l 447 744 l 447 663 l 725 663 l 485 200 z "},"❽":{"ha":1267,"x_min":83,"x_max":1183,"o":"m 633 -78 q 413 -37 514 -78 q 239 78 313 4 q 124 252 165 151 q 83 472 83 353 q 124 692 83 592 q 239 867 165 793 q 413 981 313 940 q 633 1022 514 1022 q 853 981 753 1022 q 1028 867 954 940 q 1142 692 1101 793 q 1183 472 1183 592 q 1142 252 1183 353 q 1028 78 1101 151 q 853 -37 954 4 q 633 -78 753 -78 m 517 351 q 549 417 517 392 q 633 443 582 443 q 717 417 685 443 q 750 351 750 392 q 717 288 750 313 q 633 264 685 264 q 549 288 582 264 q 517 351 517 313 m 533 601 q 562 660 533 639 q 633 681 590 681 q 706 659 678 681 q 735 601 735 638 q 706 540 735 564 q 633 517 678 517 q 562 540 590 517 q 533 601 533 563 m 418 343 q 478 229 418 272 q 633 186 538 186 q 789 230 729 186 q 849 347 849 274 q 816 438 849 403 q 731 486 783 474 l 731 488 q 803 531 776 499 q 831 607 831 563 q 775 717 831 675 q 633 758 719 758 q 492 716 547 758 q 438 604 438 674 q 465 525 438 557 q 538 482 492 493 l 538 481 q 450 431 482 467 q 418 343 418 394 z "},"❾":{"ha":1267,"x_min":83,"x_max":1183,"o":"m 633 -78 q 413 -37 514 -78 q 239 78 313 4 q 124 252 165 151 q 83 472 83 353 q 124 692 83 592 q 239 867 165 793 q 413 981 313 940 q 633 1022 514 1022 q 853 981 753 1022 q 1028 867 954 940 q 1142 692 1101 793 q 1183 472 1183 592 q 1142 252 1183 353 q 1028 78 1101 151 q 853 -37 954 4 q 633 -78 753 -78 m 521 200 l 636 200 l 788 406 q 833 486 818 446 q 849 569 849 526 q 788 706 849 654 q 636 758 728 758 q 523 733 572 758 q 446 666 474 708 q 418 568 418 624 q 444 475 418 514 q 513 416 471 436 q 603 396 556 396 q 689 419 650 396 l 692 417 l 521 200 m 635 465 q 550 496 583 465 q 517 574 517 526 q 549 647 517 618 q 631 676 581 676 q 717 647 683 676 q 750 569 750 617 q 717 494 750 524 q 635 465 685 465 z "},"⓪":{"ha":1267,"x_min":83,"x_max":1183,"o":"m 633 -78 q 413 -37 514 -78 q 239 78 313 4 q 124 252 165 151 q 83 472 83 353 q 124 692 83 592 q 239 867 165 793 q 413 981 313 940 q 633 1022 514 1022 q 853 981 753 1022 q 1028 867 954 940 q 1142 692 1101 793 q 1183 472 1183 592 q 1142 252 1183 353 q 1028 78 1101 151 q 853 -37 954 4 q 633 -78 753 -78 m 633 -6 q 876 55 771 -6 q 1042 223 982 115 q 1101 472 1101 331 q 1042 722 1101 614 q 876 890 982 829 q 633 950 771 950 q 390 889 496 950 q 224 720 285 828 q 164 472 164 613 q 224 225 164 333 q 390 56 285 117 q 633 -6 496 -6 m 385 472 q 417 626 385 563 q 507 724 450 690 q 633 758 564 758 q 759 724 703 758 q 848 626 815 690 q 881 472 881 563 q 848 318 881 382 q 759 220 815 254 q 633 186 703 186 q 507 220 564 186 q 417 318 450 254 q 385 472 385 382 m 488 472 q 530 322 488 374 q 633 269 572 269 q 736 322 694 269 q 778 472 778 374 q 736 623 778 571 q 633 675 694 675 q 530 623 572 675 q 488 472 488 571 z "},"①":{"ha":1267,"x_min":83,"x_max":1183,"o":"m 633 -78 q 413 -37 514 -78 q 239 78 313 4 q 124 252 165 151 q 83 472 83 353 q 124 692 83 592 q 239 867 165 793 q 413 981 313 940 q 633 1022 514 1022 q 853 981 753 1022 q 1028 867 954 940 q 1142 692 1101 793 q 1183 472 1183 592 q 1142 252 1183 353 q 1028 78 1101 151 q 853 -37 954 4 q 633 -78 753 -78 m 633 -6 q 876 55 771 -6 q 1042 223 982 115 q 1101 472 1101 331 q 1042 722 1101 614 q 876 890 982 829 q 633 950 771 950 q 390 889 496 950 q 224 720 285 828 q 164 472 164 613 q 224 225 164 333 q 390 56 285 117 q 633 -6 496 -6 m 611 200 l 611 639 l 465 525 l 465 628 l 624 744 l 708 744 l 708 200 l 611 200 z "},"②":{"ha":1267,"x_min":83,"x_max":1183,"o":"m 633 -78 q 413 -37 514 -78 q 239 78 313 4 q 124 252 165 151 q 83 472 83 353 q 124 692 83 592 q 239 867 165 793 q 413 981 313 940 q 633 1022 514 1022 q 853 981 753 1022 q 1028 867 954 940 q 1142 692 1101 793 q 1183 472 1183 592 q 1142 252 1183 353 q 1028 78 1101 151 q 853 -37 954 4 q 633 -78 753 -78 m 633 -6 q 876 55 771 -6 q 1042 223 982 115 q 1101 472 1101 331 q 1042 722 1101 614 q 876 890 982 829 q 633 950 771 950 q 390 889 496 950 q 224 720 285 828 q 164 472 164 613 q 224 225 164 333 q 390 56 285 117 q 633 -6 496 -6 m 440 197 l 672 453 q 715 515 703 486 q 728 571 728 544 q 696 644 728 615 q 611 672 664 672 q 532 653 571 672 q 457 599 493 635 l 457 703 q 537 745 494 732 q 624 758 579 758 q 769 712 711 758 q 828 581 828 665 q 808 494 828 535 q 747 411 788 454 l 621 278 l 832 278 l 832 197 l 440 197 z "},"③":{"ha":1267,"x_min":83,"x_max":1183,"o":"m 633 -78 q 413 -37 514 -78 q 239 78 313 4 q 124 252 165 151 q 83 472 83 353 q 124 692 83 592 q 239 867 165 793 q 413 981 313 940 q 633 1022 514 1022 q 853 981 753 1022 q 1028 867 954 940 q 1142 692 1101 793 q 1183 472 1183 592 q 1142 252 1183 353 q 1028 78 1101 151 q 853 -37 954 4 q 633 -78 753 -78 m 633 -6 q 876 55 771 -6 q 1042 223 982 115 q 1101 472 1101 331 q 1042 722 1101 614 q 876 890 982 829 q 633 950 771 950 q 390 889 496 950 q 224 720 285 828 q 164 472 164 613 q 224 225 164 333 q 390 56 285 117 q 633 -6 496 -6 m 456 226 l 456 325 q 528 283 489 297 q 606 268 567 268 q 701 299 669 268 q 732 372 732 329 q 691 449 732 424 q 588 474 650 474 l 542 474 l 678 664 l 456 664 l 456 744 l 833 744 l 683 536 q 787 483 743 526 q 831 368 831 439 q 769 236 831 286 q 611 186 708 186 q 529 196 569 186 q 456 226 489 206 z "},"④":{"ha":1267,"x_min":83,"x_max":1183,"o":"m 633 -78 q 413 -37 514 -78 q 239 78 313 4 q 124 252 165 151 q 83 472 83 353 q 124 692 83 592 q 239 867 165 793 q 413 981 313 940 q 633 1022 514 1022 q 853 981 753 1022 q 1028 867 954 940 q 1142 692 1101 793 q 1183 472 1183 592 q 1142 252 1183 353 q 1028 78 1101 151 q 853 -37 954 4 q 633 -78 753 -78 m 633 -6 q 876 55 771 -6 q 1042 223 982 115 q 1101 472 1101 331 q 1042 722 1101 614 q 876 890 982 829 q 633 950 771 950 q 390 889 496 950 q 224 720 285 828 q 164 472 164 613 q 224 225 164 333 q 390 56 285 117 q 633 -6 496 -6 m 689 743 l 518 411 l 679 411 l 679 607 l 771 607 l 771 411 l 836 411 l 836 335 l 771 335 l 771 200 l 676 200 l 676 335 l 381 335 l 588 743 l 689 743 z "},"⑤":{"ha":1267,"x_min":83,"x_max":1183,"o":"m 633 -78 q 413 -37 514 -78 q 239 78 313 4 q 124 252 165 151 q 83 472 83 353 q 124 692 83 592 q 239 867 165 793 q 413 981 313 940 q 633 1022 514 1022 q 853 981 753 1022 q 1028 867 954 940 q 1142 692 1101 793 q 1183 472 1183 592 q 1142 252 1183 353 q 1028 78 1101 151 q 853 -37 954 4 q 633 -78 753 -78 m 633 -6 q 876 55 771 -6 q 1042 223 982 115 q 1101 472 1101 331 q 1042 722 1101 614 q 876 890 982 829 q 633 950 771 950 q 390 889 496 950 q 224 720 285 828 q 164 472 164 613 q 224 225 164 333 q 390 56 285 117 q 633 -6 496 -6 m 563 664 l 563 550 q 594 556 578 554 q 625 558 610 558 q 767 508 711 558 q 822 376 822 457 q 762 239 822 292 q 599 186 701 186 q 519 197 556 186 q 451 225 483 207 l 451 319 q 519 281 483 294 q 592 268 554 268 q 688 298 651 268 q 724 375 724 328 q 688 451 724 421 q 588 481 653 481 q 529 474 558 481 q 475 454 500 467 l 475 744 l 803 744 l 803 664 l 563 664 z "},"⑥":{"ha":1267,"x_min":83,"x_max":1183,"o":"m 633 -78 q 413 -37 514 -78 q 239 78 313 4 q 124 252 165 151 q 83 472 83 353 q 124 692 83 592 q 239 867 165 793 q 413 981 313 940 q 633 1022 514 1022 q 853 981 753 1022 q 1028 867 954 940 q 1142 692 1101 793 q 1183 472 1183 592 q 1142 252 1183 353 q 1028 78 1101 151 q 853 -37 954 4 q 633 -78 753 -78 m 633 -6 q 876 55 771 -6 q 1042 223 982 115 q 1101 472 1101 331 q 1042 722 1101 614 q 876 890 982 829 q 633 950 771 950 q 390 889 496 950 q 224 720 285 828 q 164 472 164 613 q 224 225 164 333 q 390 56 285 117 q 633 -6 496 -6 m 632 186 q 478 238 539 186 q 418 374 418 290 q 433 456 418 417 q 476 535 447 496 l 629 744 l 743 744 l 571 525 l 574 522 q 619 546 596 539 q 669 553 643 553 q 756 532 715 553 q 823 472 797 511 q 849 376 849 433 q 788 240 849 294 q 632 186 726 186 m 633 268 q 718 298 686 268 q 750 375 750 328 q 717 454 750 424 q 631 485 683 485 q 547 455 579 485 q 514 376 514 425 q 548 299 514 329 q 633 268 582 268 z "},"⑦":{"ha":1267,"x_min":83,"x_max":1183,"o":"m 633 -78 q 413 -37 514 -78 q 239 78 313 4 q 124 252 165 151 q 83 472 83 353 q 124 692 83 592 q 239 867 165 793 q 413 981 313 940 q 633 1022 514 1022 q 853 981 753 1022 q 1028 867 954 940 q 1142 692 1101 793 q 1183 472 1183 592 q 1142 252 1183 353 q 1028 78 1101 151 q 853 -37 954 4 q 633 -78 753 -78 m 633 -6 q 876 55 771 -6 q 1042 223 982 115 q 1101 472 1101 331 q 1042 722 1101 614 q 876 890 982 829 q 633 950 771 950 q 390 889 496 950 q 224 720 285 828 q 164 472 164 613 q 224 225 164 333 q 390 56 285 117 q 633 -6 496 -6 m 485 200 l 725 663 l 447 663 l 447 744 l 865 744 l 588 200 l 485 200 z "},"⑧":{"ha":1267,"x_min":83,"x_max":1183,"o":"m 633 -78 q 413 -37 514 -78 q 239 78 313 4 q 124 252 165 151 q 83 472 83 353 q 124 692 83 592 q 239 867 165 793 q 413 981 313 940 q 633 1022 514 1022 q 853 981 753 1022 q 1028 867 954 940 q 1142 692 1101 793 q 1183 472 1183 592 q 1142 252 1183 353 q 1028 78 1101 151 q 853 -37 954 4 q 633 -78 753 -78 m 633 -6 q 876 55 771 -6 q 1042 223 982 115 q 1101 472 1101 331 q 1042 722 1101 614 q 876 890 982 829 q 633 950 771 950 q 390 889 496 950 q 224 720 285 828 q 164 472 164 613 q 224 225 164 333 q 390 56 285 117 q 633 -6 496 -6 m 517 351 q 549 288 517 313 q 633 264 582 264 q 717 288 685 264 q 750 351 750 313 q 717 417 750 392 q 633 443 685 443 q 549 417 582 443 q 517 351 517 392 m 533 601 q 562 540 533 563 q 633 517 590 517 q 706 540 678 517 q 735 601 735 564 q 706 659 735 638 q 633 681 678 681 q 562 660 590 681 q 533 601 533 639 m 418 343 q 450 431 418 394 q 538 481 482 467 l 538 482 q 465 525 492 493 q 438 604 438 557 q 492 716 438 674 q 633 758 547 758 q 775 717 719 758 q 831 607 831 675 q 803 531 831 563 q 731 488 776 499 l 731 486 q 816 438 783 474 q 849 347 849 403 q 789 230 849 274 q 633 186 729 186 q 478 229 538 186 q 418 343 418 272 z "},"⑨":{"ha":1267,"x_min":83,"x_max":1183,"o":"m 633 -78 q 413 -37 514 -78 q 239 78 313 4 q 124 252 165 151 q 83 472 83 353 q 124 692 83 592 q 239 867 165 793 q 413 981 313 940 q 633 1022 514 1022 q 853 981 753 1022 q 1028 867 954 940 q 1142 692 1101 793 q 1183 472 1183 592 q 1142 252 1183 353 q 1028 78 1101 151 q 853 -37 954 4 q 633 -78 753 -78 m 633 -6 q 876 55 771 -6 q 1042 223 982 115 q 1101 472 1101 331 q 1042 722 1101 614 q 876 890 982 829 q 633 950 771 950 q 390 889 496 950 q 224 720 285 828 q 164 472 164 613 q 224 225 164 333 q 390 56 285 117 q 633 -6 496 -6 m 521 200 l 692 417 l 689 419 q 603 396 650 396 q 513 416 556 396 q 444 475 471 436 q 418 568 418 514 q 446 666 418 624 q 523 733 474 708 q 636 758 572 758 q 788 706 728 758 q 849 569 849 654 q 833 486 849 526 q 788 406 818 446 l 636 200 l 521 200 m 635 465 q 717 494 685 465 q 750 569 750 524 q 717 647 750 617 q 631 676 683 676 q 549 647 581 676 q 517 574 517 618 q 550 496 517 526 q 635 465 583 465 z "},"⁄":{"ha":278,"x_min":-219,"x_max":497,"o":"m -219 0 l 383 944 l 497 944 l -106 0 l -219 0 z "},"⅟":{"ha":632,"x_min":22,"x_max":851,"o":"m 168 400 l 168 839 l 22 725 l 22 828 l 181 944 l 265 944 l 265 400 l 168 400 m 135 0 l 738 944 l 851 944 l 249 0 l 135 0 z "},"½":{"ha":1074,"x_min":22,"x_max":1035,"o":"m 168 400 l 168 839 l 22 725 l 22 828 l 181 944 l 265 944 l 265 400 l 168 400 m 135 0 l 738 944 l 851 944 l 249 0 l 135 0 m 643 -3 l 875 253 q 918 315 906 286 q 931 371 931 344 q 899 444 931 415 q 814 472 867 472 q 735 453 774 472 q 660 399 696 435 l 660 503 q 740 545 697 532 q 826 558 782 558 q 972 512 914 558 q 1031 381 1031 465 q 1010 294 1031 335 q 950 211 990 254 l 824 78 l 1035 78 l 1035 -3 l 643 -3 z "},"↉":{"ha":1269,"x_min":33,"x_max":1226,"o":"m 33 672 q 66 826 33 763 q 156 924 99 890 q 282 958 213 958 q 408 924 351 958 q 497 826 464 890 q 529 672 529 763 q 497 518 529 582 q 408 420 464 454 q 282 386 351 386 q 156 420 213 386 q 66 518 99 454 q 33 672 33 582 m 136 672 q 178 522 136 574 q 282 469 221 469 q 385 522 343 469 q 426 672 426 574 q 385 823 426 771 q 282 875 343 875 q 178 823 221 875 q 136 672 136 771 m 310 0 l 913 944 l 1026 944 l 424 0 l 310 0 m 849 26 l 849 125 q 921 83 882 97 q 999 68 960 68 q 1094 99 1063 68 q 1125 172 1125 129 q 1084 249 1125 224 q 981 274 1043 274 l 935 274 l 1071 464 l 849 464 l 849 544 l 1226 544 l 1076 336 q 1180 283 1136 326 q 1224 168 1224 239 q 1163 36 1224 86 q 1004 -14 1101 -14 q 922 -4 963 -14 q 849 26 882 6 z "},"⅓":{"ha":1094,"x_min":22,"x_max":1051,"o":"m 168 400 l 168 839 l 22 725 l 22 828 l 181 944 l 265 944 l 265 400 l 168 400 m 135 0 l 738 944 l 851 944 l 249 0 l 135 0 m 674 26 l 674 125 q 746 83 707 97 q 824 68 785 68 q 919 99 888 68 q 950 172 950 129 q 909 249 950 224 q 806 274 868 274 l 760 274 l 896 464 l 674 464 l 674 544 l 1051 544 l 901 336 q 1005 283 961 326 q 1049 168 1049 239 q 988 36 1049 86 q 829 -14 926 -14 q 747 -4 788 -14 q 674 26 707 6 z "},"⅔":{"ha":1182,"x_min":11,"x_max":1139,"o":"m 11 397 l 243 653 q 286 715 274 686 q 299 771 299 744 q 267 844 299 815 q 182 872 235 872 q 103 853 142 872 q 28 799 64 835 l 28 903 q 108 945 65 932 q 194 958 150 958 q 340 912 282 958 q 399 781 399 865 q 378 694 399 735 q 318 611 358 654 l 192 478 l 403 478 l 403 397 l 11 397 m 222 0 l 825 944 l 939 944 l 336 0 l 222 0 m 761 26 l 761 125 q 833 83 794 97 q 911 68 872 68 q 1006 99 975 68 q 1038 172 1038 129 q 997 249 1038 224 q 893 274 956 274 l 847 274 l 983 464 l 761 464 l 761 544 l 1139 544 l 989 336 q 1092 283 1049 326 q 1136 168 1136 239 q 1075 36 1136 86 q 917 -14 1014 -14 q 835 -4 875 -14 q 761 26 794 6 z "},"¼":{"ha":1038,"x_min":22,"x_max":1010,"o":"m 168 400 l 168 839 l 22 725 l 22 828 l 181 944 l 265 944 l 265 400 l 168 400 m 135 0 l 738 944 l 851 944 l 249 0 l 135 0 m 863 543 l 692 211 l 853 211 l 853 407 l 944 407 l 944 211 l 1010 211 l 1010 135 l 944 135 l 944 0 l 850 0 l 850 135 l 554 135 l 761 543 l 863 543 z "},"¾":{"ha":1138,"x_min":33,"x_max":1110,"o":"m 33 426 l 33 525 q 106 483 67 497 q 183 468 144 468 q 278 499 247 468 q 310 572 310 529 q 269 649 310 624 q 165 674 228 674 l 119 674 l 256 864 l 33 864 l 33 944 l 411 944 l 261 736 q 365 683 321 726 q 408 568 408 639 q 347 436 408 486 q 189 386 286 386 q 107 396 147 386 q 33 426 67 406 m 235 0 l 838 944 l 951 944 l 349 0 l 235 0 m 963 543 l 792 211 l 953 211 l 953 407 l 1044 407 l 1044 211 l 1110 211 l 1110 135 l 1044 135 l 1044 0 l 950 0 l 950 135 l 654 135 l 861 543 l 963 543 z "},"⅕":{"ha":1078,"x_min":22,"x_max":1036,"o":"m 168 400 l 168 839 l 22 725 l 22 828 l 181 944 l 265 944 l 265 400 l 168 400 m 135 0 l 738 944 l 851 944 l 249 0 l 135 0 m 776 464 l 776 350 q 808 356 792 354 q 839 358 824 358 q 981 308 925 358 q 1036 176 1036 257 q 976 39 1036 92 q 813 -14 915 -14 q 733 -3 769 -14 q 665 25 697 7 l 665 119 q 733 81 697 94 q 806 68 768 68 q 901 98 865 68 q 938 175 938 128 q 902 251 938 221 q 801 281 867 281 q 743 274 772 281 q 689 254 714 267 l 689 544 l 1017 544 l 1017 464 l 776 464 z "},"⅖":{"ha":1165,"x_min":11,"x_max":1124,"o":"m 11 397 l 243 653 q 286 715 274 686 q 299 771 299 744 q 267 844 299 815 q 182 872 235 872 q 103 853 142 872 q 28 799 64 835 l 28 903 q 108 945 65 932 q 194 958 150 958 q 340 912 282 958 q 399 781 399 865 q 378 694 399 735 q 318 611 358 654 l 192 478 l 403 478 l 403 397 l 11 397 m 222 0 l 825 944 l 939 944 l 336 0 l 222 0 m 864 464 l 864 350 q 895 356 879 354 q 926 358 911 358 q 1068 308 1013 358 q 1124 176 1124 257 q 1063 39 1124 92 q 900 -14 1003 -14 q 821 -3 857 -14 q 753 25 785 7 l 753 119 q 820 81 785 94 q 893 68 856 68 q 989 98 953 68 q 1025 175 1025 128 q 990 251 1025 221 q 889 281 954 281 q 831 274 860 281 q 776 254 801 267 l 776 544 l 1104 544 l 1104 464 l 864 464 z "},"⅗":{"ha":1178,"x_min":33,"x_max":1136,"o":"m 33 426 l 33 525 q 106 483 67 497 q 183 468 144 468 q 278 499 247 468 q 310 572 310 529 q 269 649 310 624 q 165 674 228 674 l 119 674 l 256 864 l 33 864 l 33 944 l 411 944 l 261 736 q 365 683 321 726 q 408 568 408 639 q 347 436 408 486 q 189 386 286 386 q 107 396 147 386 q 33 426 67 406 m 235 0 l 838 944 l 951 944 l 349 0 l 235 0 m 876 464 l 876 350 q 908 356 892 354 q 939 358 924 358 q 1081 308 1025 358 q 1136 176 1136 257 q 1076 39 1136 92 q 913 -14 1015 -14 q 833 -3 869 -14 q 765 25 797 7 l 765 119 q 833 81 797 94 q 906 68 868 68 q 1001 98 965 68 q 1038 175 1038 128 q 1002 251 1038 221 q 901 281 967 281 q 843 274 872 281 q 789 254 814 267 l 789 544 l 1117 544 l 1117 464 l 876 464 z "},"⅘":{"ha":1199,"x_min":-8,"x_max":1157,"o":"m 300 943 l 129 611 l 290 611 l 290 807 l 382 807 l 382 611 l 447 611 l 447 535 l 382 535 l 382 400 l 288 400 l 288 535 l -8 535 l 199 943 l 300 943 m 256 0 l 858 944 l 972 944 l 369 0 l 256 0 m 897 464 l 897 350 q 928 356 913 354 q 960 358 944 358 q 1101 308 1046 358 q 1157 176 1157 257 q 1097 39 1157 92 q 933 -14 1036 -14 q 854 -3 890 -14 q 786 25 818 7 l 786 119 q 853 81 818 94 q 926 68 889 68 q 1022 98 986 68 q 1058 175 1058 128 q 1023 251 1058 221 q 922 281 988 281 q 864 274 893 281 q 810 254 835 267 l 810 544 l 1138 544 l 1138 464 l 897 464 z "},"⅙":{"ha":1039,"x_min":22,"x_max":1017,"o":"m 168 400 l 168 839 l 22 725 l 22 828 l 181 944 l 265 944 l 265 400 l 168 400 m 135 0 l 738 944 l 851 944 l 249 0 l 135 0 m 800 -14 q 647 38 707 -14 q 586 174 586 90 q 601 256 586 217 q 644 335 615 296 l 797 544 l 911 544 l 739 325 l 742 322 q 788 346 764 339 q 838 353 811 353 q 924 332 883 353 q 991 272 965 311 q 1017 176 1017 233 q 956 40 1017 94 q 800 -14 894 -14 m 801 68 q 886 98 854 68 q 918 175 918 128 q 885 254 918 224 q 799 285 851 285 q 715 255 747 285 q 682 176 682 225 q 716 99 682 129 q 801 68 750 68 z "},"⅚":{"ha":1131,"x_min":33,"x_max":1108,"o":"m 144 864 l 144 750 q 176 756 160 754 q 207 758 192 758 q 349 708 293 758 q 404 576 404 657 q 344 439 404 492 q 181 386 283 386 q 101 397 138 386 q 33 425 65 407 l 33 519 q 101 481 65 494 q 174 468 136 468 q 269 498 233 468 q 306 575 306 528 q 270 651 306 621 q 169 681 235 681 q 111 674 140 681 q 57 654 82 667 l 57 944 l 385 944 l 385 864 l 144 864 m 226 0 l 829 944 l 943 944 l 340 0 l 226 0 m 892 -14 q 738 38 799 -14 q 678 174 678 90 q 692 256 678 217 q 736 335 707 296 l 889 544 l 1003 544 l 831 325 l 833 322 q 879 346 856 339 q 929 353 903 353 q 1016 332 975 353 q 1083 272 1057 311 q 1108 176 1108 233 q 1047 40 1108 94 q 892 -14 986 -14 m 893 68 q 978 98 946 68 q 1010 175 1010 128 q 976 254 1010 224 q 890 285 943 285 q 806 255 839 285 q 774 176 774 225 q 808 99 774 129 q 893 68 842 68 z "},"⅐":{"ha":1086,"x_min":22,"x_max":1086,"o":"m 168 400 l 168 839 l 22 725 l 22 828 l 181 944 l 265 944 l 265 400 l 168 400 m 135 0 l 738 944 l 851 944 l 249 0 l 135 0 m 706 0 l 946 463 l 668 463 l 668 544 l 1086 544 l 808 0 l 706 0 z "},"⅛":{"ha":1118,"x_min":22,"x_max":1090,"o":"m 168 400 l 168 839 l 22 725 l 22 828 l 181 944 l 265 944 l 265 400 l 168 400 m 135 0 l 738 944 l 851 944 l 249 0 l 135 0 m 758 151 q 791 88 758 113 q 875 64 824 64 q 959 88 926 64 q 992 151 992 113 q 959 217 992 192 q 875 243 926 243 q 791 217 824 243 q 758 151 758 192 m 775 401 q 803 340 775 363 q 875 317 832 317 q 948 340 919 317 q 976 401 976 364 q 948 459 976 438 q 875 481 919 481 q 803 460 832 481 q 775 401 775 439 m 660 143 q 692 231 660 194 q 779 281 724 267 l 779 282 q 706 325 733 293 q 679 404 679 357 q 734 516 679 474 q 875 558 789 558 q 1017 517 961 558 q 1072 407 1072 475 q 1045 331 1072 363 q 972 288 1018 299 l 972 286 q 1058 238 1025 274 q 1090 147 1090 203 q 1031 30 1090 74 q 875 -14 971 -14 q 719 29 779 -14 q 660 143 660 72 z "},"⅜":{"ha":1218,"x_min":33,"x_max":1190,"o":"m 33 426 l 33 525 q 106 483 67 497 q 183 468 144 468 q 278 499 247 468 q 310 572 310 529 q 269 649 310 624 q 165 674 228 674 l 119 674 l 256 864 l 33 864 l 33 944 l 411 944 l 261 736 q 365 683 321 726 q 408 568 408 639 q 347 436 408 486 q 189 386 286 386 q 107 396 147 386 q 33 426 67 406 m 235 0 l 838 944 l 951 944 l 349 0 l 235 0 m 858 151 q 891 88 858 113 q 975 64 924 64 q 1059 88 1026 64 q 1092 151 1092 113 q 1059 217 1092 192 q 975 243 1026 243 q 891 217 924 243 q 858 151 858 192 m 875 401 q 903 340 875 363 q 975 317 932 317 q 1048 340 1019 317 q 1076 401 1076 364 q 1048 459 1076 438 q 975 481 1019 481 q 903 460 932 481 q 875 401 875 439 m 760 143 q 792 231 760 194 q 879 281 824 267 l 879 282 q 806 325 833 293 q 779 404 779 357 q 834 516 779 474 q 975 558 889 558 q 1117 517 1061 558 q 1172 407 1172 475 q 1145 331 1172 363 q 1072 288 1118 299 l 1072 286 q 1158 238 1125 274 q 1190 147 1190 203 q 1131 30 1190 74 q 975 -14 1071 -14 q 819 29 879 -14 q 760 143 760 72 z "},"⅝":{"ha":1210,"x_min":33,"x_max":1182,"o":"m 144 864 l 144 750 q 176 756 160 754 q 207 758 192 758 q 349 708 293 758 q 404 576 404 657 q 344 439 404 492 q 181 386 283 386 q 101 397 138 386 q 33 425 65 407 l 33 519 q 101 481 65 494 q 174 468 136 468 q 269 498 233 468 q 306 575 306 528 q 270 651 306 621 q 169 681 235 681 q 111 674 140 681 q 57 654 82 667 l 57 944 l 385 944 l 385 864 l 144 864 m 226 0 l 829 944 l 943 944 l 340 0 l 226 0 m 850 151 q 883 88 850 113 q 967 64 915 64 q 1051 88 1018 64 q 1083 151 1083 113 q 1051 217 1083 192 q 967 243 1018 243 q 883 217 915 243 q 850 151 850 192 m 867 401 q 895 340 867 363 q 967 317 924 317 q 1040 340 1011 317 q 1068 401 1068 364 q 1040 459 1068 438 q 967 481 1011 481 q 895 460 924 481 q 867 401 867 439 m 751 143 q 783 231 751 194 q 871 281 815 267 l 871 282 q 798 325 825 293 q 771 404 771 357 q 826 516 771 474 q 967 558 881 558 q 1108 517 1053 558 q 1164 407 1164 475 q 1137 331 1164 363 q 1064 288 1110 299 l 1064 286 q 1149 238 1117 274 q 1182 147 1182 203 q 1122 30 1182 74 q 967 -14 1063 -14 q 811 29 871 -14 q 751 143 751 72 z "},"⅞":{"ha":1082,"x_min":14,"x_max":1054,"o":"m 51 400 l 292 863 l 14 863 l 14 944 l 432 944 l 154 400 l 51 400 m 99 0 l 701 944 l 815 944 l 213 0 l 99 0 m 722 151 q 755 88 722 113 q 839 64 788 64 q 923 88 890 64 q 956 151 956 113 q 923 217 956 192 q 839 243 890 243 q 755 217 788 243 q 722 151 722 192 m 739 401 q 767 340 739 363 q 839 317 796 317 q 912 340 883 317 q 940 401 940 364 q 912 459 940 438 q 839 481 883 481 q 767 460 796 481 q 739 401 739 439 m 624 143 q 656 231 624 194 q 743 281 688 267 l 743 282 q 670 325 697 293 q 643 404 643 357 q 698 516 643 474 q 839 558 753 558 q 981 517 925 558 q 1036 407 1036 475 q 1009 331 1036 363 q 936 288 982 299 l 936 286 q 1022 238 989 274 q 1054 147 1054 203 q 994 30 1054 74 q 839 -14 935 -14 q 683 29 743 -14 q 624 143 624 72 z "},"⅑":{"ha":1107,"x_min":22,"x_max":1085,"o":"m 168 400 l 168 839 l 22 725 l 22 828 l 181 944 l 265 944 l 265 400 l 168 400 m 135 0 l 738 944 l 851 944 l 249 0 l 135 0 m 757 0 l 928 217 l 925 219 q 839 196 886 196 q 749 216 792 196 q 681 275 707 236 q 654 368 654 314 q 682 466 654 424 q 759 533 710 508 q 872 558 808 558 q 1024 506 964 558 q 1085 369 1085 454 q 1069 286 1085 326 q 1024 206 1054 246 l 872 0 l 757 0 m 871 265 q 953 294 921 265 q 986 369 986 324 q 953 447 986 417 q 867 476 919 476 q 785 447 817 476 q 753 374 753 418 q 786 296 753 326 q 871 265 819 265 z "},"⅒":{"ha":1549,"x_min":22,"x_max":1515,"o":"m 168 400 l 168 839 l 22 725 l 22 828 l 181 944 l 265 944 l 265 400 l 168 400 m 135 0 l 738 944 l 851 944 l 249 0 l 135 0 m 800 0 l 800 439 l 654 325 l 654 428 l 813 544 l 897 544 l 897 0 l 800 0 m 1019 272 q 1052 426 1019 363 q 1142 524 1085 490 q 1268 558 1199 558 q 1394 524 1338 558 q 1483 426 1450 490 q 1515 272 1515 363 q 1483 118 1515 182 q 1394 20 1450 54 q 1268 -14 1338 -14 q 1142 20 1199 -14 q 1052 118 1085 54 q 1019 272 1019 182 m 1122 272 q 1165 122 1122 174 q 1268 69 1207 69 q 1371 122 1329 69 q 1413 272 1413 174 q 1371 423 1413 371 q 1268 475 1329 475 q 1165 423 1207 475 q 1122 272 1122 371 z "},"₀":{"ha":563,"x_min":33,"x_max":529,"o":"m 33 103 q 66 257 33 193 q 156 355 99 321 q 282 389 213 389 q 408 355 351 389 q 497 257 464 321 q 529 103 529 193 q 497 -51 529 13 q 408 -149 464 -115 q 282 -183 351 -183 q 156 -149 213 -183 q 66 -51 99 -115 q 33 103 33 13 m 136 103 q 178 -48 136 4 q 282 -100 221 -100 q 385 -48 343 -100 q 426 103 426 4 q 385 253 426 201 q 282 306 343 306 q 178 253 221 306 q 136 103 136 201 z "},"₁":{"ha":354,"x_min":22,"x_max":265,"o":"m 168 -169 l 168 269 l 22 156 l 22 258 l 181 375 l 265 375 l 265 -169 l 168 -169 z "},"₂":{"ha":442,"x_min":11,"x_max":403,"o":"m 11 -172 l 243 83 q 286 146 274 117 q 299 201 299 175 q 267 274 299 246 q 182 303 235 303 q 103 284 142 303 q 28 229 64 265 l 28 333 q 108 376 65 363 q 194 389 150 389 q 340 342 282 389 q 399 211 399 296 q 378 125 399 165 q 318 42 358 85 l 192 -92 l 403 -92 l 403 -172 l 11 -172 z "},"₃":{"ha":454,"x_min":33,"x_max":411,"o":"m 33 -143 l 33 -44 q 106 -87 67 -72 q 183 -101 144 -101 q 278 -71 247 -101 q 310 3 310 -40 q 269 79 310 54 q 165 104 228 104 l 119 104 l 256 294 l 33 294 l 33 375 l 411 375 l 261 167 q 365 113 321 157 q 408 -1 408 69 q 347 -133 408 -83 q 189 -183 286 -183 q 107 -174 147 -183 q 33 -143 67 -164 z "},"₄":{"ha":475,"x_min":-8,"x_max":447,"o":"m 300 374 l 129 42 l 290 42 l 290 238 l 382 238 l 382 42 l 447 42 l 447 -35 l 382 -35 l 382 -169 l 288 -169 l 288 -35 l -8 -35 l 199 374 l 300 374 z "},"₅":{"ha":446,"x_min":33,"x_max":404,"o":"m 144 294 l 144 181 q 176 187 160 185 q 207 189 192 189 q 349 138 293 189 q 404 7 404 88 q 344 -131 404 -78 q 181 -183 283 -183 q 101 -173 138 -183 q 33 -144 65 -162 l 33 -50 q 101 -88 65 -75 q 174 -101 136 -101 q 269 -72 233 -101 q 306 6 306 -42 q 270 81 306 51 q 169 111 235 111 q 111 104 140 111 q 57 85 82 97 l 57 375 l 385 375 l 385 294 l 144 294 z "},"₆":{"ha":475,"x_min":22,"x_max":453,"o":"m 236 -183 q 83 -131 143 -183 q 22 4 22 -79 q 37 87 22 47 q 81 165 51 126 l 233 375 l 347 375 l 175 156 l 178 153 q 224 176 200 169 q 274 183 247 183 q 360 163 319 183 q 427 103 401 142 q 453 7 453 64 q 392 -129 453 -75 q 236 -183 331 -183 m 238 -101 q 322 -72 290 -101 q 354 6 354 -42 q 321 85 354 54 q 235 115 288 115 q 151 85 183 115 q 118 7 118 56 q 152 -71 118 -40 q 238 -101 186 -101 z "},"₇":{"ha":432,"x_min":14,"x_max":432,"o":"m 51 -169 l 292 293 l 14 293 l 14 375 l 432 375 l 154 -169 l 51 -169 z "},"₈":{"ha":486,"x_min":28,"x_max":458,"o":"m 126 -18 q 159 -81 126 -57 q 243 -106 192 -106 q 327 -81 294 -106 q 360 -18 360 -57 q 327 48 360 22 q 243 74 294 74 q 159 48 192 74 q 126 -18 126 22 m 143 232 q 172 170 143 193 q 243 147 200 147 q 316 171 288 147 q 344 232 344 194 q 316 290 344 268 q 243 311 288 311 q 172 290 200 311 q 143 232 143 269 m 28 -26 q 60 61 28 25 q 147 111 92 97 l 147 113 q 74 156 101 124 q 47 235 47 188 q 102 347 47 304 q 243 389 157 389 q 385 347 329 389 q 440 238 440 306 q 413 161 440 193 q 340 118 386 129 l 340 117 q 426 69 393 104 q 458 -22 458 33 q 399 -140 458 -96 q 243 -183 339 -183 q 88 -140 147 -183 q 28 -26 28 -97 z "},"₉":{"ha":475,"x_min":22,"x_max":453,"o":"m 125 -169 l 296 47 l 293 50 q 207 26 254 26 q 117 47 160 26 q 49 106 75 67 q 22 199 22 144 q 50 297 22 254 q 127 364 78 339 q 240 389 176 389 q 392 337 332 389 q 453 200 453 285 q 438 117 453 157 q 392 36 422 76 l 240 -169 l 125 -169 m 239 96 q 322 125 289 96 q 354 200 354 154 q 321 277 354 247 q 235 307 288 307 q 153 278 185 307 q 121 204 121 249 q 154 126 121 157 q 239 96 188 96 z "},"⁰":{"ha":563,"x_min":33,"x_max":529,"o":"m 33 825 q 66 979 33 915 q 156 1077 99 1043 q 282 1111 213 1111 q 408 1077 351 1111 q 497 979 464 1043 q 529 825 529 915 q 497 671 529 735 q 408 573 464 607 q 282 539 351 539 q 156 573 213 539 q 66 671 99 607 q 33 825 33 735 m 136 825 q 178 674 136 726 q 282 622 221 622 q 385 674 343 622 q 426 825 426 726 q 385 976 426 924 q 282 1028 343 1028 q 178 976 221 1028 q 136 825 136 924 z "},"¹":{"ha":354,"x_min":22,"x_max":265,"o":"m 168 553 l 168 992 l 22 878 l 22 981 l 181 1097 l 265 1097 l 265 553 l 168 553 z "},"²":{"ha":442,"x_min":11,"x_max":403,"o":"m 11 550 l 243 806 q 286 868 274 839 q 299 924 299 897 q 267 997 299 968 q 182 1025 235 1025 q 103 1006 142 1025 q 28 951 64 988 l 28 1056 q 108 1098 65 1085 q 194 1111 150 1111 q 340 1065 282 1111 q 399 933 399 1018 q 378 847 399 888 q 318 764 358 807 l 192 631 l 403 631 l 403 550 l 11 550 z "},"³":{"ha":454,"x_min":33,"x_max":411,"o":"m 33 579 l 33 678 q 106 635 67 650 q 183 621 144 621 q 278 651 247 621 q 310 725 310 682 q 269 801 310 776 q 165 826 228 826 l 119 826 l 256 1017 l 33 1017 l 33 1097 l 411 1097 l 261 889 q 365 835 321 879 q 408 721 408 792 q 347 589 408 639 q 189 539 286 539 q 107 549 147 539 q 33 579 67 558 z "},"⁴":{"ha":475,"x_min":-8,"x_max":447,"o":"m 300 1096 l 129 764 l 290 764 l 290 960 l 382 960 l 382 764 l 447 764 l 447 688 l 382 688 l 382 553 l 288 553 l 288 688 l -8 688 l 199 1096 l 300 1096 z "},"⁵":{"ha":446,"x_min":33,"x_max":404,"o":"m 144 1017 l 144 903 q 176 909 160 907 q 207 911 192 911 q 349 860 293 911 q 404 729 404 810 q 344 592 404 644 q 181 539 283 539 q 101 549 138 539 q 33 578 65 560 l 33 672 q 101 634 65 647 q 174 621 136 621 q 269 651 233 621 q 306 728 306 681 q 270 803 306 774 q 169 833 235 833 q 111 826 140 833 q 57 807 82 819 l 57 1097 l 385 1097 l 385 1017 l 144 1017 z "},"⁶":{"ha":475,"x_min":22,"x_max":453,"o":"m 236 539 q 83 591 143 539 q 22 726 22 643 q 37 809 22 769 q 81 888 51 849 l 233 1097 l 347 1097 l 175 878 l 178 875 q 224 899 200 892 q 274 906 247 906 q 360 885 319 906 q 427 825 401 864 q 453 729 453 786 q 392 593 453 647 q 236 539 331 539 m 238 621 q 322 651 290 621 q 354 728 354 681 q 321 807 354 776 q 235 838 288 838 q 151 808 183 838 q 118 729 118 778 q 152 651 118 682 q 238 621 186 621 z "},"⁷":{"ha":432,"x_min":14,"x_max":432,"o":"m 51 553 l 292 1015 l 14 1015 l 14 1097 l 432 1097 l 154 553 l 51 553 z "},"⁸":{"ha":486,"x_min":28,"x_max":458,"o":"m 126 704 q 159 641 126 665 q 243 617 192 617 q 327 641 294 617 q 360 704 360 665 q 327 770 360 744 q 243 796 294 796 q 159 770 192 796 q 126 704 126 744 m 143 954 q 172 892 143 915 q 243 869 200 869 q 316 893 288 869 q 344 954 344 917 q 316 1012 344 990 q 243 1033 288 1033 q 172 1013 200 1033 q 143 954 143 992 m 28 696 q 60 783 28 747 q 147 833 92 819 l 147 835 q 74 878 101 846 q 47 957 47 910 q 102 1069 47 1026 q 243 1111 157 1111 q 385 1069 329 1111 q 440 960 440 1028 q 413 883 440 915 q 340 840 386 851 l 340 839 q 426 791 393 826 q 458 700 458 756 q 399 583 458 626 q 243 539 339 539 q 88 582 147 539 q 28 696 28 625 z "},"⁹":{"ha":475,"x_min":22,"x_max":453,"o":"m 125 553 l 296 769 l 293 772 q 207 749 254 749 q 117 769 160 749 q 49 828 75 789 q 22 921 22 867 q 50 1019 22 976 q 127 1086 78 1061 q 240 1111 176 1111 q 392 1059 332 1111 q 453 922 453 1007 q 438 839 453 879 q 392 758 422 799 l 240 553 l 125 553 m 239 818 q 322 847 289 818 q 354 922 354 876 q 321 999 354 969 q 235 1029 288 1029 q 153 1000 185 1029 q 121 926 121 971 q 154 849 121 879 q 239 818 188 818 z "}," ":{"ha":347,"x_min":0,"x_max":0,"o":""}," ":{"ha":347,"x_min":0,"x_max":0,"o":""}," ":{"ha":694,"x_min":0,"x_max":0,"o":""}," ":{"ha":1389,"x_min":0,"x_max":0,"o":""}," ":{"ha":939,"x_min":0,"x_max":0,"o":""}," ":{"ha":139,"x_min":0,"x_max":0,"o":""}," ":{"ha":199,"x_min":0,"x_max":0,"o":""},".":{"ha":300,"x_min":78,"x_max":222,"o":"m 78 158 l 222 158 l 222 0 l 78 0 l 78 158 z "},",":{"ha":300,"x_min":64,"x_max":222,"o":"m 64 -181 l 144 0 l 78 0 l 78 158 l 222 158 l 222 0 l 139 -181 l 64 -181 z "},":":{"ha":325,"x_min":90,"x_max":235,"o":"m 90 694 l 235 694 l 235 536 l 90 536 l 90 694 m 90 158 l 235 158 l 235 0 l 90 0 l 90 158 z "},";":{"ha":325,"x_min":76,"x_max":235,"o":"m 76 -181 l 157 0 l 90 0 l 90 158 l 235 158 l 235 0 l 151 -181 l 76 -181 m 90 694 l 235 694 l 235 536 l 90 536 l 90 694 z "},"…":{"ha":994,"x_min":78,"x_max":917,"o":"m 78 158 l 222 158 l 222 0 l 78 0 l 78 158 m 425 158 l 569 158 l 569 0 l 425 0 l 425 158 m 772 158 l 917 158 l 917 0 l 772 0 l 772 158 z "},"!":{"ha":406,"x_min":131,"x_max":275,"o":"m 131 0 l 131 158 l 275 158 l 275 0 l 131 0 m 157 264 l 138 944 l 268 944 l 249 264 l 157 264 z "},"¡":{"ha":406,"x_min":131,"x_max":275,"o":"m 275 694 l 275 536 l 131 536 l 131 694 l 275 694 m 249 431 l 268 -250 l 138 -250 l 157 431 l 249 431 z "},"?":{"ha":647,"x_min":50,"x_max":603,"o":"m 200 264 l 200 421 q 400 528 325 469 q 475 676 475 588 q 417 802 475 757 q 276 847 358 847 q 155 822 211 847 q 50 757 99 797 l 50 885 q 158 937 99 918 q 285 956 217 956 q 451 922 379 956 q 563 826 522 888 q 603 683 603 765 q 567 550 603 611 q 456 438 532 489 q 260 340 381 386 l 306 408 l 306 264 l 200 264 m 181 0 l 181 158 l 325 158 l 325 0 l 181 0 z "},"¿":{"ha":647,"x_min":44,"x_max":597,"o":"m 447 431 l 447 274 q 247 166 322 225 q 172 18 172 107 q 231 -108 172 -62 q 371 -153 289 -153 q 492 -127 436 -153 q 597 -62 549 -101 l 597 -190 q 491 -242 550 -224 q 363 -261 432 -261 q 197 -227 269 -261 q 85 -132 125 -193 q 44 11 44 -71 q 80 145 44 85 q 191 257 115 206 q 388 354 267 308 l 342 286 l 342 431 l 447 431 m 467 694 l 467 536 l 322 536 l 322 694 l 467 694 z "},"·":{"ha":300,"x_min":78,"x_max":222,"o":"m 78 574 l 222 574 l 222 415 l 78 415 l 78 574 z "},"•":{"ha":465,"x_min":125,"x_max":340,"o":"m 125 385 l 125 593 l 340 593 l 340 385 l 125 385 z "},"*":{"ha":658,"x_min":65,"x_max":593,"o":"m 285 1000 l 374 1000 l 363 722 l 374 444 l 285 444 l 296 722 l 285 1000 m 549 900 l 593 822 l 346 693 l 111 544 l 67 622 l 313 751 l 549 900 m 65 822 l 110 900 l 346 751 l 592 622 l 547 544 l 313 693 l 65 822 z "},"#":{"ha":917,"x_min":28,"x_max":889,"o":"m 165 0 l 318 944 l 422 944 l 271 0 l 165 0 m 493 0 l 644 944 l 751 944 l 599 0 l 493 0 m 76 592 l 76 686 l 889 686 l 889 592 l 76 592 m 28 258 l 28 353 l 847 353 l 847 258 l 28 258 z "},"/":{"ha":618,"x_min":42,"x_max":576,"o":"m 42 -194 l 457 1028 l 576 1028 l 161 -194 l 42 -194 z "},"\\":{"ha":618,"x_min":42,"x_max":576,"o":"m 576 -194 l 457 -194 l 42 1028 l 161 1028 l 576 -194 z "},"-":{"ha":611,"x_min":78,"x_max":533,"o":"m 78 336 l 78 442 l 533 442 l 533 336 l 78 336 z "},"–":{"ha":850,"x_min":78,"x_max":772,"o":"m 78 336 l 78 442 l 772 442 l 772 336 l 78 336 z "},"—":{"ha":1406,"x_min":78,"x_max":1328,"o":"m 78 336 l 78 442 l 1328 442 l 1328 336 l 78 336 z "},"_":{"ha":722,"x_min":0,"x_max":722,"o":"m 0 -247 l 0 -142 l 722 -142 l 722 -247 l 0 -247 z "},"(":{"ha":479,"x_min":92,"x_max":463,"o":"m 326 -194 q 149 91 206 -67 q 92 417 92 249 q 149 743 92 586 q 326 1028 206 900 l 463 1028 q 278 743 339 900 q 217 417 217 586 q 278 91 217 249 q 463 -194 339 -67 l 326 -194 z "},")":{"ha":479,"x_min":17,"x_max":388,"o":"m 153 -194 l 17 -194 q 201 91 140 -67 q 263 417 263 249 q 201 743 263 586 q 17 1028 140 900 l 153 1028 q 331 743 274 900 q 388 417 388 586 q 331 91 388 249 q 153 -194 274 -67 z "},"{":{"ha":551,"x_min":56,"x_max":524,"o":"m 435 -200 q 258 -131 321 -200 q 196 56 196 -62 l 196 214 q 165 326 196 282 q 56 375 135 369 l 56 458 q 165 508 135 465 q 196 619 196 551 l 196 778 q 258 965 196 897 q 435 1033 321 1033 q 524 1019 483 1033 l 524 929 q 460 938 493 938 q 353 894 388 938 q 318 778 318 851 l 318 632 q 285 491 318 546 q 178 418 253 436 l 178 415 q 285 342 253 397 q 318 201 318 288 l 318 56 q 353 -61 318 -18 q 460 -104 388 -104 q 524 -96 493 -104 l 524 -186 q 435 -200 483 -200 z "},"}":{"ha":551,"x_min":28,"x_max":496,"o":"m 117 -200 q 28 -186 68 -200 l 28 -96 q 92 -104 60 -104 q 199 -61 165 -104 q 233 56 233 -18 l 233 201 q 266 342 233 288 q 374 415 299 397 l 374 418 q 266 491 299 436 q 233 632 233 546 l 233 778 q 199 894 233 851 q 92 938 165 938 q 28 929 60 938 l 28 1019 q 117 1033 68 1033 q 294 965 232 1033 q 356 778 356 897 l 356 619 q 386 508 356 551 q 496 458 417 465 l 496 375 q 386 326 417 369 q 356 214 356 282 l 356 56 q 294 -131 356 -62 q 117 -200 232 -200 z "},"[":{"ha":494,"x_min":106,"x_max":467,"o":"m 106 -194 l 106 1028 l 467 1028 l 467 933 l 228 933 l 228 -100 l 467 -100 l 467 -194 l 106 -194 z "},"]":{"ha":494,"x_min":28,"x_max":389,"o":"m 389 -194 l 28 -194 l 28 -100 l 267 -100 l 267 933 l 28 933 l 28 1028 l 389 1028 l 389 -194 z "},"‚":{"ha":300,"x_min":64,"x_max":222,"o":"m 64 -181 l 144 0 l 78 0 l 78 158 l 222 158 l 222 0 l 139 -181 l 64 -181 z "},"„":{"ha":511,"x_min":64,"x_max":433,"o":"m 275 -181 l 356 0 l 289 0 l 289 158 l 433 158 l 433 0 l 350 -181 l 275 -181 m 64 -181 l 144 0 l 78 0 l 78 158 l 222 158 l 222 0 l 139 -181 l 64 -181 z "},"“":{"ha":458,"x_min":44,"x_max":414,"o":"m 203 979 l 122 799 l 189 799 l 189 640 l 44 640 l 44 799 l 128 979 l 203 979 m 414 979 l 333 799 l 400 799 l 400 640 l 256 640 l 256 799 l 339 979 l 414 979 z "},"”":{"ha":458,"x_min":44,"x_max":414,"o":"m 256 633 l 336 814 l 269 814 l 269 972 l 414 972 l 414 814 l 331 633 l 256 633 m 44 633 l 125 814 l 58 814 l 58 972 l 203 972 l 203 814 l 119 633 l 44 633 z "},"‘":{"ha":247,"x_min":44,"x_max":203,"o":"m 203 979 l 122 799 l 189 799 l 189 640 l 44 640 l 44 799 l 128 979 l 203 979 z "},"’":{"ha":247,"x_min":44,"x_max":203,"o":"m 44 633 l 125 814 l 58 814 l 58 972 l 203 972 l 203 814 l 119 633 l 44 633 z "},"«":{"ha":638,"x_min":42,"x_max":601,"o":"m 42 403 l 231 653 l 351 653 l 176 403 l 351 153 l 231 153 l 42 403 m 292 403 l 481 653 l 601 653 l 426 403 l 601 153 l 481 153 l 292 403 z "},"»":{"ha":638,"x_min":36,"x_max":596,"o":"m 596 403 l 407 153 l 286 153 l 461 403 l 286 653 l 407 653 l 596 403 m 346 403 l 157 153 l 36 153 l 211 403 l 36 653 l 157 653 l 346 403 z "},"‹":{"ha":388,"x_min":42,"x_max":351,"o":"m 42 403 l 231 653 l 351 653 l 176 403 l 351 153 l 231 153 l 42 403 z "},"›":{"ha":388,"x_min":36,"x_max":346,"o":"m 346 403 l 157 153 l 36 153 l 211 403 l 36 653 l 157 653 l 346 403 z "},"\"":{"ha":432,"x_min":56,"x_max":376,"o":"m 65 633 l 56 972 l 169 972 l 160 633 l 65 633 m 272 633 l 263 972 l 376 972 l 367 633 l 272 633 z "},"'":{"ha":225,"x_min":56,"x_max":169,"o":"m 65 633 l 56 972 l 169 972 l 160 633 l 65 633 z "},"⚪":{"ha":822,"x_min":50,"x_max":772,"o":"m 411 -14 q 226 33 308 -14 q 97 163 144 81 q 50 347 50 244 q 97 532 50 450 q 226 661 144 614 q 411 708 308 708 q 596 661 514 708 q 725 532 678 614 q 772 347 772 450 q 725 163 772 244 q 596 33 678 81 q 411 -14 514 -14 m 411 83 q 542 118 485 83 q 631 213 599 153 q 664 347 664 272 q 631 483 664 424 q 542 576 599 542 q 411 611 485 611 q 281 576 339 611 q 190 483 224 542 q 157 347 157 424 q 190 213 157 272 q 281 118 224 153 q 411 83 339 83 z "},"⚫":{"ha":822,"x_min":50,"x_max":772,"o":"m 411 -14 q 226 33 308 -14 q 97 163 144 81 q 50 347 50 244 q 97 532 50 450 q 226 661 144 614 q 411 708 308 708 q 596 661 514 708 q 725 532 678 614 q 772 347 772 450 q 725 163 772 244 q 596 33 678 81 q 411 -14 514 -14 z "},"@":{"ha":1321,"x_min":67,"x_max":1254,"o":"m 658 -214 q 350 -144 483 -214 q 142 53 217 -74 q 67 347 67 179 q 113 589 67 476 q 241 786 158 701 q 436 919 324 871 q 683 967 549 967 q 905 930 801 967 q 1087 825 1008 893 q 1210 664 1165 757 q 1254 457 1254 571 q 1207 258 1254 344 q 1081 123 1160 172 q 906 74 1001 74 l 796 74 l 811 193 l 808 193 q 723 99 776 131 q 600 68 669 68 q 471 101 528 68 q 382 195 414 135 q 350 336 350 256 q 369 456 350 396 q 426 564 389 515 q 518 642 464 613 q 643 671 572 671 q 772 635 717 671 q 853 526 826 599 l 856 526 l 871 657 l 982 657 l 906 113 l 863 163 l 911 163 q 1031 199 976 163 q 1117 303 1085 236 q 1149 457 1149 369 q 1112 628 1149 551 q 1010 762 1075 706 q 862 848 946 818 q 683 878 778 878 q 480 838 574 878 q 317 725 386 797 q 210 558 249 653 q 172 351 172 463 q 234 99 172 207 q 406 -67 296 -8 q 663 -125 517 -125 q 780 -115 721 -125 q 899 -83 839 -106 l 899 -178 q 778 -205 840 -196 q 658 -214 717 -214 m 632 163 q 723 185 686 163 q 783 242 760 207 q 817 318 807 278 q 828 393 828 358 q 781 524 828 471 q 658 576 735 576 q 569 552 606 576 q 510 490 532 528 q 478 408 488 451 q 469 328 468 365 q 515 208 472 254 q 632 163 558 163 z "},"&":{"ha":963,"x_min":83,"x_max":929,"o":"m 376 -17 q 222 18 288 -17 q 119 112 156 53 q 83 247 83 171 q 143 414 83 349 q 300 522 203 479 l 358 549 q 482 636 442 597 q 522 738 522 675 q 483 831 522 799 q 394 864 443 864 q 306 831 346 864 q 265 740 265 799 q 292 651 265 694 q 378 547 318 607 l 929 0 l 764 0 l 278 485 q 175 615 203 558 q 147 729 147 671 q 181 852 147 800 q 272 933 214 904 q 400 961 329 961 q 521 935 467 961 q 608 861 575 910 q 640 746 640 813 q 587 603 640 663 q 414 486 533 543 l 357 460 q 251 375 297 425 q 206 254 206 325 q 228 169 206 208 q 292 107 251 131 q 386 83 333 83 q 506 122 454 83 q 589 213 558 160 l 607 232 l 764 457 l 907 457 l 676 156 q 551 29 625 75 q 376 -17 476 -17 z "},"¶":{"ha":742,"x_min":64,"x_max":611,"o":"m 508 0 l 508 856 l 397 856 l 397 0 l 294 0 l 294 575 l 315 515 q 133 572 201 515 q 64 731 64 629 q 133 889 64 833 q 315 944 201 944 l 611 944 l 611 0 l 508 0 z "},"§":{"ha":772,"x_min":58,"x_max":714,"o":"m 521 208 l 546 229 l 546 143 l 465 143 l 465 251 q 558 294 525 263 q 592 374 592 325 q 562 451 592 419 q 478 501 532 482 l 311 564 q 228 607 267 581 q 165 673 189 633 q 142 765 142 713 q 174 878 142 828 q 268 957 207 928 q 414 986 329 986 q 503 976 460 986 q 585 944 547 967 l 585 836 q 497 874 540 863 q 413 886 453 886 q 302 856 344 886 q 260 775 260 826 q 288 708 260 735 q 367 661 315 681 l 533 599 q 663 523 611 569 q 714 399 714 476 q 686 301 714 340 q 614 240 658 263 q 521 208 569 217 m 251 611 l 226 590 l 226 676 l 307 676 l 307 568 q 214 526 247 557 q 181 446 181 494 q 210 369 181 400 q 294 318 240 338 l 461 256 q 544 213 506 239 q 607 147 583 186 q 631 54 631 108 q 598 -58 631 -8 q 504 -137 565 -108 q 358 -167 443 -167 q 269 -157 313 -167 q 188 -125 225 -147 l 188 -17 q 276 -55 232 -43 q 360 -67 319 -67 q 471 -37 429 -67 q 513 44 513 -7 q 485 112 513 85 q 406 158 457 139 l 239 221 q 110 297 163 250 q 58 421 58 344 q 86 519 58 479 q 158 581 114 558 q 251 611 203 603 z "},"©":{"ha":1128,"x_min":69,"x_max":1058,"o":"m 564 -22 q 368 15 458 -22 q 211 119 278 53 q 107 276 144 186 q 69 472 69 367 q 107 668 69 578 q 211 825 144 758 q 368 929 278 892 q 564 967 458 967 q 760 929 669 967 q 917 825 850 892 q 1021 668 983 758 q 1058 472 1058 578 q 1021 276 1058 367 q 917 119 983 186 q 760 15 850 53 q 564 -22 669 -22 m 564 64 q 772 117 681 64 q 915 263 863 171 q 967 472 967 356 q 915 682 967 590 q 772 827 863 774 q 564 881 681 881 q 357 827 449 881 q 213 682 265 774 q 161 472 161 590 q 213 263 161 356 q 357 117 265 171 q 564 64 449 64 m 744 643 q 682 670 714 663 q 618 678 650 678 q 465 621 524 678 q 406 475 406 564 q 433 368 406 415 q 509 294 461 321 q 618 267 557 267 q 681 275 649 267 q 744 301 714 283 l 744 215 q 677 190 711 197 q 608 183 643 183 q 451 220 519 183 q 342 322 382 257 q 303 469 303 386 q 343 620 303 554 q 452 724 383 686 q 608 761 521 761 q 677 754 643 761 q 744 729 711 747 l 744 643 z "},"®":{"ha":792,"x_min":35,"x_max":757,"o":"m 375 667 q 442 681 411 667 q 472 729 472 694 q 451 774 472 757 q 399 790 431 790 l 342 790 l 342 471 l 269 471 l 269 849 l 404 849 q 506 817 467 849 q 546 733 546 786 q 505 651 546 681 q 397 621 464 621 l 428 658 l 561 471 l 478 471 l 349 667 l 375 667 m 396 292 q 211 339 293 292 q 82 468 129 386 q 35 653 35 550 q 82 838 35 757 q 211 967 129 919 q 396 1014 293 1014 q 581 967 500 1014 q 710 838 663 919 q 757 653 757 757 q 710 468 757 550 q 581 339 663 386 q 396 292 500 292 m 396 361 q 544 399 479 361 q 645 503 608 438 q 682 653 682 569 q 645 803 682 738 q 544 906 608 868 q 396 944 479 944 q 249 906 314 944 q 147 803 183 868 q 110 653 110 738 q 147 503 110 569 q 249 399 183 438 q 396 361 314 361 z "},"™":{"ha":1158,"x_min":56,"x_max":1075,"o":"m 56 972 l 461 972 l 461 894 l 304 894 l 304 472 l 213 472 l 213 894 l 56 894 l 56 972 m 526 972 l 682 972 l 800 576 l 803 576 l 921 972 l 1075 972 l 1075 472 l 988 472 l 990 915 l 988 915 l 854 472 l 746 472 l 613 915 l 610 915 l 613 472 l 526 472 l 526 972 z "},"°":{"ha":535,"x_min":50,"x_max":485,"o":"m 267 565 q 156 592 204 565 q 78 667 107 619 q 50 776 50 715 q 78 885 50 838 q 156 961 107 933 q 267 989 204 989 q 378 961 329 989 q 456 885 428 933 q 485 776 485 838 q 456 667 485 715 q 379 592 428 619 q 267 565 331 565 m 267 657 q 351 691 318 657 q 385 776 385 725 q 351 863 385 829 q 267 897 318 897 q 183 863 215 897 q 150 776 150 829 q 183 691 150 725 q 267 657 215 657 z "},"′":{"ha":301,"x_min":42,"x_max":260,"o":"m 42 633 l 143 972 l 260 972 l 138 633 l 42 633 z "},"″":{"ha":513,"x_min":42,"x_max":471,"o":"m 42 633 l 143 972 l 260 972 l 138 633 l 42 633 m 253 633 l 354 972 l 471 972 l 349 633 l 253 633 z "},"|":{"ha":406,"x_min":147,"x_max":258,"o":"m 147 1028 l 258 1028 l 258 -194 l 147 -194 l 147 1028 z "},"¦":{"ha":406,"x_min":147,"x_max":258,"o":"m 147 1028 l 258 1028 l 258 496 l 147 496 l 147 1028 m 147 338 l 258 338 l 258 -194 l 147 -194 l 147 338 z "},"†":{"ha":789,"x_min":75,"x_max":714,"o":"m 338 -139 l 338 594 l 75 594 l 75 694 l 338 694 l 338 944 l 451 944 l 451 694 l 714 694 l 714 594 l 451 594 l 451 -139 l 338 -139 z "},"‡":{"ha":789,"x_min":75,"x_max":714,"o":"m 338 -139 l 338 111 l 75 111 l 75 211 l 338 211 l 338 594 l 75 594 l 75 694 l 338 694 l 338 944 l 451 944 l 451 694 l 714 694 l 714 594 l 451 594 l 451 211 l 714 211 l 714 111 l 451 111 l 451 -139 l 338 -139 z "},"⬥":{"ha":833,"x_min":49,"x_max":785,"o":"m 417 715 l 785 347 l 417 -21 l 49 347 l 417 715 z "},"⬦":{"ha":833,"x_min":49,"x_max":785,"o":"m 417 -21 l 49 347 l 417 715 l 785 347 l 417 -21 m 417 104 l 658 347 l 417 590 l 174 347 l 417 104 z "},"¢":{"ha":665,"x_min":63,"x_max":596,"o":"m 350 -125 l 350 43 l 351 58 l 351 654 l 350 667 l 350 819 l 456 819 l 456 667 l 454 654 l 454 58 l 456 43 l 456 -125 l 350 -125 m 596 572 q 526 600 561 592 q 456 608 492 608 q 317 575 378 608 q 224 483 257 542 q 190 350 190 425 q 225 215 190 275 q 319 121 260 156 q 456 86 379 86 q 526 94 490 86 q 596 122 561 103 l 596 17 q 522 -7 560 0 q 443 -14 483 -14 q 247 32 333 -14 q 112 158 161 78 q 63 344 63 239 q 113 532 63 450 q 249 661 163 614 q 443 708 335 708 q 520 701 482 708 q 596 678 558 694 l 596 572 z "},"¤":{"ha":861,"x_min":74,"x_max":788,"o":"m 431 167 q 276 208 347 167 q 163 320 206 250 q 119 472 119 390 q 163 625 119 556 q 276 736 206 694 q 431 778 347 778 q 585 736 515 778 q 699 625 656 694 q 742 472 742 556 q 699 320 742 390 q 585 208 656 250 q 431 167 515 167 m 140 122 l 74 189 l 219 329 l 281 268 l 140 122 m 431 258 q 538 287 490 258 q 614 364 586 315 q 642 472 642 413 q 614 581 642 533 q 538 658 586 629 q 431 686 490 686 q 323 658 371 686 q 247 581 275 629 q 219 472 219 533 q 247 364 219 413 q 323 287 275 315 q 431 258 371 258 m 219 615 l 74 756 l 140 822 l 281 676 l 219 615 m 721 122 l 581 268 l 642 329 l 788 189 l 721 122 m 642 615 l 581 676 l 721 822 l 788 756 l 642 615 z "},"$":{"ha":781,"x_min":92,"x_max":689,"o":"m 367 -8 q 222 15 286 -8 q 107 69 157 39 l 107 204 q 227 132 160 161 q 371 103 294 103 q 516 146 468 103 q 564 256 564 189 q 532 349 564 313 q 436 406 500 386 l 308 446 q 190 502 239 468 q 117 583 142 536 q 92 690 92 631 q 133 829 92 771 q 247 920 174 888 q 415 953 321 953 q 548 933 486 953 q 661 882 610 914 l 661 753 q 543 819 607 796 q 410 842 479 842 q 265 802 314 842 q 217 701 217 763 q 250 615 217 649 q 344 561 283 581 l 472 519 q 591 461 543 497 q 664 376 639 425 q 689 263 689 326 q 648 119 689 181 q 535 25 607 58 q 367 -8 463 -8 m 340 -146 l 340 28 l 342 56 l 342 889 l 340 917 l 340 1090 l 435 1090 l 435 917 l 433 889 l 433 56 l 435 28 l 435 -146 l 340 -146 z "},"€":{"ha":863,"x_min":56,"x_max":779,"o":"m 56 415 l 633 415 l 611 326 l 56 326 l 56 415 m 56 618 l 675 618 l 653 529 l 56 529 l 56 618 m 779 824 q 642 847 717 847 q 419 771 507 847 q 311 561 331 694 q 306 473 306 521 q 311 385 306 425 q 420 175 331 253 q 644 97 510 97 q 715 103 681 97 q 779 121 749 110 l 779 10 q 713 -6 749 0 q 632 -11 676 -11 q 413 36 510 -11 q 254 172 315 83 q 179 385 193 261 q 174 474 174 431 q 179 561 174 518 q 256 773 194 685 q 415 908 318 861 q 633 956 513 956 q 714 950 678 956 q 779 936 750 944 l 779 824 z "},"£":{"ha":789,"x_min":56,"x_max":733,"o":"m 83 0 l 192 661 q 250 818 207 751 q 365 922 293 885 q 535 958 438 958 q 632 947 588 958 q 711 917 676 936 l 711 794 q 628 836 674 822 q 535 850 583 850 q 385 794 440 850 q 314 635 331 739 l 210 0 l 161 103 l 733 103 l 733 0 l 83 0 m 56 422 l 56 519 l 651 519 l 651 422 l 56 422 z "},"¥":{"ha":814,"x_min":36,"x_max":778,"o":"m 75 399 l 75 488 l 739 488 l 739 399 l 75 399 m 75 210 l 75 299 l 739 299 l 739 210 l 75 210 m 296 453 l 36 944 l 179 944 l 408 488 l 411 488 l 639 944 l 778 944 l 518 453 l 296 453 m 471 438 l 471 0 l 343 0 l 343 438 l 471 438 z "},"≧":{"ha":833,"x_min":111,"x_max":722,"o":"m 111 339 l 111 451 l 701 674 l 701 610 l 111 832 l 111 944 l 722 708 l 722 575 l 111 339 m 111 0 l 111 103 l 722 103 l 722 0 l 111 0 m 111 186 l 111 289 l 722 289 l 722 186 l 111 186 z "},"≦":{"ha":833,"x_min":111,"x_max":722,"o":"m 722 339 l 111 575 l 111 708 l 722 944 l 722 832 l 132 610 l 132 674 l 722 451 l 722 339 m 722 0 l 111 0 l 111 103 l 722 103 l 722 0 m 722 186 l 111 186 l 111 289 l 722 289 l 722 186 z "},"+":{"ha":833,"x_min":111,"x_max":722,"o":"m 111 406 l 111 511 l 722 511 l 722 406 l 111 406 m 361 760 l 472 760 l 472 157 l 361 157 l 361 760 z "},"−":{"ha":833,"x_min":111,"x_max":722,"o":"m 111 406 l 111 511 l 722 511 l 722 406 l 111 406 z "},"×":{"ha":833,"x_min":129,"x_max":704,"o":"m 204 171 l 129 246 l 629 746 l 704 671 l 204 171 m 629 171 l 129 671 l 204 746 l 704 246 l 629 171 z "},"÷":{"ha":833,"x_min":111,"x_max":722,"o":"m 347 139 l 347 278 l 486 278 l 486 139 l 347 139 m 347 639 l 347 778 l 486 778 l 486 639 l 347 639 m 111 406 l 111 511 l 722 511 l 722 406 l 111 406 z "},"=":{"ha":833,"x_min":118,"x_max":715,"o":"m 118 532 l 118 638 l 715 638 l 715 532 l 118 532 m 118 251 l 118 357 l 715 357 l 715 251 l 118 251 z "},"≠":{"ha":833,"x_min":118,"x_max":715,"o":"m 208 63 l 529 826 l 625 826 l 304 63 l 208 63 m 118 532 l 118 638 l 715 638 l 715 532 l 118 532 m 118 251 l 118 357 l 715 357 l 715 251 l 118 251 z "},">":{"ha":833,"x_min":111,"x_max":722,"o":"m 111 690 l 111 815 l 722 517 l 722 372 l 111 74 l 111 199 l 701 482 l 701 407 l 111 690 z "},"<":{"ha":833,"x_min":111,"x_max":722,"o":"m 722 690 l 132 407 l 132 482 l 722 199 l 722 74 l 111 372 l 111 517 l 722 815 l 722 690 z "},"≥":{"ha":833,"x_min":111,"x_max":722,"o":"m 111 0 l 111 106 l 722 106 l 722 0 l 111 0 m 111 708 l 111 828 l 722 569 l 722 431 l 111 172 l 111 292 l 701 535 l 701 465 l 111 708 z "},"≤":{"ha":833,"x_min":111,"x_max":722,"o":"m 722 0 l 111 0 l 111 106 l 722 106 l 722 0 m 722 708 l 132 465 l 132 535 l 722 292 l 722 172 l 111 431 l 111 569 l 722 828 l 722 708 z "},"±":{"ha":833,"x_min":111,"x_max":722,"o":"m 361 208 l 361 792 l 472 792 l 472 208 l 361 208 m 111 0 l 111 106 l 722 106 l 722 0 l 111 0 m 111 447 l 111 553 l 722 553 l 722 447 l 111 447 z "},"≈":{"ha":833,"x_min":108,"x_max":725,"o":"m 554 210 q 464 227 501 210 q 395 268 426 244 q 333 309 364 292 q 264 326 303 326 q 181 301 221 326 q 108 244 140 276 l 108 363 q 178 414 136 390 q 279 438 219 438 q 369 420 332 438 q 437 379 406 403 q 499 338 468 356 q 569 321 531 321 q 653 346 614 321 q 725 403 692 371 l 725 285 q 656 233 699 257 q 554 210 614 210 m 554 488 q 464 505 501 488 q 395 546 426 522 q 333 587 364 569 q 264 604 303 604 q 181 579 221 604 q 108 522 140 554 l 108 640 q 178 692 136 668 q 279 715 219 715 q 369 698 332 715 q 437 657 406 681 q 499 616 468 633 q 569 599 531 599 q 653 624 614 599 q 725 681 692 649 l 725 563 q 656 511 699 535 q 554 488 614 488 z "},"~":{"ha":833,"x_min":108,"x_max":725,"o":"m 554 349 q 464 366 501 349 q 395 407 426 383 q 333 448 364 431 q 264 465 303 465 q 181 440 221 465 q 108 383 140 415 l 108 501 q 178 553 136 529 q 279 576 219 576 q 369 559 332 576 q 437 518 406 542 q 499 477 468 494 q 569 460 531 460 q 653 485 614 460 q 725 542 692 510 l 725 424 q 656 372 699 396 q 554 349 614 349 z "},"¬":{"ha":833,"x_min":111,"x_max":708,"o":"m 111 461 l 111 567 l 708 567 l 708 267 l 597 267 l 597 461 l 111 461 z "},"^":{"ha":833,"x_min":117,"x_max":717,"o":"m 351 972 l 482 972 l 717 576 l 592 576 l 382 938 l 451 938 l 242 576 l 117 576 l 351 972 z "},"∞":{"ha":1140,"x_min":83,"x_max":1057,"o":"m 824 240 q 716 264 764 240 q 624 330 668 288 q 529 431 579 372 q 456 513 489 479 q 391 565 424 547 q 317 583 358 583 q 226 550 261 583 q 192 463 192 517 q 227 370 192 407 q 318 333 263 333 q 425 376 376 333 q 538 493 474 418 q 632 597 589 553 q 722 665 675 640 q 828 690 768 690 q 947 661 894 690 q 1028 581 999 632 q 1057 465 1057 531 q 1026 350 1057 401 q 944 269 996 299 q 824 240 892 240 m 313 240 q 194 269 246 240 q 113 350 143 299 q 83 465 83 401 q 114 581 83 531 q 197 661 144 632 q 317 690 250 690 q 424 667 376 690 q 517 601 472 643 q 611 500 561 558 q 685 418 653 453 q 751 365 718 383 q 824 347 783 347 q 914 381 879 347 q 949 468 949 414 q 913 560 949 524 q 822 597 878 597 q 716 555 764 597 q 603 438 668 513 q 509 335 553 379 q 419 265 465 290 q 313 240 374 240 z "},"∅":{"ha":1111,"x_min":67,"x_max":1044,"o":"m 956 974 l 1017 917 l 129 -29 l 68 28 l 956 974 m 556 -17 q 363 20 451 -17 q 207 124 274 57 q 103 279 140 190 q 67 472 67 368 q 103 665 67 576 q 207 821 140 754 q 363 924 274 888 q 556 961 451 961 q 749 924 660 961 q 904 821 838 888 q 1008 665 971 754 q 1044 472 1044 576 q 1008 279 1044 368 q 904 124 971 190 q 749 20 838 57 q 556 -17 660 -17 m 556 67 q 757 119 668 67 q 897 265 846 172 q 949 472 949 357 q 897 681 949 589 q 757 825 846 772 q 556 878 668 878 q 353 825 443 878 q 213 681 264 772 q 161 472 161 589 q 213 265 161 357 q 353 119 264 172 q 556 67 443 67 z "},"∫":{"ha":547,"x_min":0,"x_max":547,"o":"m 481 986 q 547 978 518 986 l 547 885 q 493 890 519 890 q 409 851 438 890 q 372 731 381 811 l 303 75 q 265 -61 294 -4 q 187 -149 236 -118 q 67 -181 138 -181 q 0 -172 29 -181 l 0 -79 q 54 -85 28 -85 q 138 -45 110 -85 q 175 75 167 -6 l 244 731 q 282 867 253 810 q 361 955 311 924 q 481 986 411 986 z "},"Ω":{"ha":1133,"x_min":81,"x_max":1053,"o":"m 81 0 l 81 103 l 288 103 l 288 106 q 132 266 183 169 q 81 483 81 363 q 117 676 81 588 q 218 829 153 764 q 372 931 283 894 q 567 967 461 967 q 761 931 672 967 q 915 831 850 896 q 1017 678 981 765 q 1053 486 1053 590 q 1001 267 1053 365 q 846 106 950 169 l 846 103 l 1053 103 l 1053 0 l 663 0 l 663 100 q 849 241 782 138 q 917 481 917 344 q 872 678 917 593 q 749 811 828 764 q 567 858 669 858 q 385 812 464 858 q 261 681 306 765 q 217 483 217 596 q 247 315 217 393 q 335 181 278 236 q 471 100 392 125 l 471 0 l 81 0 z "},"∆":{"ha":964,"x_min":42,"x_max":922,"o":"m 42 0 l 407 944 l 557 944 l 922 0 l 42 0 m 211 103 l 753 103 l 483 822 l 481 822 l 211 103 z "},"∏":{"ha":822,"x_min":50,"x_max":772,"o":"m 167 -139 l 167 836 l 50 836 l 50 944 l 772 944 l 772 836 l 656 836 l 656 -139 l 531 -139 l 531 836 l 292 836 l 292 -139 l 167 -139 z "},"∑":{"ha":732,"x_min":36,"x_max":676,"o":"m 36 -139 l 364 403 l 36 944 l 676 944 l 676 836 l 167 836 l 188 931 l 507 408 l 188 -114 l 167 -28 l 676 -28 l 676 -139 l 36 -139 z "},"√":{"ha":800,"x_min":35,"x_max":786,"o":"m 282 78 l 500 944 l 786 944 l 786 850 l 592 850 l 374 0 l 186 0 l 35 514 l 157 514 l 276 78 l 282 78 z "},"µ":{"ha":794,"x_min":111,"x_max":689,"o":"m 407 -14 q 313 0 356 -14 q 239 44 271 14 l 236 44 l 236 -250 l 111 -250 l 111 694 l 236 694 l 236 269 q 278 135 236 188 q 400 83 319 83 q 524 135 483 83 q 564 269 564 186 l 564 694 l 689 694 l 689 269 q 654 119 689 182 q 556 21 619 56 q 407 -14 493 -14 z "},"∂":{"ha":840,"x_min":63,"x_max":774,"o":"m 371 -17 q 213 19 283 -17 q 103 122 143 56 q 63 276 63 188 q 108 446 63 369 q 232 568 153 522 q 413 614 311 614 q 539 592 481 614 q 644 529 597 571 l 667 542 l 667 401 q 549 488 617 460 q 417 517 482 517 q 249 451 308 517 q 190 288 190 385 q 248 137 190 188 q 383 86 306 86 q 521 133 461 86 q 615 268 581 181 q 649 476 649 356 q 604 696 649 604 q 465 829 560 788 q 218 847 371 871 l 218 944 q 465 940 360 968 q 638 844 569 911 q 740 681 706 776 q 774 475 774 586 q 723 218 774 329 q 581 45 672 107 q 371 -17 490 -17 z "},"%":{"ha":1250,"x_min":76,"x_max":1174,"o":"m 935 -14 q 815 16 868 -14 q 729 100 761 46 q 697 225 697 154 q 729 351 697 297 q 815 435 761 404 q 935 465 868 465 q 1056 435 1003 465 q 1142 351 1110 404 q 1174 225 1174 297 q 1142 100 1174 154 q 1056 16 1110 46 q 935 -14 1003 -14 m 935 78 q 1031 117 993 78 q 1068 225 1068 157 q 1031 333 1068 293 q 935 374 993 374 q 840 333 876 374 q 803 225 803 293 q 840 117 803 157 q 935 78 876 78 m 314 479 q 194 509 247 479 q 108 593 140 539 q 76 718 76 647 q 108 844 76 790 q 194 928 140 897 q 314 958 247 958 q 435 928 382 958 q 521 844 489 897 q 553 718 553 790 q 521 593 553 647 q 435 509 489 539 q 314 479 382 479 m 314 571 q 410 610 372 571 q 447 718 447 650 q 410 826 447 786 q 314 867 372 867 q 219 826 256 867 q 182 718 182 786 q 219 610 182 650 q 314 571 256 571 m 267 0 l 869 944 l 983 944 l 381 0 l 267 0 z "},"‰":{"ha":1794,"x_min":76,"x_max":1718,"o":"m 1479 -14 q 1359 16 1413 -14 q 1274 100 1306 46 q 1242 225 1242 154 q 1274 351 1242 297 q 1359 435 1306 404 q 1479 465 1413 465 q 1601 435 1547 465 q 1686 351 1654 404 q 1718 225 1718 297 q 1686 100 1718 154 q 1601 16 1654 46 q 1479 -14 1547 -14 m 1479 78 q 1575 117 1538 78 q 1613 225 1613 157 q 1575 333 1613 293 q 1479 374 1538 374 q 1384 333 1421 374 q 1347 225 1347 293 q 1384 117 1347 157 q 1479 78 1421 78 m 935 -14 q 815 16 868 -14 q 729 100 761 46 q 697 225 697 154 q 729 351 697 297 q 815 435 761 404 q 935 465 868 465 q 1056 435 1003 465 q 1142 351 1110 404 q 1174 225 1174 297 q 1142 100 1174 154 q 1056 16 1110 46 q 935 -14 1003 -14 m 935 78 q 1031 117 993 78 q 1068 225 1068 157 q 1031 333 1068 293 q 935 374 993 374 q 840 333 876 374 q 803 225 803 293 q 840 117 803 157 q 935 78 876 78 m 314 479 q 194 509 247 479 q 108 593 140 539 q 76 718 76 647 q 108 844 76 790 q 194 928 140 897 q 314 958 247 958 q 435 928 382 958 q 521 844 489 897 q 553 718 553 790 q 521 593 553 647 q 435 509 489 539 q 314 479 382 479 m 314 571 q 410 610 372 571 q 447 718 447 650 q 410 826 447 786 q 314 867 372 867 q 219 826 256 867 q 182 718 182 786 q 219 610 182 650 q 314 571 256 571 m 267 0 l 869 944 l 983 944 l 381 0 l 267 0 z "},"⁺":{"ha":611,"x_min":69,"x_max":542,"o":"m 69 778 l 69 872 l 542 872 l 542 778 l 69 778 m 256 1057 l 356 1057 l 356 593 l 256 593 l 256 1057 z "},"↑":{"ha":1011,"x_min":111,"x_max":900,"o":"m 111 474 l 111 610 l 506 967 l 900 610 l 900 474 l 472 868 l 539 868 l 111 474 m 449 0 l 451 897 l 560 897 l 563 0 l 449 0 z "},"↗":{"ha":1025,"x_min":97,"x_max":900,"o":"m 797 188 l 797 796 l 835 757 l 229 757 l 332 860 l 900 860 l 900 290 l 797 188 m 176 57 l 97 136 l 804 835 l 876 764 l 176 57 z "},"→":{"ha":1175,"x_min":111,"x_max":1078,"o":"m 574 867 l 721 867 l 1078 472 l 721 78 l 574 78 l 968 506 l 968 439 l 574 867 m 111 525 l 1008 522 l 1008 422 l 111 419 l 111 525 z "},"↘":{"ha":1025,"x_min":97,"x_max":900,"o":"m 797 757 l 900 654 l 900 85 l 332 85 l 229 188 l 835 188 l 797 149 l 797 757 m 176 888 l 876 181 l 804 110 l 97 808 l 176 888 z "},"↓":{"ha":1011,"x_min":111,"x_max":900,"o":"m 111 471 l 539 76 l 472 76 l 900 471 l 900 335 l 506 -22 l 111 335 l 111 471 m 449 944 l 563 944 l 560 47 l 451 47 l 449 944 z "},"↙":{"ha":1025,"x_min":125,"x_max":928,"o":"m 228 757 l 228 149 l 190 188 l 796 188 l 693 85 l 125 85 l 125 654 l 228 757 m 849 888 l 928 808 l 221 110 l 149 181 l 849 888 z "},"←":{"ha":1175,"x_min":97,"x_max":1064,"o":"m 601 867 l 207 439 l 207 506 l 601 78 l 454 78 l 97 472 l 454 867 l 601 867 m 1064 525 l 1064 419 l 167 422 l 167 522 l 1064 525 z "},"↖":{"ha":1025,"x_min":125,"x_max":928,"o":"m 228 188 l 125 290 l 125 860 l 693 860 l 796 757 l 190 757 l 228 796 l 228 188 m 849 57 l 149 764 l 221 835 l 928 136 l 849 57 z "},"↔":{"ha":1433,"x_min":97,"x_max":1336,"o":"m 601 867 l 207 439 l 207 506 l 601 78 l 454 78 l 97 472 l 454 867 l 601 867 m 1267 524 l 1267 421 l 167 421 l 167 524 l 1267 524 m 832 867 l 979 867 l 1336 472 l 979 78 l 832 78 l 1226 506 l 1226 439 l 832 867 z "},"↕":{"ha":1011,"x_min":111,"x_max":900,"o":"m 111 613 l 111 749 l 506 1106 l 900 749 l 900 613 l 472 1007 l 539 1007 l 111 613 m 450 1036 l 561 1036 l 561 -86 l 450 -86 l 450 1036 m 111 338 l 539 -57 l 472 -57 l 900 338 l 900 201 l 506 -156 l 111 201 l 111 338 z "},"↩":{"ha":1318,"x_min":97,"x_max":1235,"o":"m 167 421 l 167 524 l 925 524 q 1067 571 1013 524 q 1121 694 1121 618 q 1066 823 1121 774 q 925 872 1011 872 l 825 872 l 825 972 l 931 972 q 1090 938 1021 972 q 1197 842 1158 903 q 1235 700 1235 781 q 1195 554 1235 617 q 1085 456 1156 492 q 919 421 1014 421 l 167 421 m 454 78 l 97 472 l 454 867 l 601 867 l 207 439 l 207 506 l 601 78 l 454 78 z "},"↪":{"ha":1318,"x_min":83,"x_max":1221,"o":"m 393 421 q 231 455 301 421 q 122 551 161 489 q 83 694 83 613 q 123 839 83 776 q 232 937 163 901 q 393 972 301 972 l 493 972 l 493 872 l 388 872 q 250 825 303 872 q 197 700 197 778 q 253 572 197 621 q 399 524 310 524 l 1151 524 l 1151 421 l 393 421 m 717 78 l 1111 506 l 1111 439 l 717 867 l 864 867 l 1221 472 l 864 78 l 717 78 z "},"↺":{"ha":1069,"x_min":111,"x_max":958,"o":"m 535 -14 q 317 41 413 -14 q 166 192 221 96 q 111 408 111 288 l 222 408 q 263 242 222 315 q 374 128 303 169 q 535 86 444 86 q 697 128 626 86 q 807 242 767 169 q 847 408 847 315 q 803 574 847 503 q 683 687 760 646 q 507 728 607 728 l 221 728 l 221 828 l 507 828 q 742 774 640 828 q 901 626 843 721 q 958 408 958 532 q 903 192 958 288 q 753 41 849 96 q 535 -14 657 -14 m 515 522 l 372 522 l 154 778 l 372 1033 l 515 1033 l 256 744 l 256 811 l 515 522 z "},"↻":{"ha":1069,"x_min":111,"x_max":958,"o":"m 535 -14 q 317 41 413 -14 q 166 192 221 96 q 111 408 111 288 q 169 626 111 532 q 328 774 226 721 q 563 828 431 828 l 849 828 l 849 728 l 563 728 q 387 687 464 728 q 266 574 310 646 q 222 408 222 503 q 263 242 222 315 q 374 128 303 169 q 535 86 444 86 q 697 128 626 86 q 807 242 767 169 q 847 408 847 315 l 958 408 q 903 192 958 288 q 753 41 849 96 q 535 -14 657 -14 m 554 522 l 814 811 l 814 744 l 554 1033 l 697 1033 l 915 778 l 697 522 l 554 522 z "},"⟵":{"ha":1592,"x_min":97,"x_max":1481,"o":"m 601 867 l 207 439 l 207 506 l 601 78 l 454 78 l 97 472 l 454 867 l 601 867 m 1481 525 l 1481 419 l 167 422 l 167 522 l 1481 525 z "},"⟶":{"ha":1592,"x_min":111,"x_max":1494,"o":"m 990 867 l 1138 867 l 1494 472 l 1138 78 l 990 78 l 1385 506 l 1385 439 l 990 867 m 111 525 l 1425 522 l 1425 422 l 111 419 l 111 525 z "},"●":{"ha":1111,"x_min":67,"x_max":1044,"o":"m 556 -17 q 363 20 451 -17 q 207 124 274 57 q 103 279 140 190 q 67 472 67 368 q 103 665 67 576 q 207 821 140 754 q 363 924 274 888 q 556 961 451 961 q 749 924 660 961 q 904 821 838 888 q 1008 665 971 754 q 1044 472 1044 576 q 1008 279 1044 368 q 904 124 971 190 q 749 20 838 57 q 556 -17 660 -17 z "},"○":{"ha":1111,"x_min":67,"x_max":1044,"o":"m 556 -17 q 363 20 451 -17 q 207 124 274 57 q 103 279 140 190 q 67 472 67 368 q 103 665 67 576 q 207 821 140 754 q 363 924 274 888 q 556 961 451 961 q 749 924 660 961 q 904 821 838 888 q 1008 665 971 754 q 1044 472 1044 576 q 1008 279 1044 368 q 904 124 971 190 q 749 20 838 57 q 556 -17 660 -17 m 556 67 q 757 119 668 67 q 897 265 846 172 q 949 472 949 357 q 897 681 949 589 q 757 825 846 772 q 556 878 668 878 q 353 825 443 878 q 213 681 264 772 q 161 472 161 589 q 213 265 161 357 q 353 119 264 172 q 556 67 443 67 z "},"◌":{"ha":1267,"x_min":93,"x_max":1174,"o":"m 633 -69 q 584 -49 604 -69 q 564 0 564 -29 q 584 49 564 29 q 633 69 604 69 q 683 49 663 69 q 703 0 703 29 q 683 -49 703 -29 q 633 -69 663 -69 m 810 -36 q 760 -16 781 -36 q 740 33 740 4 q 760 83 740 63 q 810 103 781 103 q 859 83 839 103 q 879 33 879 63 q 859 -16 879 4 q 810 -36 839 -36 m 968 68 q 919 88 939 68 q 899 138 899 108 q 919 187 899 167 q 968 207 939 207 q 1017 187 997 207 q 1038 138 1038 167 q 1017 88 1038 108 q 968 68 997 68 m 1071 226 q 1022 247 1042 226 q 1001 296 1001 267 q 1022 345 1001 325 q 1071 365 1042 365 q 1120 345 1100 365 q 1140 296 1140 325 q 1120 247 1140 267 q 1071 226 1100 226 m 1104 403 q 1055 423 1075 403 q 1035 472 1035 443 q 1055 522 1035 501 q 1104 542 1075 542 q 1153 522 1133 542 q 1174 472 1174 501 q 1153 423 1174 443 q 1104 403 1133 403 m 1071 579 q 1022 599 1042 579 q 1001 649 1001 619 q 1022 698 1001 678 q 1071 718 1042 718 q 1120 698 1100 718 q 1140 649 1140 678 q 1120 599 1140 619 q 1071 579 1100 579 m 968 738 q 919 758 939 738 q 899 807 899 778 q 919 856 899 836 q 968 876 939 876 q 1017 856 997 876 q 1038 807 1038 836 q 1017 758 1038 778 q 968 738 997 738 m 810 840 q 760 860 781 840 q 740 910 740 881 q 760 959 740 939 q 810 979 781 979 q 859 959 839 979 q 879 910 879 939 q 859 860 879 881 q 810 840 839 840 m 633 874 q 584 894 604 874 q 564 943 564 914 q 584 992 564 972 q 633 1013 604 1013 q 683 992 663 1013 q 703 943 703 972 q 683 894 703 914 q 633 874 663 874 m 457 840 q 408 860 428 840 q 388 910 388 881 q 408 959 388 939 q 457 979 428 979 q 506 959 486 979 q 526 910 526 939 q 506 860 526 881 q 457 840 486 840 m 299 738 q 249 758 269 738 q 229 807 229 778 q 249 856 229 836 q 299 876 269 876 q 348 856 328 876 q 368 807 368 836 q 348 758 368 778 q 299 738 328 738 m 196 579 q 147 599 167 579 q 126 649 126 619 q 147 698 126 678 q 196 718 167 718 q 245 698 225 718 q 265 649 265 678 q 245 599 265 619 q 196 579 225 579 m 163 403 q 113 423 133 403 q 93 472 93 443 q 113 522 93 501 q 163 542 133 542 q 212 522 192 542 q 232 472 232 501 q 212 423 232 443 q 163 403 192 403 m 196 226 q 147 247 167 226 q 126 296 126 267 q 147 345 126 325 q 196 365 167 365 q 245 345 225 365 q 265 296 265 325 q 245 247 265 267 q 196 226 225 226 m 299 68 q 249 88 269 68 q 229 138 229 108 q 249 187 229 167 q 299 207 269 207 q 348 187 328 207 q 368 138 368 167 q 348 88 368 108 q 299 68 328 68 m 457 -36 q 408 -16 428 -36 q 388 33 388 4 q 408 83 388 63 q 457 103 428 103 q 506 83 486 103 q 526 33 526 63 q 506 -16 526 4 q 457 -36 486 -36 z "},"◆":{"ha":1111,"x_min":63,"x_max":1049,"o":"m 556 965 l 1049 472 l 556 -21 l 63 472 l 556 965 z "},"◇":{"ha":1111,"x_min":63,"x_max":1049,"o":"m 556 -21 l 63 472 l 556 965 l 1049 472 l 556 -21 m 556 104 l 922 472 l 556 840 l 188 472 l 556 104 z "},"◊":{"ha":833,"x_min":78,"x_max":756,"o":"m 357 0 l 78 472 l 357 944 l 475 944 l 756 472 l 475 0 l 357 0 m 185 472 l 450 15 l 388 15 l 649 472 l 388 929 l 450 929 l 185 472 z "},"■":{"ha":1111,"x_min":83,"x_max":1028,"o":"m 83 944 l 1028 944 l 1028 0 l 83 0 l 83 944 z "},"□":{"ha":1111,"x_min":83,"x_max":1028,"o":"m 83 944 l 1028 944 l 1028 0 l 83 0 l 83 944 m 175 86 l 936 86 l 936 858 l 175 858 l 175 86 z "},"▪":{"ha":833,"x_min":69,"x_max":764,"o":"m 69 694 l 764 694 l 764 0 l 69 0 l 69 694 z "},"▫":{"ha":833,"x_min":69,"x_max":764,"o":"m 69 0 l 69 694 l 764 694 l 764 0 l 69 0 m 161 86 l 672 86 l 672 608 l 161 608 l 161 86 z "},"◻":{"ha":1111,"x_min":83,"x_max":1028,"o":"m 83 944 l 1028 944 l 1028 0 l 83 0 l 83 944 m 175 86 l 936 86 l 936 858 l 175 858 l 175 86 z "},"◼":{"ha":1111,"x_min":83,"x_max":1028,"o":"m 83 944 l 1028 944 l 1028 0 l 83 0 l 83 944 z "},"▲":{"ha":1167,"x_min":28,"x_max":1139,"o":"m 28 0 l 583 963 l 1139 0 l 28 0 z "},"▶":{"ha":967,"x_min":83,"x_max":939,"o":"m 83 965 l 939 472 l 83 -21 l 83 965 z "},"▼":{"ha":1167,"x_min":28,"x_max":1139,"o":"m 28 944 l 1139 944 l 583 -18 l 28 944 z "},"◀":{"ha":967,"x_min":28,"x_max":883,"o":"m 883 965 l 883 -21 l 28 472 l 883 965 z "},"△":{"ha":1167,"x_min":28,"x_max":1139,"o":"m 28 0 l 583 963 l 1139 0 l 28 0 m 176 83 l 990 83 l 583 788 l 176 83 z "},"▷":{"ha":967,"x_min":83,"x_max":939,"o":"m 83 -21 l 83 965 l 939 472 l 83 -21 m 172 128 l 769 472 l 172 817 l 172 128 z "},"▽":{"ha":1167,"x_min":28,"x_max":1139,"o":"m 28 944 l 1139 944 l 583 -18 l 28 944 m 176 861 l 583 157 l 990 861 l 176 861 z "},"◁":{"ha":967,"x_min":28,"x_max":883,"o":"m 883 -21 l 28 472 l 883 965 l 883 -21 m 794 128 l 794 817 l 197 472 l 794 128 z "},"̈":{"ha":0,"x_min":142,"x_max":553,"o":"m 142 819 l 142 958 l 278 958 l 278 819 l 142 819 m 417 819 l 417 958 l 553 958 l 553 819 l 417 819 z "},"̇":{"ha":0,"x_min":274,"x_max":421,"o":"m 274 817 l 274 961 l 421 961 l 421 817 l 274 817 z "},"̀":{"ha":0,"x_min":160,"x_max":415,"o":"m 313 792 l 160 994 l 307 994 l 415 792 l 313 792 z "},"́":{"ha":0,"x_min":279,"x_max":535,"o":"m 382 792 l 279 792 l 388 994 l 535 994 l 382 792 z "},"̋":{"ha":0,"x_min":208,"x_max":636,"o":"m 394 792 l 506 994 l 636 994 l 483 792 l 394 792 m 208 792 l 306 994 l 436 994 l 297 792 l 208 792 z "},"̂":{"ha":0,"x_min":136,"x_max":558,"o":"m 136 783 l 282 986 l 413 986 l 558 783 l 453 783 l 347 908 l 242 783 l 136 783 z "},"̌":{"ha":0,"x_min":136,"x_max":558,"o":"m 136 994 l 242 994 l 347 869 l 453 994 l 558 994 l 413 792 l 282 792 l 136 994 z "},"̆":{"ha":0,"x_min":142,"x_max":553,"o":"m 347 783 q 198 842 254 783 q 142 994 142 900 l 242 994 q 274 910 244 940 q 347 881 304 881 q 422 910 392 881 q 453 994 451 940 l 553 994 q 497 842 553 900 q 347 783 440 783 z "},"̊":{"ha":0,"x_min":203,"x_max":492,"o":"m 347 783 q 244 822 285 783 q 203 921 203 861 q 244 1019 203 981 q 347 1058 285 1058 q 451 1019 410 1058 q 492 921 492 981 q 451 822 492 861 q 347 783 410 783 m 347 853 q 394 872 375 853 q 414 921 414 892 q 394 969 414 950 q 347 989 375 989 q 300 969 319 989 q 281 921 281 950 q 300 872 281 892 q 347 853 319 853 z "},"̃":{"ha":0,"x_min":121,"x_max":574,"o":"m 432 792 q 370 807 394 792 q 328 842 346 822 q 296 876 311 861 q 260 892 281 892 q 224 871 238 892 q 210 806 211 850 l 121 806 q 160 937 121 888 q 263 986 199 986 q 324 971 300 986 q 366 936 349 956 q 399 901 383 917 q 435 886 414 886 q 470 908 457 886 q 485 972 483 929 l 574 972 q 535 841 574 890 q 432 792 497 792 z "},"̄":{"ha":0,"x_min":139,"x_max":556,"o":"m 139 825 l 139 925 l 556 925 l 556 825 l 139 825 z "},"̍":{"ha":0,"x_min":289,"x_max":406,"o":"m 303 783 l 289 1042 l 406 1042 l 392 783 l 303 783 z "},"̒":{"ha":0,"x_min":279,"x_max":429,"o":"m 415 919 l 415 792 l 279 792 l 279 919 l 357 1042 l 429 1042 l 358 919 l 415 919 z "},"̦":{"ha":0,"x_min":265,"x_max":415,"o":"m 279 -225 l 279 -97 l 415 -97 l 415 -225 l 338 -347 l 265 -347 l 336 -225 l 279 -225 z "},"̧":{"ha":0,"x_min":238,"x_max":494,"o":"m 326 39 l 401 39 l 340 -114 l 319 -71 q 405 -75 365 -65 q 469 -111 444 -85 q 494 -182 494 -137 q 458 -265 494 -235 q 363 -301 421 -296 q 239 -283 304 -306 l 238 -211 q 358 -224 314 -236 q 403 -182 403 -211 q 369 -141 403 -154 q 261 -131 336 -128 l 326 39 z "},"̨":{"ha":0,"x_min":151,"x_max":347,"o":"m 347 0 q 274 -65 299 -32 q 250 -131 250 -99 q 281 -184 250 -171 q 347 -194 313 -197 l 347 -282 q 272 -283 307 -287 q 209 -262 236 -278 q 167 -222 182 -247 q 151 -158 151 -196 q 192 -56 151 -97 q 292 14 232 -14 l 347 0 z "},"̱":{"ha":0,"x_min":153,"x_max":542,"o":"m 153 -231 l 153 -131 l 542 -131 l 542 -231 l 153 -231 z "},"̸":{"ha":0,"x_min":49,"x_max":790,"o":"m 729 754 l 790 700 l 110 -60 l 49 -6 l 729 754 z "},"͘":{"ha":0,"x_min":275,"x_max":419,"o":"m 275 817 l 275 956 l 419 956 l 419 817 l 275 817 z "},"¨":{"ha":694,"x_min":142,"x_max":553,"o":"m 142 819 l 142 958 l 278 958 l 278 819 l 142 819 m 417 819 l 417 958 l 553 958 l 553 819 l 417 819 z "},"˙":{"ha":694,"x_min":274,"x_max":421,"o":"m 274 817 l 274 961 l 421 961 l 421 817 l 274 817 z "},"`":{"ha":694,"x_min":160,"x_max":415,"o":"m 313 792 l 160 994 l 307 994 l 415 792 l 313 792 z "},"´":{"ha":694,"x_min":279,"x_max":535,"o":"m 382 792 l 279 792 l 388 994 l 535 994 l 382 792 z "},"˝":{"ha":694,"x_min":208,"x_max":636,"o":"m 394 792 l 506 994 l 636 994 l 483 792 l 394 792 m 208 792 l 306 994 l 436 994 l 297 792 l 208 792 z "},"ˆ":{"ha":694,"x_min":136,"x_max":558,"o":"m 136 783 l 282 986 l 413 986 l 558 783 l 453 783 l 347 908 l 242 783 l 136 783 z "},"ˊ":{"ha":694,"x_min":279,"x_max":535,"o":"m 382 792 l 279 792 l 388 994 l 535 994 l 382 792 z "},"ˇ":{"ha":694,"x_min":136,"x_max":558,"o":"m 136 994 l 242 994 l 347 869 l 453 994 l 558 994 l 413 792 l 282 792 l 136 994 z "},"ˋ":{"ha":694,"x_min":160,"x_max":415,"o":"m 313 792 l 160 994 l 307 994 l 415 792 l 313 792 z "},"˘":{"ha":694,"x_min":142,"x_max":553,"o":"m 347 783 q 198 842 254 783 q 142 994 142 900 l 242 994 q 274 910 244 940 q 347 881 304 881 q 422 910 392 881 q 453 994 451 940 l 553 994 q 497 842 553 900 q 347 783 440 783 z "},"˚":{"ha":694,"x_min":203,"x_max":492,"o":"m 347 783 q 244 822 285 783 q 203 921 203 861 q 244 1019 203 981 q 347 1058 285 1058 q 451 1019 410 1058 q 492 921 492 981 q 451 822 492 861 q 347 783 410 783 m 347 853 q 394 872 375 853 q 414 921 414 892 q 394 969 414 950 q 347 989 375 989 q 300 969 319 989 q 281 921 281 950 q 300 872 281 892 q 347 853 319 853 z "},"˜":{"ha":694,"x_min":121,"x_max":574,"o":"m 432 792 q 370 807 394 792 q 328 842 346 822 q 296 876 311 861 q 260 892 281 892 q 224 871 238 892 q 210 806 211 850 l 121 806 q 160 937 121 888 q 263 986 199 986 q 324 971 300 986 q 366 936 349 956 q 399 901 383 917 q 435 886 414 886 q 470 908 457 886 q 485 972 483 929 l 574 972 q 535 841 574 890 q 432 792 497 792 z "},"¯":{"ha":694,"x_min":139,"x_max":556,"o":"m 139 825 l 139 925 l 556 925 l 556 825 l 139 825 z "},"¸":{"ha":694,"x_min":238,"x_max":494,"o":"m 326 39 l 401 39 l 340 -114 l 319 -71 q 405 -75 365 -65 q 469 -111 444 -85 q 494 -182 494 -137 q 458 -265 494 -235 q 363 -301 421 -296 q 239 -283 304 -306 l 238 -211 q 358 -224 314 -236 q 403 -182 403 -211 q 369 -141 403 -154 q 261 -131 336 -128 l 326 39 z "},"˛":{"ha":694,"x_min":151,"x_max":347,"o":"m 347 0 q 274 -65 299 -32 q 250 -131 250 -99 q 281 -184 250 -171 q 347 -194 313 -197 l 347 -282 q 272 -283 307 -287 q 209 -262 236 -278 q 167 -222 182 -247 q 151 -158 151 -196 q 192 -56 151 -97 q 292 14 232 -14 l 347 0 z "}}}
